<svg height="436pt" viewBox="0 -6 436.90667 436" width="436pt" xmlns="http://www.w3.org/2000/svg"><path d="m211.625 396.398438h-102.980469c-29.792969 0-54.03125-24.238282-54.03125-54.03125v-35.292969c0-14.742188-11.984375-26.726563-26.726562-26.726563h-7.40625c-7.539063 0-13.652344-6.113281-13.652344-13.65625 0-7.539062 6.113281-13.652344 13.652344-13.652344h7.40625c29.792969 0 54.035156 24.242188 54.035156 54.035157v35.292969c0 14.738281 11.984375 26.726562 26.722656 26.726562h102.980469c7.542969 0 13.65625 6.113281 13.65625 13.652344 0 7.539062-6.113281 13.652344-13.65625 13.652344zm0 0" fill="#bfad88"/><path d="m211.625 403.226562h-102.980469c-33.554687 0-60.859375-27.304687-60.859375-60.859374v-35.292969c0-10.976563-8.925781-19.902344-19.898437-19.902344h-7.40625c-11.292969 0-20.480469-9.183594-20.480469-20.480469 0-11.292968 9.1875-20.476562 20.480469-20.476562h7.40625c33.558593 0 60.859375 27.300781 60.859375 60.859375v35.292969c0 10.972656 8.925781 19.898437 19.898437 19.898437h102.980469c11.292969 0 20.480469 9.1875 20.480469 20.480469 0 11.292968-9.1875 20.480468-20.480469 20.480468zm-191.144531-143.359374c-3.761719 0-6.828125 3.0625-6.828125 6.824218 0 3.765625 3.066406 6.828125 6.828125 6.828125h7.40625c18.5 0 33.554687 15.054688 33.554687 33.554688v35.292969c0 26.03125 21.175782 47.207031 47.203125 47.207031h102.980469c3.765625 0 6.828125-3.0625 6.828125-6.828125 0-3.761719-3.0625-6.824219-6.828125-6.824219h-102.980469c-18.5 0-33.550781-15.054687-33.550781-33.554687v-35.292969c0-26.03125-21.175781-47.207031-47.207031-47.207031zm0 0" fill="#54596e"/><path d="m375.15625 328.132812h-238.039062c-34.257813 0-62.023438 22.886719-62.023438 51.117188v37.628906h354.984375v-43.480468c0-25-24.585937-45.265626-54.921875-45.265626zm0 0" fill="#fff"/><path d="m430.078125 423.707031h-354.984375c-3.769531 0-6.828125-3.058593-6.828125-6.828125v-37.628906c0-31.949219 30.886719-57.941406 68.851563-57.941406h238.039062c34.050781 0 61.75 23.367187 61.75 52.089844v43.480468c0 3.769532-3.054688 6.828125-6.828125 6.828125zm-348.15625-13.652343h341.332031v-36.65625c0-21.195313-21.578125-38.4375-48.097656-38.4375h-238.039062c-30.4375 0-55.195313 19.871093-55.195313 44.289062zm0 0" fill="#54596e"/><path d="m279.894531 369.09375h68.265625v47.785156h-68.265625zm0 0" fill="#bfad88"/><path d="m348.160156 423.707031h-68.265625c-3.769531 0-6.828125-3.058593-6.828125-6.828125v-47.785156c0-3.769531 3.058594-6.828125 6.828125-6.828125h68.265625c3.769532 0 6.828125 3.058594 6.828125 6.828125v47.785156c0 3.769532-3.058593 6.828125-6.828125 6.828125zm-61.441406-13.652343h54.613281v-34.132813h-54.613281zm0 0" fill="#54596e"/><path d="m395.945312 287.171875v-125.214844c0-85.425781-64.179687-154.675781-143.359374-154.675781-79.175782 0-143.359376 69.25-143.359376 154.675781v125.214844zm0 0" fill="#fff"/><path d="m395.945312 294h-286.71875c-3.769531 0-6.828124-3.054688-6.828124-6.828125v-125.214844c0-89.054687 67.375-161.503906 150.1875-161.503906s150.1875 72.449219 150.1875 161.503906v125.214844c0 3.773437-3.058594 6.828125-6.828126 6.828125zm-279.890624-13.652344h273.066406v-118.390625c0-81.523437-61.25-147.851562-136.535156-147.851562-75.28125 0-136.53125 66.328125-136.53125 147.851562zm0 0" fill="#54596e"/><path d="m122.878906 300.828125v20.480469c0 7.539062 58.074219 13.652344 129.707032 13.652344 71.632812 0 129.707031-6.113282 129.707031-13.652344v-20.480469zm0 0" fill="#fff"/><path d="m252.585938 341.785156c-34.875 0-67.699219-1.433594-92.429688-4.035156-37.078125-3.902344-44.101562-8.789062-44.101562-16.441406v-20.480469c0-3.769531 3.054687-6.828125 6.824218-6.828125h259.414063c3.769531 0 6.828125 3.058594 6.828125 6.828125v20.480469c0 7.652344-7.027344 12.539062-44.105469 16.441406-24.730469 2.601562-57.550781 4.035156-92.429687 4.035156zm-122.878907-23.246094c10.054688 4.253907 55.257813 9.59375 122.878907 9.59375 67.625 0 112.828124-5.339843 122.878906-9.59375v-10.886718h-245.757813zm0 0" fill="#54596e"/><path d="m252.585938 280.347656c-79.175782 0-143.359376-6.113281-143.359376-13.65625v34.136719c0 7.539063 64.183594 13.652344 143.359376 13.652344 79.179687 0 143.359374-6.113281 143.359374-13.652344v-34.136719c0 7.542969-64.179687 13.65625-143.359374 13.65625zm0 0" fill="#fff"/><path d="m252.585938 321.308594c-38.503907 0-74.734376-1.433594-102.019532-4.03125-40.71875-3.878906-48.167968-8.585938-48.167968-16.449219v-34.136719c0-3.769531 3.058593-6.824218 6.828124-6.824218 2.570313 0 4.804688 1.417968 5.972657 3.515624 8.9375 4.382813 59.738281 10.136719 137.386719 10.136719 77.652343 0 128.453124-5.753906 137.386718-10.136719 1.167969-2.097656 3.402344-3.515624 5.972656-3.515624 3.769532 0 6.828126 3.054687 6.828126 6.824218v34.136719c0 7.863281-7.449219 12.570313-48.167969 16.449219-27.285157 2.597656-63.515625 4.03125-102.019531 4.03125zm-136.53125-23.417969c10.964843 4.328125 61.066406 9.761719 136.53125 9.761719 75.464843 0 125.566406-5.433594 136.535156-9.761719v-19.9375c-7.292969 1.957031-18.25 3.640625-34.515625 5.1875-27.285157 2.601563-63.515625 4.03125-102.019531 4.03125-38.503907 0-74.734376-1.429687-102.019532-4.027344-16.261718-1.550781-27.21875-3.230469-34.511718-5.191406zm0 0" fill="#54596e"/><path d="m232.105469 130.160156c-3.769531 0-6.824219-3.058594-6.824219-6.828125v-109.226562c0-3.769531 3.054688-6.824219 6.824219-6.824219s6.828125 3.054688 6.828125 6.824219v109.226562c0 3.769531-3.058594 6.828125-6.828125 6.828125zm0 0" fill="#54596e"/><path d="m273.066406 130.160156c-3.769531 0-6.828125-3.058594-6.828125-6.828125v-109.226562c0-3.769531 3.058594-6.824219 6.828125-6.824219 3.769532 0 6.828125 3.054688 6.828125 6.824219v109.226562c0 3.769531-3.058593 6.828125-6.828125 6.828125zm0 0" fill="#54596e"/><path d="m116.71875 133.105469c-4.832031 15.5-7.492188 32.074219-7.492188 49.332031v93.75c42.183594 6.972656 91.117188 10.988281 143.359376 10.988281 52.242187 0 101.175781-4.015625 143.359374-10.988281v-93.75c0-17.257812-2.660156-33.832031-7.492187-49.332031-40.441406-6.234375-86.703125-9.773438-135.867187-9.773438-49.164063 0-95.429688 3.539063-135.867188 9.773438zm0 0" fill="#8065c4"/><path d="m252.585938 294c-50.671876 0-100.632813-3.828125-144.472657-11.078125-3.296875-.542969-5.714843-3.394531-5.714843-6.734375v-93.75c0-17.480469 2.628906-34.761719 7.804687-51.367188.777344-2.488281 2.898437-4.316406 5.476563-4.714843 83.648437-12.886719 190.160156-12.886719 273.8125 0 2.578124.394531 4.703124 2.226562 5.476562 4.714843 5.179688 16.605469 7.804688 33.886719 7.804688 51.367188v93.75c0 3.339844-2.417969 6.191406-5.714844 6.734375-43.839844 7.25-93.800782 11.078125-144.472656 11.078125zm-136.53125-23.628906c41.722656 6.53125 88.78125 9.976562 136.53125 9.976562s94.8125-3.445312 136.535156-9.976562v-87.933594c0-14.679688-2.007813-29.195312-5.972656-43.230469-80.191407-11.847656-180.945313-11.847656-261.121094 0-3.96875 14.035157-5.972656 28.550781-5.972656 43.230469zm0 0" fill="#54596e"/><path d="m157.011719 171.121094c0 22.621094-18.335938 40.957031-40.957031 40.957031-22.621094 0-40.960938-18.335937-40.960938-40.957031s18.339844-40.960938 40.960938-40.960938c22.621093 0 40.957031 18.339844 40.957031 40.960938zm0 0" fill="#bfad88"/><path d="m116.054688 218.90625c-26.351563 0-47.789063-21.4375-47.789063-47.785156 0-26.351563 21.4375-47.789063 47.789063-47.789063 26.347656 0 47.785156 21.4375 47.785156 47.789063 0 26.347656-21.4375 47.785156-47.785156 47.785156zm0-81.917969c-18.820313 0-34.132813 15.3125-34.132813 34.132813 0 18.816406 15.3125 34.132812 34.132813 34.132812 18.816406 0 34.132812-15.316406 34.132812-34.132812 0-18.820313-15.316406-34.132813-34.132812-34.132813zm0 0" fill="#54596e"/><path d="m423.253906 171.121094c0 22.621094-18.339844 40.957031-40.960937 40.957031-22.621094 0-40.960938-18.335937-40.960938-40.957031s18.339844-40.960938 40.960938-40.960938c22.621093 0 40.960937 18.339844 40.960937 40.960938zm0 0" fill="#bfad88"/><path d="m382.292969 218.90625c-26.347657 0-47.785157-21.4375-47.785157-47.785156 0-26.351563 21.4375-47.789063 47.785157-47.789063 26.347656 0 47.785156 21.4375 47.785156 47.789063 0 26.347656-21.4375 47.785156-47.785156 47.785156zm0-81.917969c-18.820313 0-34.132813 15.3125-34.132813 34.132813 0 18.816406 15.3125 34.132812 34.132813 34.132812 18.820312 0 34.132812-15.316406 34.132812-34.132812 0-18.820313-15.3125-34.132813-34.132812-34.132813zm0 0" fill="#54596e"/><path d="m348.265625 282.460938c12.832031-21.964844 20.375-48.539063 20.375-77.207032 0-28.667968-7.539063-55.238281-20.371094-77.203125-29.941406-3.03125-62.105469-4.71875-95.683593-4.71875-33.578126 0-65.742188 1.6875-95.683594 4.71875-12.828125 21.964844-20.367188 48.535157-20.367188 77.203125 0 28.667969 7.542969 55.242188 20.371094 77.207032 29.929688 3.035156 62.105469 4.710937 95.679688 4.710937 33.574218 0 65.75-1.675781 95.679687-4.710937zm0 0" fill="#bfad88"/><path d="m252.585938 294c-32.890626 0-65.316407-1.597656-96.371094-4.746094-2.167969-.222656-4.101563-1.464844-5.203125-3.351562-13.9375-23.859375-21.304688-51.75-21.304688-80.648438 0-28.902344 7.367188-56.785156 21.300781-80.648437 1.101563-1.882813 3.035157-3.128907 5.207032-3.347657 62.308594-6.300781 130.433594-6.300781 192.742187 0 2.171875.21875 4.105469 1.464844 5.207031 3.347657 13.9375 23.863281 21.300782 51.746093 21.300782 80.648437 0 28.898438-7.363282 56.789063-21.304688 80.648438-1.101562 1.886718-3.03125 3.128906-5.203125 3.351562-31.054687 3.148438-63.476562 4.746094-96.371093 4.746094zm95.679687-11.539062h.066406zm-187.164063-6.445313c59.058594 5.746094 123.910157 5.746094 182.972657 0 11.617187-21.097656 17.738281-45.484375 17.738281-70.761719 0-25.273437-6.121094-49.660156-17.738281-70.761718-59.238281-5.753907-123.738281-5.753907-182.980469 0-11.609375 21.101562-17.734375 45.488281-17.734375 70.761718 0 25.277344 6.125 49.664063 17.742187 70.761719zm0 0" fill="#54596e"/><path d="m200.175781 124.683594c-17.875 4.324218-32.136719 19.109375-35.496093 37.347656-4.695313 25.480469 10.847656 48.183594 33.292968 54.871094v42.964844c0 30.164062 24.449219 54.613281 54.613282 54.613281 30.164062 0 54.613281-24.449219 54.613281-54.613281v-42.964844c22.445312-6.6875 37.992187-29.394532 33.292969-54.871094-3.117188-16.933594-15.636719-30.894531-31.726563-36.265625" fill="#ffd578"/><g fill="#54596e"><path d="m252.585938 321.308594c-33.875 0-61.4375-27.566406-61.4375-61.441406v-38.128907c-23.886719-9.632812-37.976563-34.9375-33.179688-60.945312 3.796875-20.605469 20.113281-37.789063 40.601562-42.746094 3.640626-.894531 7.355469 1.367187 8.242188 5.027344.890625 3.667969-1.367188 7.355469-5.027344 8.246093-15.339844 3.707032-27.554687 16.546876-30.390625 31.945313-3.84375 20.859375 8.417969 41.105469 28.53125 47.09375 2.890625.863281 4.875 3.523437 4.875 6.542969v42.964844c0 26.347656 21.4375 47.785156 47.785157 47.785156 26.351562 0 47.789062-21.4375 47.789062-47.785156v-42.964844c0-3.019532 1.980469-5.679688 4.875-6.542969 20.109375-5.988281 32.371094-26.234375 28.53125-47.09375-2.621094-14.210937-13.289062-26.390625-27.175781-31.023437-3.578125-1.191407-5.511719-5.058594-4.316407-8.636719 1.199219-3.574219 5.066407-5.492188 8.636719-4.316407 18.535157 6.1875 32.773438 22.476563 36.28125 41.503907 4.792969 26.003906-9.296875 51.3125-33.179687 60.945312v38.128907c0 33.875-27.5625 61.441406-61.441406 61.441406zm0 0"/><path d="m212.429688 152.972656c-6.25-4.21875-14.738282-2.574218-18.957032 3.675782s-2.570312 14.734374 3.679688 18.953124 14.734375 2.574219 18.953125-3.675781 2.574219-14.734375-3.675781-18.953125zm0 0"/><path d="m241.261719 234.316406c-4.6875-3.164062-11.050781-1.929687-14.214844 2.753906-3.164063 4.6875-1.929687 11.054688 2.753906 14.21875 4.6875 3.164063 11.054688 1.929688 14.21875-2.757812 3.164063-4.6875 1.929688-11.050781-2.757812-14.214844zm0 0"/><path d="m275.398438 234.316406c-4.6875-3.167968-11.054688-1.933594-14.21875 2.753906-3.164063 4.6875-1.929688 11.054688 2.757812 14.21875 4.6875 3.164063 11.050781 1.929688 14.214844-2.757812 3.167968-4.6875 1.933594-11.050781-2.753906-14.214844zm0 0"/><path d="m308 152.972656c-6.25-4.21875-14.738281-2.574218-18.957031 3.675782s-2.570313 14.738281 3.679687 18.957031c6.246094 4.21875 14.734375 2.570312 18.953125-3.679688s2.574219-14.734375-3.675781-18.953125zm0 0"/></g><path d="m348.269531 128.050781c-29.941406-3.03125-62.105469-4.71875-95.683593-4.71875-33.578126 0-65.742188 1.6875-95.683594 4.71875" fill="#bfad88"/><path d="m348.277344 134.878906-.695313-.035156c-61.398437-6.214844-128.59375-6.214844-189.992187 0-3.804688.390625-7.097656-2.359375-7.480469-6.105469-.375-3.75 2.355469-7.101562 6.105469-7.480469 62.308594-6.300781 130.433594-6.300781 192.742187 0 3.753907.378907 6.484375 3.730469 6.105469 7.480469-.355469 3.515625-3.320312 6.140625-6.785156 6.140625zm0 0" fill="#54596e"/></svg>