<svg height="423pt" viewBox="-7 0 423 423.25333" width="423pt" xmlns="http://www.w3.org/2000/svg"><path d="m341.640625 327.679688h-265.507813c-38.207031 0-69.179687 22.886718-69.179687 51.117187v37.628906h395.945313v-43.480469c0-25-27.425782-45.265624-61.257813-45.265624zm0 0" fill="#61c5a8"/><path d="m402.898438 423.253906h-395.945313c-3.773437 0-6.828125-3.058594-6.828125-6.828125v-37.628906c0-31.949219 34.097656-57.945313 76.007812-57.945313h265.507813c37.539063 0 68.085937 23.371094 68.085937 52.09375v43.480469c0 3.769531-3.054687 6.828125-6.828124 6.828125zm-389.117188-13.652344h382.292969v-36.65625c0-21.195312-24.421875-38.4375-54.433594-38.4375h-265.507813c-34.378906 0-62.351562 19.871094-62.351562 44.289063zm0 0" fill="#54596e"/><path d="m307.328125 416.425781c-3.773437 0-6.828125-3.054687-6.828125-6.824219v-20.480468c0-3.769532 3.054688-6.828125 6.828125-6.828125s6.824219 3.058593 6.824219 6.828125v20.480468c0 3.769532-3.050782 6.824219-6.824219 6.824219zm0 0" fill="#54596e"/><path d="m75.21875 307.199219v20.480469c0 7.539062 58.074219 13.652343 129.707031 13.652343 71.636719 0 129.707031-6.113281 129.707031-13.652343v-20.480469zm0 0" fill="#61c5a8"/><path d="m204.925781 348.160156c-34.875 0-67.699219-1.433594-92.433593-4.035156-37.074219-3.90625-44.097657-8.792969-44.097657-16.445312v-20.480469c0-3.769531 3.050781-6.824219 6.824219-6.824219h259.414062c3.773438 0 6.828126 3.054688 6.828126 6.824219v20.480469c0 7.652343-7.027344 12.539062-44.101563 16.445312-24.734375 2.601562-57.558594 4.035156-92.433594 4.035156zm-122.878906-23.246094c10.054687 4.253907 55.261719 9.59375 122.878906 9.59375 67.621094 0 112.828125-5.339843 122.882813-9.59375v-10.886718h-245.761719zm0 0" fill="#54596e"/><path d="m102.527344 368.640625h204.800781v47.785156h-204.800781zm0 0" fill="#8065c4"/><path d="m307.328125 423.253906h-204.800781c-3.773438 0-6.828125-3.058594-6.828125-6.828125v-47.785156c0-3.769531 3.054687-6.828125 6.828125-6.828125h204.800781c3.773437 0 6.824219 3.058594 6.824219 6.828125v47.785156c0 3.769531-3.050782 6.828125-6.824219 6.828125zm-197.976563-13.652344h191.148438v-34.136718h-191.148438zm0 0" fill="#54596e"/><path d="m204.925781 286.71875c-79.171875 0-143.359375-6.113281-143.359375-13.652344v34.132813c0 7.539062 64.1875 13.652343 143.359375 13.652343 79.175781 0 143.359375-6.113281 143.359375-13.652343v-34.132813c0 7.539063-64.183594 13.652344-143.359375 13.652344zm0 0" fill="#61c5a8"/><path d="m204.925781 327.679688c-38.5 0-74.730469-1.429688-102.019531-4.027344-40.71875-3.878906-48.167969-8.585938-48.167969-16.453125v-34.132813c0-3.769531 3.054688-6.828125 6.828125-6.828125 2.566406 0 4.804688 1.421875 5.972656 3.519531 8.933594 4.382813 59.734376 10.136719 137.386719 10.136719 77.652344 0 128.453125-5.753906 137.386719-10.136719 1.167969-2.097656 3.40625-3.519531 5.972656-3.519531 3.773438 0 6.828125 3.058594 6.828125 6.828125v34.132813c0 7.867187-7.445312 12.574219-48.167969 16.453125-27.285156 2.597656-63.519531 4.027344-102.019531 4.027344zm-136.53125-23.417969c10.964844 4.332031 61.066407 9.765625 136.53125 9.765625 75.46875 0 125.566407-5.433594 136.535157-9.765625v-19.9375c-7.292969 1.960937-18.246094 3.640625-34.515626 5.191406-27.285156 2.601563-63.519531 4.03125-102.019531 4.03125s-74.730469-1.429687-102.019531-4.03125c-16.265625-1.546875-27.21875-3.230469-34.511719-5.1875zm0 0" fill="#54596e"/><path d="m266.367188 416.425781h-122.878907l-6.828125-47.785156h136.53125zm0 0" fill="#bfad88"/><path d="m266.367188 423.253906h-122.878907c-3.402343 0-6.28125-2.496094-6.761719-5.859375l-6.828124-47.789062c-.277344-1.957031.308593-3.945313 1.601562-5.441407 1.300781-1.492187 3.179688-2.351562 5.160156-2.351562h136.53125c1.980469 0 3.863282.859375 5.160156 2.355469 1.292969 1.496093 1.882813 3.480469 1.601563 5.441406l-6.828125 47.785156c-.476562 3.363281-3.359375 5.859375-6.757812 5.859375zm-116.960938-13.652344h111.039062l4.875-34.136718h-120.789062zm0 0" fill="#54596e"/><path d="m341.460938 197.972656c0-86.714844-61.125-191.144531-136.535157-191.144531-75.40625 0-136.53125 104.429687-136.53125 191.144531 0 67.378906 36.972657 104.125 88.804688 117.214844.621093 22.078125 18.667969 39.800781 40.902343 39.800781 21.257813 0 38.722657-16.203125 40.75-36.929687 58.960938-9.796875 102.609376-46.867188 102.609376-120.085938zm0 0" fill="#bfad88"/><path d="m198.101562 361.8125c-24.289062 0-44.160156-17.75-47.308593-41.277344-57.59375-16.363281-89.226563-59.710937-89.226563-122.5625 0-89.667968 63.949219-197.972656 143.359375-197.972656 79.414063 0 143.359375 108.304688 143.359375 197.972656 0 68.519532-36.671875 113.078125-103.429687 125.949219-4.570313 21.929687-23.828125 37.890625-46.753907 37.890625zm6.824219-348.160156c-58.746093 0-129.707031 82.222656-129.707031 184.320312 0 73.945313 45.496094 100.957032 83.65625 110.59375 2.957031.75 5.066406 3.375 5.152344 6.429688.519531 18.597656 15.484375 33.164062 34.074218 33.164062 17.644532 0 32.246094-13.226562 33.957032-30.761718.300781-3.078126 2.628906-5.566407 5.671875-6.070313 62.488281-10.386719 96.902343-50.644531 96.902343-113.355469 0-102.097656-70.960937-184.320312-129.707031-184.320312zm0 0" fill="#54596e"/><path d="m361.941406 242.347656c0 20.734375-16.8125 37.546875-37.546875 37.546875-20.738281 0-37.546875-16.8125-37.546875-37.546875 0-20.738281 16.808594-37.546875 37.546875-37.546875 20.734375 0 37.546875 16.808594 37.546875 37.546875zm0 0" fill="#fff"/><path d="m324.394531 286.71875c-24.46875 0-44.375-19.90625-44.375-44.371094 0-24.46875 19.90625-44.375 44.375-44.375 24.464844 0 44.371094 19.90625 44.371094 44.375 0 24.464844-19.90625 44.371094-44.371094 44.371094zm0-75.09375c-16.941406 0-30.722656 13.78125-30.722656 30.722656 0 16.9375 13.78125 30.71875 30.722656 30.71875 16.9375 0 30.71875-13.78125 30.71875-30.71875 0-16.941406-13.78125-30.722656-30.71875-30.722656zm0 0" fill="#54596e"/><path d="m341.460938 238.933594c0 7.539062-6.113282 13.652344-13.652344 13.652344-7.542969 0-13.65625-6.113282-13.65625-13.652344 0-7.539063 6.113281-13.652344 13.65625-13.652344 7.539062 0 13.652344 6.113281 13.652344 13.652344zm0 0" fill="#54596e"/><path d="m116.179688 242.347656c0 20.734375-16.808594 37.546875-37.546876 37.546875-20.734374 0-37.546874-16.8125-37.546874-37.546875 0-20.738281 16.8125-37.546875 37.546874-37.546875 20.738282 0 37.546876 16.808594 37.546876 37.546875zm0 0" fill="#fff"/><g fill="#54596e"><path d="m78.632812 286.71875c-24.464843 0-44.371093-19.90625-44.371093-44.371094 0-24.46875 19.90625-44.375 44.371093-44.375 24.46875 0 44.375 19.90625 44.375 44.375 0 24.464844-19.90625 44.371094-44.375 44.371094zm0-75.09375c-16.941406 0-30.71875 13.78125-30.71875 30.722656 0 16.9375 13.777344 30.71875 30.71875 30.71875 16.941407 0 30.71875-13.78125 30.71875-30.71875 0-16.941406-13.777343-30.722656-30.71875-30.722656zm0 0"/><path d="m95.699219 238.933594c0 7.539062-6.113281 13.652344-13.652344 13.652344s-13.652344-6.113282-13.652344-13.652344c0-7.539063 6.113281-13.652344 13.652344-13.652344s13.652344 6.113281 13.652344 13.652344zm0 0"/><path d="m198.101562 307.199219c-10.082031 0-18.789062 5.527343-23.519531 13.652343 4.730469 8.128907 13.4375 13.65625 23.519531 13.65625 10.078126 0 18.785157-5.527343 23.519532-13.65625-4.734375-8.125-13.441406-13.652343-23.519532-13.652343zm0 0"/></g><path d="m170.792969 109.226562c0 7.539063-6.113281 13.652344-13.652344 13.652344-7.542969 0-13.652344-6.113281-13.652344-13.652344 0-7.539062 6.109375-13.652343 13.652344-13.652343 7.539063 0 13.652344 6.113281 13.652344 13.652343zm0 0" fill="#fff35f"/><path d="m266.367188 109.226562c0 7.539063-6.113282 13.652344-13.652344 13.652344-7.542969 0-13.65625-6.113281-13.65625-13.652344 0-7.539062 6.113281-13.652343 13.65625-13.652343 7.539062 0 13.652344 6.113281 13.652344 13.652343zm0 0" fill="#fff35f"/></svg>