<svg height="416pt" viewBox="-3 0 416 416.42667" width="416pt" xmlns="http://www.w3.org/2000/svg"><path d="m348.375 286.71875v-125.214844c0-85.425781-64.183594-154.675781-143.363281-154.675781-79.175781 0-143.359375 69.25-143.359375 154.675781v125.214844z" fill="#d8d8d8"/><path d="m348.375 293.546875h-286.722656c-3.769532 0-6.824219-3.058594-6.824219-6.828125v-125.214844c0-89.054687 67.371094-161.503906 150.183594-161.503906s150.1875 72.449219 150.1875 161.503906v125.214844c0 3.769531-3.054688 6.828125-6.824219 6.828125zm-279.894531-13.652344h273.066406v-118.390625c0-81.523437-61.25-147.851562-136.535156-147.851562-75.28125 0-136.53125 66.328125-136.53125 147.851562zm0 0" fill="#54596e"/><path d="m341.726562 320.851562h-265.511718c-38.203125 0-69.175782 22.886719-69.175782 51.117188v37.632812h395.949219v-43.480468c0-25-27.429687-45.269532-61.261719-45.269532zm0 0" fill="#d8d8d8"/><path d="m402.988281 416.425781h-395.949219c-3.769531 0-6.824218-3.054687-6.824218-6.824219v-37.632812c0-31.949219 34.09375-57.941406 76-57.941406h265.511718c37.542969 0 68.085938 23.367187 68.085938 52.09375v43.480468c0 3.769532-3.054688 6.824219-6.824219 6.824219zm-389.121093-13.652343h382.292968v-36.652344c0-21.199219-24.421875-38.441406-54.433594-38.441406h-265.511718c-34.378906 0-62.347656 19.871093-62.347656 44.289062zm0 0" fill="#54596e"/><path d="m307.414062 409.601562c-3.769531 0-6.828124-3.058593-6.828124-6.828124v-20.480469c0-3.769531 3.058593-6.828125 6.828124-6.828125 3.769532 0 6.824219 3.058594 6.824219 6.828125v20.480469c0 3.769531-3.054687 6.828124-6.824219 6.828124zm0 0" fill="#54596e"/><path d="m75.308594 300.375v20.476562c0 7.542969 58.070312 13.65625 129.703125 13.65625 71.636719 0 129.707031-6.113281 129.707031-13.65625v-20.476562zm0 0" fill="#fff"/><path d="m205.011719 341.332031c-34.875 0-67.699219-1.433593-92.429688-4.035156-37.074219-3.902344-44.101562-8.789063-44.101562-16.445313v-20.476562c0-3.773438 3.054687-6.828125 6.828125-6.828125h259.410156c3.769531 0 6.828125 3.054687 6.828125 6.828125v20.476562c0 7.65625-7.027344 12.542969-44.105469 16.445313-24.726562 2.601563-57.550781 4.035156-92.429687 4.035156zm-122.878907-23.246093c10.054688 4.253906 55.257813 9.59375 122.878907 9.59375 67.625 0 112.828125-5.339844 122.882812-9.59375v-10.886719h-245.761719zm0 0" fill="#54596e"/><path d="m239.148438 361.8125h68.265624v47.789062h-68.265624zm0 0" fill="#ff927d"/><path d="m307.414062 416.425781h-68.265624c-3.773438 0-6.828126-3.054687-6.828126-6.824219v-47.789062c0-3.769531 3.054688-6.824219 6.828126-6.824219h68.265624c3.769532 0 6.824219 3.054688 6.824219 6.824219v47.789062c0 3.769532-3.054687 6.824219-6.824219 6.824219zm-61.441406-13.652343h54.613282v-34.132813h-54.613282zm0 0" fill="#54596e"/><path d="m205.011719 279.894531c-79.175781 0-143.359375-6.113281-143.359375-13.65625v34.136719c0 7.539062 64.183594 13.652344 143.359375 13.652344 79.179687 0 143.363281-6.113282 143.363281-13.652344v-34.136719c0 7.542969-64.183594 13.65625-143.363281 13.65625zm0 0" fill="#fff"/><path d="m205.011719 320.851562c-38.503907 0-74.730469-1.429687-102.019531-4.027343-40.714844-3.878907-48.164063-8.585938-48.164063-16.449219v-34.136719c0-3.769531 3.054687-6.824219 6.824219-6.824219 2.570312 0 4.808594 1.417969 5.972656 3.515626 8.9375 4.382812 59.738281 10.136718 137.386719 10.136718 77.652343 0 128.453125-5.753906 137.386719-10.136718 1.167968-2.097657 3.40625-3.515626 5.976562-3.515626 3.769531 0 6.824219 3.054688 6.824219 6.824219v34.136719c0 7.863281-7.449219 12.570312-48.167969 16.449219-27.285156 2.597656-63.515625 4.027343-102.019531 4.027343zm-136.53125-23.414062c10.964843 4.328125 61.070312 9.761719 136.53125 9.761719 75.464843 0 125.566406-5.433594 136.535156-9.761719v-19.9375c-7.292969 1.957031-18.25 3.640625-34.515625 5.1875-27.285156 2.601562-63.515625 4.03125-102.019531 4.03125-38.503907 0-74.730469-1.429688-102.019531-4.027344-16.261719-1.550781-27.21875-3.230468-34.511719-5.191406zm0 0" fill="#54596e"/><path d="m59.535156 252.585938h2.117188v-95.574219h-2.117188c-13.914062 0-25.1875 11.277343-25.1875 25.1875v45.199219c0 13.914062 11.273438 25.1875 25.1875 25.1875zm0 0" fill="#fff"/><path d="m61.652344 259.414062h-2.117188c-17.65625 0-32.015625-14.359374-32.015625-32.015624v-45.199219c0-17.652344 14.359375-32.011719 32.015625-32.011719h2.117188c3.769531 0 6.828125 3.054688 6.828125 6.824219v95.574219c0 3.769531-3.058594 6.828124-6.828125 6.828124zm-6.824219-94.964843c-7.851563 2.082031-13.65625 9.253906-13.65625 17.75v45.199219c0 8.496093 5.804687 15.667968 13.65625 17.75zm0 0" fill="#54596e"/><path d="m350.492188 252.585938h-2.117188v-95.574219h2.117188c13.910156 0 25.1875 11.277343 25.1875 25.1875v45.199219c0 13.914062-11.277344 25.1875-25.1875 25.1875zm0 0" fill="#fff"/><path d="m350.492188 259.414062h-2.117188c-3.773438 0-6.828125-3.058593-6.828125-6.828124v-95.574219c0-3.769531 3.054687-6.824219 6.828125-6.824219h2.117188c17.65625 0 32.015624 14.359375 32.015624 32.011719v45.199219c0 17.65625-14.359374 32.015624-32.015624 32.015624zm4.707031-94.964843v80.699219c7.851562-2.082032 13.652343-9.253907 13.652343-17.75v-45.199219c0-8.496094-5.800781-15.667969-13.652343-17.75zm0 0" fill="#54596e"/><path d="m184.535156 129.707031c-3.773437 0-6.828125-3.058593-6.828125-6.828125v-109.226562c0-3.769532 3.054688-6.824219 6.828125-6.824219 3.769532 0 6.824219 3.054687 6.824219 6.824219v109.226562c0 3.769532-3.054687 6.828125-6.824219 6.828125" fill="#54596e"/><path d="m225.492188 129.707031c-3.769532 0-6.824219-3.058593-6.824219-6.828125v-109.226562c0-3.769532 3.054687-6.824219 6.824219-6.824219 3.769531 0 6.828124 3.054687 6.828124 6.824219v109.226562c0 3.769532-3.058593 6.828125-6.828124 6.828125" fill="#54596e"/><path d="m69.144531 132.652344c-4.832031 15.5-7.492187 32.074218-7.492187 49.332031v93.75c42.183594 6.972656 91.117187 10.984375 143.359375 10.984375 52.246093 0 101.179687-4.011719 143.363281-10.984375v-93.75c0-17.257813-2.660156-33.832031-7.496094-49.332031-40.4375-6.234375-86.703125-9.773438-135.867187-9.773438-49.164063 0-95.429688 3.539063-135.867188 9.773438" fill="#8065c4"/><path d="m205.011719 293.546875c-50.671875 0-100.632813-3.828125-144.472657-11.078125-3.296874-.546875-5.714843-3.394531-5.714843-6.734375v-93.75c0-17.480469 2.628906-34.761719 7.804687-51.367187.777344-2.488282 2.898438-4.316407 5.476563-4.714844 83.644531-12.886719 190.15625-12.886719 273.8125 0 2.578125.398437 4.699219 2.226562 5.476562 4.714844 5.175781 16.605468 7.804688 33.886718 7.804688 51.367187v93.75c0 3.339844-2.417969 6.1875-5.714844 6.734375-43.835937 7.25-93.796875 11.078125-144.472656 11.078125m-136.53125-23.628906c41.722656 6.53125 88.785156 9.976562 136.53125 9.976562 47.75 0 94.808593-3.445312 136.535156-9.976562v-87.933594c0-14.679687-2.007813-29.195313-5.972656-43.230469-80.191407-11.851562-180.945313-11.84375-261.121094 0-3.964844 14.035156-5.972656 28.550782-5.972656 43.230469z" fill="#54596e"/><path d="m205.011719 286.71875c18.691406 0 36.929687-.53125 54.613281-1.511719v-39.445312h23.234375c13.558594 0 24.554687-10.996094 24.554687-24.554688l-6.828124-93.617187c-29.910157-3.027344-62.035157-4.707032-95.574219-4.707032-33.535157 0-65.664063 1.679688-95.570313 4.707032l-6.828125 93.617187c0 13.558594 10.992188 24.554688 24.554688 24.554688h23.230469v39.445312c17.683593.980469 35.925781 1.511719 54.613281 1.511719" fill="#999"/><path d="m205.011719 293.546875c-18.242188 0-36.746094-.515625-54.988281-1.523437-3.621094-.199219-6.449219-3.195313-6.449219-6.816407v-32.621093h-16.40625c-17.304688 0-31.382813-14.074219-31.382813-31.378907l6.84375-94.117187c.242188-3.308594 2.824219-5.960938 6.125-6.296875 62.175782-6.28125 130.339844-6.28125 192.519532 0 3.300781.335937 5.878906 2.992187 6.125 6.296875l6.828124 93.621094c.011719 17.800781-14.0625 31.875-31.367187 31.875h-16.40625v32.621093c0 3.625-2.828125 6.617188-6.449219 6.816407-18.246094 1.007812-36.746094 1.523437-54.992187 1.523437m-47.785157-14.820313c31.792969 1.546876 63.78125 1.546876 95.574219 0v-32.964843c0-3.773438 3.054688-6.828125 6.824219-6.828125h23.234375c9.773437 0 17.726563-7.953125 17.726563-17.726563l-6.390626-87.386719c-57.769531-5.457031-120.597656-5.457031-178.367187 0l-6.40625 87.882813c.019531 9.277344 7.972656 17.230469 17.746094 17.230469h23.230469c3.773437 0 6.828124 3.054687 6.828124 6.828125z" fill="#54596e"/><path d="m205.011719 129.726562c-30.148438 0-60.296875 1.363282-89.183594 4.09375l-1.5 20.59375c28.507813-2.722656 58.96875-4.226562 90.683594-4.226562 31.71875 0 62.175781 1.503906 90.691406 4.226562l-1.507813-20.59375c-28.886718-2.726562-59.035156-4.09375-89.183593-4.09375" fill="#8b8c90"/><g fill="#54596e"><path d="m205.011719 122.878906c-33.535157 0-65.664063 1.679688-95.570313 4.707032l-6.828125 93.621093c0 2.777344.5625 5.40625 1.414063 7.898438l5.414062-74.210938c1.621094-.164062 3.25-.324219 4.886719-.480469l1.503906-20.59375c28.882813-2.726562 59.03125-4.089843 89.179688-4.089843 30.152343 0 60.300781 1.363281 89.1875 4.089843l1.503906 20.59375c1.632813.15625 3.265625.316407 4.886719.480469l5.410156 74.214844c.851562-2.496094 1.414062-5.121094 1.414062-7.902344l-6.824218-93.617187c-29.914063-3.03125-62.039063-4.710938-95.578125-4.710938"/><path d="m191.359375 259.414062c-3.769531 0-6.824219-3.058593-6.824219-6.828124v-13.652344c0-3.769532 3.054688-6.828125 6.824219-6.828125s6.828125 3.058593 6.828125 6.828125v13.652344c0 3.769531-3.058594 6.828124-6.828125 6.828124zm0 0"/><path d="m218.667969 259.414062c-3.769531 0-6.828125-3.058593-6.828125-6.828124v-13.652344c0-3.769532 3.058594-6.828125 6.828125-6.828125s6.824219 3.058593 6.824219 6.828125v13.652344c0 3.769531-3.054688 6.828124-6.824219 6.828124zm0 0"/><path d="m184.535156 194.558594c0-13.195313-10.699218-23.890625-23.894531-23.890625s-30.71875 17.523437-30.71875 30.71875c0 13.195312 17.523437 17.066406 30.71875 17.066406s23.894531-10.695313 23.894531-23.894531zm0 0"/><path d="m280.105469 201.386719c0-13.195313-17.523438-30.71875-30.71875-30.71875-13.195313 0-23.894531 10.695312-23.894531 23.890625 0 13.199218 10.699218 23.894531 23.894531 23.894531 13.195312 0 30.71875-3.871094 30.71875-17.066406zm0 0"/></g></svg>