<svg height="430pt" viewBox="0 -31 430.08 430" width="430pt" xmlns="http://www.w3.org/2000/svg"><path d="m423.253906 102.441406c0 52.78125-42.789062 95.570313-95.574218 95.570313-52.785157 0-95.574219-42.789063-95.574219-95.570313 0-52.785156 42.789062-95.574218 95.574219-95.574218 52.785156 0 95.574218 42.789062 95.574218 95.574218zm0 0" fill="#ffd578"/><g fill="#54596e"><path d="m327.679688 204.839844c-56.464844 0-102.398438-45.9375-102.398438-102.398438 0-56.464844 45.933594-102.4023435 102.398438-102.4023435 56.464843 0 102.398437 45.9374995 102.398437 102.4023435 0 56.460938-45.933594 102.398438-102.398437 102.398438zm0-191.148438c-48.9375 0-88.746094 39.8125-88.746094 88.75s39.808594 88.746094 88.746094 88.746094 88.746093-39.808594 88.746093-88.746094-39.808593-88.75-88.746093-88.75zm0 0"/><path d="m375.464844 136.574219c0 7.539062-6.109375 13.652343-13.652344 13.652343-7.539062 0-13.652344-6.113281-13.652344-13.652343 0-7.542969 6.113282-13.652344 13.652344-13.652344 7.542969 0 13.652344 6.109375 13.652344 13.652344zm0 0"/><path d="m334.507812 54.652344c0 7.542968-6.113281 13.65625-13.65625 13.65625-7.539062 0-13.652343-6.113282-13.652343-13.65625 0-7.539063 6.113281-13.652344 13.652343-13.652344 7.542969 0 13.65625 6.113281 13.65625 13.652344zm0 0"/><path d="m307.199219 126.332031c0 9.425781-7.640625 17.066407-17.066407 17.066407-9.425781 0-17.066406-7.640626-17.066406-17.066407s7.640625-17.066406 17.066406-17.066406c9.425782 0 17.066407 7.640625 17.066407 17.066406zm0 0"/></g><path d="m327.574219 206.835938c.097656-1.828126.273437-3.636719.273437-5.496094 0-54.621094-44.28125-98.898438-98.898437-98.898438-46.484375 0-85.375 32.113282-95.960938 75.335938-8.320312-10.339844-21.0625-16.972656-35.371093-16.972656-25.070313 0-45.398438 20.328124-45.398438 45.402343 0 2.339844.234375 4.625.574219 6.863281-27.078125 12.179688-45.964844 39.339844-45.964844 70.960938 0 42.976562 34.84375 77.820312 77.824219 77.820312h233.46875c42.980468 0 77.824218-34.839843 77.824218-77.820312 0-39.777344-29.859374-72.523438-68.371093-77.195312" fill="#fff"/><path d="m318.121094 368.679688h-233.472656c-46.675782 0-84.648438-37.972657-84.648438-84.648438 0-31.554688 17.695312-60.46875 45.488281-75-.0625-.96875-.09375-1.910156-.09375-2.824219 0-28.796875 23.425781-52.226562 52.222657-52.226562 11.804687 0 23.027343 3.929687 32.113281 11.046875 15.054687-41.394532 54.34375-69.414063 99.21875-69.414063 58.207031 0 105.578125 47.277344 105.726562 105.445313 39.238281 7.769531 68.097657 42.378906 68.097657 82.972656 0 46.675781-37.972657 84.648438-84.652344 84.648438m-220.5-201.046876c-21.269532 0-38.570313 17.304688-38.570313 38.574219 0 1.75.15625 3.609375.496094 5.839844.460937 3.023437-1.15625 5.992187-3.949219 7.25-25.480468 11.460937-41.945312 36.871094-41.945312 64.734375 0 39.144531 31.851562 70.996094 70.996094 70.996094h233.472656c39.148437 0 71-31.851563 71-70.996094 0-35.835938-26.816406-66.105469-62.371094-70.417969-3.566406-.433593-6.191406-3.5625-5.992188-7.152343l.109376-1.742188c.078124-1.121094.15625-2.242188.15625-3.378906 0-50.773438-41.300782-92.074219-92.074219-92.074219-42.480469 0-79.214844 28.839844-89.328125 70.136719-.617188 2.523437-2.613282 4.476562-5.152344 5.039062-2.519531.558594-5.167969-.359375-6.796875-2.382812-7.378906-9.167969-18.332031-14.425782-30.050781-14.425782" fill="#54596e"/><path d="m252.585938 225.320312c0 7.539063-6.113282 13.652344-13.652344 13.652344-7.539063 0-13.652344-6.113281-13.652344-13.652344 0-7.539062 6.113281-13.652343 13.652344-13.652343 7.539062 0 13.652344 6.113281 13.652344 13.652343zm0 0" fill="#54596e"/><path d="m109.226562 225.320312c0 7.539063-6.113281 13.652344-13.652343 13.652344-7.542969 0-13.652344-6.113281-13.652344-13.652344 0-7.539062 6.109375-13.652343 13.652344-13.652343 7.539062 0 13.652343 6.113281 13.652343 13.652343zm0 0" fill="#54596e"/><path d="m211.625 274.3125c-.105469-10.707031-95.464844-10.707031-95.570312 0v.226562c0 18.0625 21.390624 32.699219 47.785156 32.699219 26.394531 0 47.785156-14.636719 47.785156-32.699219zm0 0" fill="#54596e"/><path d="m184.320312 286.761719c0-3.773438-9.167968-6.828125-20.480468-6.828125s-20.480469 3.054687-20.480469 6.828125c0 3.769531 9.167969 6.824219 20.480469 6.824219s20.480468-3.054688 20.480468-6.824219zm0 0" fill="#ff927d"/><path d="m388.820312 277.484375c-12.273437 26.8125-39.277343 45.457031-70.695312 45.457031h-233.476562c-31.414063 0-58.417969-18.640625-70.691407-45.457031-.203125 2.164063-.304687 4.347656-.304687 6.546875 0 39.144531 31.851562 70.996094 70.996094 70.996094h233.472656c39.148437 0 71-31.851563 71-70.996094 0-2.207031-.101563-4.390625-.300782-6.546875" fill="#dddee2"/><path d="m9.359375 264.492188c-1.625 6.246093-2.53125 12.78125-2.53125 19.539062 0 42.976562 34.84375 77.820312 77.824219 77.820312h233.46875c42.980468 0 77.824218-34.839843 77.824218-77.820312 0-6.75-.921874-13.269531-2.535156-19.507812-1.152344 4.488281-2.699218 8.820312-4.589844 12.957031.199219 2.15625.300782 4.34375.300782 6.550781 0 39.144531-31.851563 70.996094-71 70.996094h-233.472656c-39.144532 0-70.996094-31.851563-70.996094-70.996094 0-2.199219.101562-4.382812.304687-6.546875-1.898437-4.148437-3.445312-8.492187-4.597656-12.992187" fill="#54596e"/></svg>