<svg height="423pt" viewBox="0 -14 423.25333 423" width="423pt" xmlns="http://www.w3.org/2000/svg"><path d="m344.453125 116.84375c.109375-1.925781.292969-3.832031.292969-5.785156 0-57.496094-46.609375-104.105469-104.105469-104.105469-48.933594 0-89.867187 33.808594-101.011719 79.308594-8.757812-10.886719-22.167968-17.867188-37.230468-17.867188-26.390626 0-47.785157 21.390625-47.785157 47.785157 0 2.464843.242188 4.867187.601563 7.226562-28.503906 12.820312-48.386719 41.410156-48.386719 74.695312 0 45.242188 36.675781 81.917969 81.917969 81.917969h245.761718c45.242188 0 81.917969-36.675781 81.917969-81.917969 0-41.871093-31.429687-76.34375-71.972656-81.257812" fill="#d8d8d8"/><path d="m334.507812 286.847656h-245.761718c-48.9375 0-88.746094-39.8125-88.746094-88.746094 0-33.160156 18.644531-63.535156 47.898438-78.730468-.074219-1.097656-.113282-2.160156-.113282-3.191406 0-30.113282 24.5-54.613282 54.613282-54.613282 12.515624 0 24.40625 4.226563 33.972656 11.859375 15.664062-43.6875 57.015625-73.300781 104.269531-73.300781 61.167969 0 110.933594 49.765625 110.933594 110.933594 41.285156 8.03125 71.679687 44.386718 71.679687 87.042968 0 48.933594-39.808594 88.746094-88.746094 88.746094m-232.109374-211.628906c-22.585938 0-40.957032 18.375-40.957032 40.960938 0 1.882812.164063 3.847656.523438 6.195312.460937 3.03125-1.152344 6-3.949219 7.257812-26.949219 12.121094-44.363281 38.996094-44.363281 68.46875 0 41.40625 33.6875 75.089844 75.09375 75.089844h245.761718c41.40625 0 75.09375-33.683594 75.09375-75.089844 0-37.902343-28.359374-69.921874-65.972656-74.480468-3.570312-.433594-6.191406-3.566406-5.992187-7.15625l.117187-1.816406c.078125-1.1875.167969-2.378907.167969-3.589844 0-53.640625-43.640625-97.277344-97.28125-97.277344-44.882813 0-83.695313 30.472656-94.382813 74.101562-.613281 2.523438-2.609374 4.476563-5.148437 5.039063-2.511719.570313-5.167969-.363281-6.800781-2.382813-7.832032-9.738281-19.460938-15.320312-31.910156-15.320312" fill="#54596e"/><path d="m409.222656 190.546875c-12.777344 28.578125-41.386718 48.511719-74.714844 48.511719h-245.761718c-33.328125 0-61.9375-19.925782-74.710938-48.503906-.253906 2.488281-.382812 5.007812-.382812 7.546874 0 41.40625 33.6875 75.089844 75.09375 75.089844h245.761718c41.40625 0 75.09375-33.683594 75.09375-75.089844 0-2.546874-.128906-5.066406-.378906-7.554687" fill="#bebfc3"/><path d="m9.492188 177.535156c-1.710938 6.574219-2.664063 13.453125-2.664063 20.566406 0 45.242188 36.675781 81.917969 81.917969 81.917969h245.761718c45.242188 0 81.917969-36.675781 81.917969-81.917969 0-7.105468-.96875-13.96875-2.667969-20.535156-1.152343 4.488282-2.679687 8.824219-4.535156 12.980469.25 2.488281.378906 5.007813.378906 7.554687 0 41.40625-33.6875 75.089844-75.09375 75.089844h-245.761718c-41.40625 0-75.09375-33.683594-75.09375-75.089844 0-2.539062.128906-5.058593.382812-7.546874-1.863281-4.164063-3.390625-8.519532-4.542968-13.019532" fill="#54596e"/><path d="m267.800781 146.339844c-10.398437 0-20.058593-6.042969-24.609375-15.398438-1.648437-3.390625-.238281-7.476562 3.152344-9.128906 3.386719-1.636719 7.472656-.238281 9.128906 3.15625 2.3125 4.761719 7.039063 7.71875 12.328125 7.71875 5.523438 0 10.480469-3.289062 12.632813-8.375 1.46875-3.476562 5.472656-5.089844 8.945312-3.628906 3.472656 1.464844 5.097656 5.472656 3.628906 8.945312-4.292968 10.152344-14.1875 16.710938-25.207031 16.710938zm0 0" fill="#54596e"/><path d="m158.574219 146.339844c-10.398438 0-20.058594-6.042969-24.609375-15.398438-1.648438-3.390625-.238282-7.476562 3.152344-9.128906 3.382812-1.636719 7.476562-.238281 9.128906 3.15625 2.3125 4.761719 7.039062 7.71875 12.328125 7.71875 5.523437 0 10.480469-3.289062 12.632812-8.375 1.46875-3.476562 5.472657-5.089844 8.945313-3.628906 3.472656 1.464844 5.097656 5.472656 3.628906 8.945312-4.292969 10.152344-14.1875 16.710938-25.207031 16.710938zm0 0" fill="#54596e"/><g fill="#55a6ff"><path d="m323.78125 339.996094c0 12.121094-9.828125 21.945312-21.945312 21.945312-12.117188 0-21.941407-9.824218-21.941407-21.945312 0-12.117188 17.554688-39.496094 21.941407-39.496094 4.386718 0 21.945312 27.378906 21.945312 39.496094zm0 0"/><path d="m255.511719 285.382812c0 12.121094-9.824219 21.945313-21.941407 21.945313-12.121093 0-21.941406-9.824219-21.941406-21.945313 0-12.117187 17.550782-39.496093 21.941406-39.496093 4.386719 0 21.941407 27.378906 21.941407 39.496093zm0 0"/><path d="m125.808594 374.128906c0 12.121094-9.828125 21.945313-21.945313 21.945313-12.121093 0-21.941406-9.824219-21.941406-21.945313 0-12.117187 17.550781-39.496094 21.941406-39.496094 4.386719 0 21.945313 27.378907 21.945313 39.496094zm0 0"/><path d="m180.421875 305.863281c0 12.121094-9.828125 21.945313-21.945313 21.945313-12.121093 0-21.941406-9.824219-21.941406-21.945313 0-12.117187 17.554688-39.496093 21.941406-39.496093 4.386719 0 21.945313 27.378906 21.945313 39.496093zm0 0"/><path d="m180.421875 203.464844c0 12.121094-9.828125 21.941406-21.945313 21.941406-12.121093 0-21.941406-9.824219-21.941406-21.941406 0-12.117188 17.554688-39.5 21.941406-39.5 4.386719 0 21.945313 27.382812 21.945313 39.5zm0 0"/></g></svg>