<svg height="436pt" viewBox="-17 0 436 436.90667" width="436pt" xmlns="http://www.w3.org/2000/svg"><path d="m274.332031 286.957031-48.597656-.238281v-102.398438l-87.71875 133.777344c-2.675781 3.984375.183594 9.582032 4.984375 9.582032h48.601562v102.398437l87.714844-133.773437c2.675782-3.988282-.179687-9.347657-4.984375-9.347657" fill="#ffd578"/><path d="m191.601562 436.90625c-.652343 0-1.308593-.09375-1.957031-.285156-2.890625-.863282-4.871093-3.527344-4.871093-6.542969v-95.570313h-41.773438c-4.710938 0-9.035156-2.621093-11.285156-6.839843-2.273438-4.273438-2.035156-9.402344.636718-13.378907l87.671876-133.714843c1.65625-2.527344 4.773437-3.664063 7.664062-2.796875 2.894531.867187 4.871094 3.523437 4.871094 6.542968v95.605469l41.796875.203125c4.738281.011719 9.066406 2.609375 11.296875 6.792969 2.234375 4.191406 1.976562 9.246094-.671875 13.1875l-87.671875 133.714844c-1.285156 1.960937-3.453125 3.082031-5.707032 3.082031m-47.226562-116.054688h47.226562c3.769532 0 6.824219 3.058594 6.824219 6.828126v79.542968l74.382813-113.445312-47.109375-.230469c-3.757813-.019531-6.792969-3.070313-6.792969-6.828125v-79.539062zm129.957031-27.070312h.066407zm-.726562-1.222656v.003906z" fill="#54596e"/><path d="m328.027344 111.222656c.097656-1.828125.273437-3.640625.273437-5.496094.003907-54.621093-44.277343-98.898437-98.898437-98.898437-46.484375 0-85.378906 32.113281-95.960938 75.335937-8.320312-10.335937-21.0625-16.972656-35.371094-16.972656-25.066406 0-45.394531 20.328125-45.394531 45.402344 0 2.339844.234375 4.621094.574219 6.863281-27.078125 12.179688-45.96875 39.339844-45.96875 70.957031 0 42.984376 34.84375 77.824219 77.824219 77.824219h233.46875c42.980469 0 77.824219-34.839843 77.824219-77.824219 0-39.773437-29.859376-72.519531-68.371094-77.191406" fill="#8065c4"/><path d="m318.574219 273.066406h-233.46875c-46.679688 0-84.652344-37.972656-84.652344-84.652344 0-31.550781 17.695313-60.464843 45.488281-74.992187-.0625-.972656-.09375-1.910156-.09375-2.828125 0-28.796875 23.425782-52.226562 52.222656-52.226562 11.804688 0 23.027344 3.933593 32.117188 11.046874 15.050781-41.394531 54.339844-69.414062 99.214844-69.414062 58.207031 0 105.578125 47.277344 105.726562 105.445312 39.238282 7.769532 68.097656 42.378907 68.097656 82.96875 0 46.679688-37.972656 84.652344-84.652343 84.652344m-220.5-201.046875c-21.269531 0-38.570313 17.304688-38.570313 38.574219 0 1.75.15625 3.609375.496094 5.839844.460938 3.023437-1.15625 5.992187-3.949219 7.25-25.480469 11.457031-41.945312 36.871094-41.945312 64.730468 0 39.148438 31.851562 71 71 71h233.46875c39.148437 0 71-31.851562 71-70.996093 0-35.832031-26.8125-66.105469-62.371094-70.417969-3.566406-.433594-6.191406-3.558594-5.992187-7.148438l.109374-1.746093c.078126-1.117188.15625-2.238281.15625-3.378907 0-50.769531-41.300781-92.074218-92.074218-92.074218-42.480469 0-79.214844 28.839844-89.328125 70.136718-.617188 2.523438-2.613281 4.476563-5.152344 5.042969-2.515625.566407-5.167969-.359375-6.800781-2.386719-7.375-9.167968-18.328125-14.425781-30.046875-14.425781" fill="#54596e"/><path d="m389.273438 181.867188c-12.269532 26.8125-39.277344 45.460937-70.699219 45.460937h-233.46875c-31.417969 0-58.421875-18.640625-70.695313-45.457031-.199218 2.164062-.304687 4.347656-.304687 6.542968 0 39.148438 31.851562 71 71 71h233.46875c39.148437 0 71-31.851562 71-70.996093 0-2.207031-.101563-4.390625-.300781-6.550781" fill="#7763b3"/><g fill="#54596e"><path d="m9.808594 168.878906c-1.617188 6.246094-2.527344 12.78125-2.527344 19.535156 0 42.984376 34.84375 77.824219 77.824219 77.824219h233.46875c42.980469 0 77.824219-34.839843 77.824219-77.824219 0-6.746093-.921876-13.265624-2.535157-19.503906-1.152343 4.484375-2.695312 8.820313-4.589843 12.957032.199218 2.160156.300781 4.339843.300781 6.546874 0 39.148438-31.851563 71-71 71h-233.46875c-39.148438 0-71-31.851562-71-71 0-2.195312.105469-4.378906.304687-6.542968-1.898437-4.144532-3.445312-8.492188-4.601562-12.992188"/><path d="m259.867188 129.707031c0 7.539063-6.113282 13.652344-13.652344 13.652344-7.542969 0-13.65625-6.113281-13.65625-13.652344 0-7.539062 6.113281-13.652343 13.65625-13.652343 7.539062 0 13.652344 6.113281 13.652344 13.652343zm0 0"/><path d="m116.507812 129.707031c0 7.539063-6.113281 13.652344-13.65625 13.652344-7.539062 0-13.652343-6.113281-13.652343-13.652344 0-7.539062 6.113281-13.652343 13.652343-13.652343 7.542969 0 13.65625 6.113281 13.65625 13.652343zm0 0"/><path d="m177.945312 238.933594h-13.652343c-15.078125 0-27.304688-12.226563-27.304688-27.308594v-27.304688c0-15.082031 12.226563-27.308593 27.304688-27.308593h13.652343c15.082032 0 27.308594 12.226562 27.308594 27.308593v27.304688c0 15.082031-12.226562 27.308594-27.308594 27.308594zm0 0"/></g><path d="m191.601562 218.453125c0-3.769531-9.171874-6.828125-20.480468-6.828125-11.3125 0-20.480469 3.058594-20.480469 6.828125s9.167969 6.828125 20.480469 6.828125c11.308594 0 20.480468-3.058594 20.480468-6.828125zm0 0" fill="#ff927d"/></svg>