<svg height="423pt" viewBox="0 -31 423.25225 423" width="423pt" xmlns="http://www.w3.org/2000/svg"><path d="m337.425781 7.546875c14.078125-15.59375 39.941407-4.878906 38.871094 16.097656-.675781 13.214844 10.222656 24.117188 23.433594 23.4375 20.980469-1.070312 31.695312 24.792969 16.101562 38.871094-9.820312 8.863281-9.820312 24.277344 0 33.144531 15.59375 14.078125 4.878907 39.941406-16.101562 38.871094-13.210938-.675781-24.113281 10.222656-23.433594 23.433594 1.070313 20.980468-24.792969 31.695312-38.871094 16.101562-8.863281-9.820312-24.28125-9.820312-33.144531 0-14.078125 15.59375-39.941406 4.878906-38.871094-16.101562.675782-13.210938-10.222656-24.113282-23.433594-23.433594-20.980468 1.070312-31.695312-24.792969-16.101562-38.871094 9.820312-8.867187 9.820312-24.28125 0-33.144531-15.59375-14.078125-4.878906-39.941406 16.101562-38.871094 13.210938.675781 24.113282-10.222656 23.433594-23.4375-1.070312-20.976562 24.792969-31.691406 38.871094-16.097656 8.867188 9.816406 24.28125 9.816406 33.144531 0zm0 0" fill="#ff927d"/><path d="m384.699219 100.433594c-1.15625-35.25-30.667969-62.894532-65.917969-61.738282-35.25 1.152344-62.894531 30.664063-61.738281 65.914063 1.152343 35.253906 30.664062 62.894531 65.914062 61.742187 35.253907-1.15625 62.894531-30.667968 61.742188-65.917968zm0 0" fill="#fff35f"/><path d="m320.792969 173.214844c-18.003907 0-35.058594-6.734375-48.261719-19.097656-13.78125-12.910157-21.710938-30.410157-22.328125-49.28125-.613281-18.871094 6.152344-36.855469 19.0625-50.632813 12.90625-13.78125 30.40625-21.710937 49.277344-22.328125 18.898437-.609375 36.855469 6.152344 50.632812 19.0625 13.78125 12.90625 21.710938 30.40625 22.328125 49.277344.617188 18.871094-6.152344 36.855468-19.058594 50.632812-12.90625 13.78125-30.410156 21.710938-49.28125 22.328125-.789062.027344-1.582031.039063-2.371093.039063zm.109375-127.722656c-.636719 0-1.273438.007812-1.914063.03125-15.226562.496093-29.34375 6.894531-39.761719 18.011718-10.414062 11.121094-15.878906 25.628906-15.378906 40.855469.496094 15.226563 6.898438 29.347656 18.015625 39.761719 11.125 10.414062 25.6875 15.890625 40.855469 15.378906 15.226562-.496094 29.34375-6.898438 39.761719-18.015625 10.414062-11.117187 15.878906-25.625 15.378906-40.851563-.5-15.226562-6.898437-29.347656-18.015625-39.765624-10.652344-9.976563-24.417969-15.40625-38.941406-15.40625zm0 0" fill="#54596e"/><path d="m327.574219 200.09375c.101562-1.828125.277343-3.640625.277343-5.496094 0-54.621094-44.28125-98.898437-98.902343-98.898437-46.484375 0-85.375 32.113281-95.957031 75.339843-8.320313-10.339843-21.066407-16.972656-35.371094-16.972656-25.074219 0-45.398438 20.328125-45.398438 45.402344 0 2.339844.234375 4.621094.574219 6.863281-27.082031 12.175781-45.96875 39.335938-45.96875 70.957031 0 42.980469 34.84375 77.824219 77.824219 77.824219h233.472656c42.976562 0 77.824219-34.84375 77.824219-77.824219-.003907-39.777343-29.863281-72.523437-68.375-77.195312" fill="#fff"/><g fill="#54596e"><path d="m318.125 361.9375h-233.472656c-46.679688 0-84.652344-37.972656-84.652344-84.648438 0-31.554687 17.695312-60.46875 45.488281-74.996093-.0625-.96875-.09375-1.910157-.09375-2.828125 0-28.796875 23.429688-52.226563 52.226563-52.226563 11.800781 0 23.023437 3.933594 32.109375 11.046875 15.054687-41.394531 54.34375-69.414062 99.21875-69.414062 58.207031 0 105.578125 47.277344 105.726562 105.445312 39.242188 7.769532 68.097657 42.378906 68.097657 82.972656 0 46.675782-37.972657 84.648438-84.648438 84.648438m-220.503906-201.046875c-21.269532 0-38.570313 17.304687-38.570313 38.574219 0 1.753906.15625 3.609375.496094 5.839844.460937 3.027343-1.15625 5.996093-3.949219 7.25-25.480468 11.460937-41.945312 36.871093-41.945312 64.734374 0 39.144532 31.851562 70.996094 71 70.996094h233.472656c39.144531 0 70.996094-31.851562 70.996094-70.996094 0-35.835937-26.816406-66.105468-62.371094-70.417968-3.566406-.433594-6.191406-3.5625-5.992188-7.148438l.109376-1.746094c.074218-1.117187.15625-2.238281.15625-3.378906 0-50.769531-41.304688-92.074218-92.074219-92.074218-42.484375 0-79.214844 28.839843-89.332031 70.140624-.613282 2.519532-2.609376 4.476563-5.148438 5.039063-2.515625.554687-5.167969-.359375-6.796875-2.382813-7.378906-9.171874-18.332031-14.429687-30.050781-14.429687"/><path d="m252.585938 218.578125c0 7.539063-6.113282 13.652344-13.652344 13.652344-7.539063 0-13.652344-6.113281-13.652344-13.652344s6.113281-13.652344 13.652344-13.652344c7.539062 0 13.652344 6.113281 13.652344 13.652344zm0 0"/><path d="m109.226562 218.578125c0 7.539063-6.113281 13.652344-13.652343 13.652344-7.542969 0-13.652344-6.113281-13.652344-13.652344s6.109375-13.652344 13.652344-13.652344c7.539062 0 13.652343 6.113281 13.652343 13.652344zm0 0"/><path d="m211.625 267.570312c-.105469-10.707031-95.464844-10.707031-95.570312 0v.226563c0 18.0625 21.390624 32.703125 47.785156 32.703125 26.394531 0 47.785156-14.640625 47.785156-32.703125zm0 0"/></g><path d="m184.320312 280.019531c0-3.769531-9.167968-6.828125-20.480468-6.828125s-20.480469 3.058594-20.480469 6.828125 9.167969 6.824219 20.480469 6.824219 20.480468-3.054688 20.480468-6.824219zm0 0" fill="#ff927d"/><path d="m388.820312 270.738281c-12.273437 26.816407-39.277343 45.460938-70.695312 45.460938h-233.472656c-31.417969 0-58.421875-18.640625-70.695313-45.453125-.203125 2.160156-.304687 4.34375-.304687 6.542968 0 39.144532 31.851562 70.996094 71 70.996094h233.472656c39.144531 0 70.996094-31.851562 70.996094-70.996094 0-2.203124-.101563-4.390624-.300782-6.550781" fill="#dddee2"/><path d="m9.359375 257.75c-1.625 6.246094-2.53125 12.78125-2.53125 19.539062 0 42.980469 34.84375 77.824219 77.824219 77.824219h233.472656c42.976562 0 77.824219-34.84375 77.824219-77.824219 0-6.75-.925781-13.273437-2.535157-19.507812-1.15625 4.488281-2.699218 8.820312-4.59375 12.957031.199219 2.15625.300782 4.34375.300782 6.550781 0 39.144532-31.847656 70.996094-70.996094 70.996094h-233.472656c-39.148438 0-71-31.851562-71-70.996094 0-2.199218.101562-4.382812.304687-6.542968-1.898437-4.148438-3.445312-8.492188-4.597656-12.996094" fill="#54596e"/></svg>