<svg height="423pt" viewBox="0 -68 423.25333 423" width="423pt" xmlns="http://www.w3.org/2000/svg"><path d="m344.453125 116.84375c.109375-1.925781.292969-3.828125.292969-5.785156 0-57.496094-46.609375-104.105469-104.105469-104.105469-48.933594 0-89.867187 33.804687-101.007813 79.308594-8.765624-10.886719-22.171874-17.867188-37.234374-17.867188-26.390626 0-47.785157 21.390625-47.785157 47.785157 0 2.464843.242188 4.867187.605469 7.226562-28.507812 12.820312-48.390625 41.410156-48.390625 74.695312 0 45.242188 36.675781 81.917969 81.917969 81.917969h245.761718c45.242188 0 81.917969-36.675781 81.917969-81.917969 0-41.871093-31.429687-76.339843-71.972656-81.257812" fill="#55a6ff"/><path d="m334.507812 286.847656h-245.761718c-48.9375 0-88.746094-39.8125-88.746094-88.746094 0-33.160156 18.644531-63.535156 47.894531-78.730468-.070312-1.097656-.109375-2.160156-.109375-3.191406 0-30.113282 24.503906-54.613282 54.613282-54.613282 12.515624 0 24.40625 4.226563 33.972656 11.859375 15.664062-43.6875 57.015625-73.300781 104.269531-73.300781 61.167969 0 110.933594 49.765625 110.933594 110.933594 41.285156 8.03125 71.679687 44.386718 71.679687 87.042968 0 48.933594-39.808594 88.746094-88.746094 88.746094m-232.109374-211.628906c-22.585938 0-40.957032 18.375-40.957032 40.960938 0 1.882812.164063 3.847656.527344 6.195312.460938 3.03125-1.15625 6.003906-3.949219 7.257812-26.953125 12.121094-44.367187 38.992188-44.367187 68.46875 0 41.40625 33.6875 75.089844 75.09375 75.089844h245.761718c41.40625 0 75.09375-33.683594 75.09375-75.089844 0-37.902343-28.359374-69.921874-65.972656-74.480468-3.570312-.433594-6.191406-3.566406-5.992187-7.15625l.117187-1.816406c.078125-1.1875.167969-2.378907.167969-3.585938 0-53.640625-43.640625-97.28125-97.28125-97.28125-44.882813 0-83.695313 30.472656-94.382813 74.105469-.617187 2.523437-2.609374 4.476562-5.148437 5.039062-2.519531.5625-5.171875-.359375-6.800781-2.382812-7.832032-9.738281-19.460938-15.324219-31.910156-15.324219" fill="#54596e"/><path d="m409.222656 190.546875c-12.777344 28.578125-41.386718 48.511719-74.714844 48.511719h-245.761718c-33.328125 0-61.9375-19.925782-74.710938-48.503906-.253906 2.492187-.382812 5.007812-.382812 7.546874 0 41.40625 33.6875 75.089844 75.09375 75.089844h245.761718c41.40625 0 75.09375-33.683594 75.09375-75.089844 0-2.546874-.128906-5.066406-.378906-7.554687" fill="#5597e2"/><g fill="#54596e"><path d="m9.492188 177.535156c-1.710938 6.574219-2.664063 13.453125-2.664063 20.566406 0 45.242188 36.675781 81.917969 81.917969 81.917969h245.761718c45.242188 0 81.917969-36.675781 81.917969-81.917969 0-7.105468-.96875-13.96875-2.671875-20.535156-1.152344 4.488282-2.675781 8.824219-4.53125 12.980469.25 2.488281.378906 5.007813.378906 7.554687 0 41.40625-33.6875 75.089844-75.09375 75.089844h-245.761718c-41.40625 0-75.09375-33.683594-75.09375-75.089844 0-2.539062.128906-5.054687.382812-7.546874-1.863281-4.164063-3.390625-8.519532-4.542968-13.019532"/><path d="m267.800781 146.339844c-10.398437 0-20.058593-6.042969-24.609375-15.398438-1.648437-3.390625-.238281-7.476562 3.152344-9.128906 3.386719-1.636719 7.472656-.238281 9.128906 3.15625 2.3125 4.761719 7.039063 7.71875 12.328125 7.71875 5.523438 0 10.480469-3.289062 12.632813-8.375 1.46875-3.476562 5.472656-5.089844 8.945312-3.628906 3.472656 1.464844 5.097656 5.472656 3.628906 8.945312-4.292968 10.152344-14.1875 16.710938-25.207031 16.710938zm0 0"/><path d="m158.574219 146.339844c-10.398438 0-20.058594-6.042969-24.609375-15.398438-1.648438-3.390625-.238282-7.476562 3.152344-9.128906 3.382812-1.636719 7.476562-.238281 9.128906 3.15625 2.3125 4.761719 7.039062 7.71875 12.328125 7.71875 5.523437 0 10.480469-3.289062 12.632812-8.375 1.46875-3.476562 5.472657-5.089844 8.945313-3.628906 3.472656 1.464844 5.097656 5.472656 3.628906 8.945312-4.292969 10.152344-14.1875 16.710938-25.207031 16.710938zm0 0"/><path d="m255.074219 225.957031c-2.585938 0-5.058594-1.472656-6.207031-3.976562-6.664063-14.507813-21.28125-23.878907-37.242188-23.878907-15.769531 0-29.878906 8.804688-36.8125 22.980469-1.660156 3.386719-5.734375 4.796875-9.132812 3.136719-3.386719-1.660156-4.789063-5.746094-3.132813-9.136719 9.246094-18.894531 28.050781-30.636719 49.078125-30.636719 21.273438 0 40.765625 12.496094 49.648438 31.835938 1.574218 3.425781.074218 7.476562-3.351563 9.050781-.925781.425781-1.894531.625-2.847656.625zm0 0"/></g></svg>