<svg height="423.25333pt" viewBox="0 0 423.25333 423.25333" width="423.25333pt" xmlns="http://www.w3.org/2000/svg"><path d="m361.8125 238.933594c0 98.027344-79.464844 177.492187-177.492188 177.492187-98.027343 0-177.492187-79.464843-177.492187-177.492187s79.464844-177.492188 177.492187-177.492188c98.027344 0 177.492188 79.464844 177.492188 177.492188zm0 0" fill="#a1b7ff"/><path d="m184.320312 423.253906c-101.632812 0-184.320312-82.6875-184.320312-184.320312 0-101.632813 82.6875-184.320313 184.320312-184.320313 101.632813 0 184.320313 82.6875 184.320313 184.320313 0 101.632812-82.6875 184.320312-184.320313 184.320312zm0-354.988281c-94.109374 0-170.667968 76.558594-170.667968 170.667969 0 94.105468 76.558594 170.667968 170.667968 170.667968 94.105469 0 170.667969-76.5625 170.667969-170.667968 0-94.109375-76.5625-170.667969-170.667969-170.667969zm0 0" fill="#54596e"/><path d="m346.574219 166.988281c-6.8125-15.339843-15.71875-29.539062-26.386719-42.21875-13.371094 11.019531-30.820312 24.917969-37.941406 28.480469-12.238282 6.117188-24.480469-6.121094-36.722656-12.242188-12.242188-6.121093-48.964844 18.359376-48.964844 18.359376s-36.722656 6.121093-42.84375 0c-6.117188-6.117188-12.238282 30.605468 0 36.726562 12.246094 6.117188 30.605468 12.238281 30.605468 12.238281l30.605469-30.601562 12.238281 24.480469 24.484376 6.121093-6.125-24.480469 55.085937 6.121094zm0 0" fill="#bfad88"/><path d="m184.320312 215.15625c-.722656 0-1.449218-.113281-2.160156-.351562-.765625-.253907-18.964844-6.34375-31.496094-12.609376-10.648437-5.324218-11.082031-21-10.773437-27.488281.269531-5.710937 1.726563-19.3125 9.402344-22.285156 3.179687-1.214844 6.722656-.410156 9.25 2.117187 2.953125 1.527344 19.484375.875 35.472656-1.675781 10.683594-7 40.503906-24.996093 54.5625-17.964843 3.351563 1.675781 6.601563 3.707031 9.75 5.675781 9.40625 5.875 15.511719 9.253906 20.867187 6.566406 2.957032-1.476563 11.644532-7.03125 36.65625-27.640625 2.886719-2.375 7.15625-1.992188 9.566407.878906 11.140625 13.242188 20.363281 27.992188 27.398437 43.839844 1.480469 3.332031.078125 7.242188-3.183594 8.875l-45.964843 22.984375c-1.175781.589844-2.492188.84375-3.804688.675781l-45.328125-5.03125 3.738282 14.953125c.582031 2.324219-.101563 4.785157-1.796876 6.484375-1.695312 1.699219-4.15625 2.371094-6.484374 1.796875l-24.484376-6.121093c-1.933593-.484376-3.554687-1.785157-4.449218-3.570313l-8-16.011719-23.910156 23.90625c-1.300782 1.300782-3.046876 1.996094-4.828126 1.996094zm-29.671874-47.824219c-1.097657 4.40625-1.832032 11.949219-.328126 17.933594.738282 2.949219 1.78125 4.382813 2.449219 4.71875 8.320313 4.160156 19.785157 8.390625 25.746094 10.496094l27.582031-27.578125c1.554688-1.546875 3.769532-2.230469 5.921875-1.910156 2.164063.351562 4.027344 1.722656 5.011719 3.683593l10.839844 21.675781 10.394531 2.59375-3.363281-13.4375c-.542969-2.171874.015625-4.46875 1.484375-6.152343 1.46875-1.679688 3.6875-2.554688 5.890625-2.289063l53.085937 5.894532 38.21875-19.109376c-5.113281-10.421874-11.273437-20.285156-18.378906-29.445312-16.910156 13.761719-28.304687 22.148438-33.898437 24.945312-12.597657 6.296876-24.582032-1.183593-34.210938-7.199218-3.007812-1.882813-5.847656-3.660156-8.621094-5.042969-4.535156-2.28125-24.625 6.273437-42.125 17.933594-.800781.539062-1.710937.898437-2.664062 1.054687-14.804688 2.472656-32.871094 4.347656-43.035156 1.234375zm0 0" fill="#54596e"/><path d="m423.253906 95.574219c0 52.78125-42.789062 95.574219-95.574218 95.574219-52.785157 0-95.574219-42.792969-95.574219-95.574219 0-52.785157 42.789062-95.574219 95.574219-95.574219 52.785156 0 95.574218 42.789062 95.574218 95.574219zm0 0" fill="#ff927d"/><path d="m391.523438 93.480469c-1.152344-35.25-30.664063-62.894531-65.914063-61.738281-35.253906 1.152343-62.894531 30.664062-61.742187 65.914062 1.152343 35.253906 30.664062 62.894531 65.917968 61.742188 35.25-1.15625 62.890625-30.667969 61.738282-65.917969zm0 0" fill="#fff35f"/><path d="m327.621094 166.261719c-18.003906 0-35.0625-6.730469-48.261719-19.097657-13.78125-12.90625-21.710937-30.410156-22.328125-49.28125-.617188-18.871093 6.152344-36.851562 19.058594-50.632812 12.90625-13.777344 30.410156-21.710938 49.28125-22.324219 18.839844-.636719 36.855468 6.152344 50.632812 19.058594 13.78125 12.90625 21.710938 30.410156 22.328125 49.28125.613281 18.871094-6.152343 36.851563-19.0625 50.632813-12.90625 13.777343-30.40625 21.710937-49.277343 22.324218-.792969.027344-1.585938.039063-2.371094.039063zm.109375-127.722657c-.636719 0-1.273438.011719-1.914063.03125-15.226562.496094-29.347656 6.898438-39.765625 18.015626-10.414062 11.121093-15.875 25.625-15.375 40.851562.496094 15.226562 6.898438 29.347656 18.015625 39.765625 11.117188 10.414063 25.660156 15.910156 40.851563 15.375 15.226562-.496094 29.347656-6.894531 39.765625-18.011719 10.414062-11.121094 15.875-25.628906 15.375-40.855468-.496094-15.226563-6.894532-29.347657-18.011719-39.761719-10.65625-9.980469-24.417969-15.410157-38.941406-15.410157zm0 0" fill="#54596e"/><path d="m310.628906 254.285156c-9.050781 0-18.097656 4.523438-31.664062 4.523438-13.574219 0-45.242188-9.046875-45.242188-9.046875l-9.046875 22.617187s13.570313 13.574219 22.621094 36.191406c9.046875 22.617188 13.570313 45.238282 13.570313 45.238282h18.097656s4.519531-9.046875 9.046875-27.140625c4.523437-18.097657 22.617187-54.289063 22.617187-54.289063zm0 0" fill="#bfad88"/><path d="m278.964844 360.636719h-18.097656c-3.253907 0-6.054688-2.296875-6.695313-5.484375-.042969-.222656-4.523437-22.3125-13.214844-44.046875-8.429687-21.074219-20.984375-33.773438-21.109375-33.898438-1.929687-1.929687-2.523437-4.828125-1.511718-7.363281l9.046874-22.617188c1.304688-3.246093 4.839844-4.988281 8.210938-4.023437 8.558594 2.441406 33.027344 8.78125 43.367188 8.78125 6.714843 0 12.222656-1.242187 17.558593-2.4375 4.773438-1.074219 9.28125-2.085937 14.109375-2.085937 3.769532 0 6.828125 3.054687 6.828125 6.824218v18.09375c0 1.0625-.25 2.109375-.722656 3.054688-.179687.351562-17.8125 35.730468-22.101563 52.890625-4.65625 18.609375-9.367187 28.140625-9.566406 28.539062-1.152344 2.3125-3.515625 3.773438-6.101562 3.773438zm-12.617188-13.652344h8.136719c1.625-4.074219 4.265625-11.421875 6.902344-21.972656 4.179687-16.722657 18.921875-47.140625 22.417969-54.230469v-8.84375c-1.367188.273438-2.792969.59375-4.292969.929688-5.777344 1.300781-12.324219 2.769531-20.546875 2.769531-10.757813 0-31.078125-5.007813-41.164063-7.679688l-5.203125 13.003907c4.792969 5.597656 14.136719 17.835937 21.035156 35.074218 6.585938 16.464844 10.796876 32.726563 12.714844 40.949219zm0 0" fill="#54596e"/><path d="m6.828125 238.933594c0 68.511718 38.84375 127.914062 95.679687 157.5l14.484376-28.972656-12.242188-30.601563-67.320312-36.726563 6.121093-36.71875 30.601563-42.84375s0-24.484374-6.121094-42.84375c-3.777344-11.335937-.5625-48.304687 2.453125-74.953124-38.898437 32.5625-63.65625 81.464843-63.65625 136.160156zm0 0" fill="#bfad88"/><path d="m102.507812 403.257812c-1.085937 0-2.167968-.257812-3.152343-.769531-61.28125-31.902343-99.355469-94.570312-99.355469-163.554687 0-54.695313 24.09375-106.226563 66.101562-141.390625 2.152344-1.792969 5.167969-2.097657 7.617188-.78125 2.457031 1.324219 3.863281 4.007812 3.550781 6.78125-6.128906 54.113281-3.972656 68.398437-2.761719 72.03125 6.398438 19.183593 6.472657 43.957031 6.472657 45 0 1.421875-.445313 2.808593-1.269531 3.964843l-29.6875 41.558594-5.0625 30.371094 63.0625 34.398438c1.390624.757812 2.476562 1.980468 3.070312 3.457031l12.238281 30.601562c.722657 1.8125.636719 3.847657-.234375 5.589844l-14.480468 28.96875c-.820313 1.636719-2.261719 2.878906-4 3.441406-.6875.226563-1.398438.332031-2.109376.332031zm-40.699218-283.117187c-30.792969 31.726563-48.15625 74.121094-48.15625 118.792969 0 61.550781 32.75 117.683594 85.917968 148.117187l9.945313-19.898437-10.1875-25.476563-65.167969-35.546875c-2.550781-1.390625-3.945312-4.246094-3.464844-7.117187l6.121094-36.71875c.171875-1.023438.574219-1.996094 1.175782-2.84375l29.292968-41.007813c-.167968-6.179687-1.050781-24.511718-5.734375-38.550781-2.789062-8.390625-2.703125-28.453125.257813-59.75zm0 0" fill="#54596e"/><path d="m147.597656 128.765625-12.242187-30.601563 39.332031-16.609374c7.632812-.851563 13.769531 6.175781 11.910156 13.625l-8.398437 33.585937-24.484375 6.121094zm0 0" fill="#bfad88"/><g fill="#54596e"><path d="m153.714844 141.714844c-1.785156 0-3.527344-.703125-4.824219-2.003906l-6.121094-6.117188c-.652343-.65625-1.171875-1.433594-1.515625-2.292969l-12.238281-30.601562c-1.378906-3.453125.253906-7.378907 3.683594-8.828125l39.328125-16.609375c.605468-.253907 1.246094-.421875 1.902344-.492188 5.792968-.652343 11.5625 1.589844 15.410156 5.988281 3.84375 4.402344 5.296875 10.414063 3.878906 16.078126l-8.398438 33.585937c-.613281 2.449219-2.523437 4.355469-4.964843 4.96875l-24.484375 6.121094zm-.300782-16.785156 2.394532 2.394531 16.761718-4.1875 7.402344-29.613281c.480469-1.921876-.476562-3.28125-.910156-3.777344-.371094-.425782-1.332031-1.328125-2.847656-1.429688l-32.03125 13.527344zm0 0"/><path d="m109.226562 245.761719c0 7.539062-6.113281 13.652343-13.652343 13.652343-7.542969 0-13.652344-6.113281-13.652344-13.652343 0-7.542969 6.109375-13.65625 13.652344-13.65625 7.539062 0 13.652343 6.113281 13.652343 13.65625zm0 0"/><path d="m204.800781 245.761719c0 7.539062-6.113281 13.652343-13.652343 13.652343-7.542969 0-13.65625-6.113281-13.65625-13.652343 0-7.542969 6.113281-13.65625 13.65625-13.65625 7.539062 0 13.652343 6.113281 13.652343 13.65625zm0 0"/><path d="m143.359375 314.027344c-11.292969 0-20.480469-9.1875-20.480469-20.480469 0-3.769531 3.058594-6.828125 6.828125-6.828125s6.828125 3.058594 6.828125 6.828125c0 3.761719 3.0625 6.828125 6.824219 6.828125 3.765625 0 6.828125-3.066406 6.828125-6.828125 0-3.769531 3.054688-6.828125 6.824219-6.828125 3.773437 0 6.828125 3.058594 6.828125 6.828125 0 11.292969-9.1875 20.480469-20.480469 20.480469zm0 0"/></g></svg>