<svg height="430.08pt" viewBox="0 0 430.08 430.08" width="430.08pt" xmlns="http://www.w3.org/2000/svg"><path d="m361.8125 245.761719c0 98.023437-79.464844 177.492187-177.492188 177.492187-98.027343 0-177.492187-79.46875-177.492187-177.492187 0-98.027344 79.464844-177.496094 177.492187-177.496094 98.027344 0 177.492188 79.46875 177.492188 177.496094zm0 0" fill="#55a6ff"/><path d="m184.320312 430.078125c-101.632812 0-184.320312-82.683594-184.320312-184.316406 0-101.636719 82.6875-184.320313 184.320312-184.320313 101.632813 0 184.320313 82.683594 184.320313 184.320313 0 101.632812-82.6875 184.316406-184.320313 184.316406zm0-354.984375c-94.109374 0-170.667968 76.558594-170.667968 170.667969 0 94.105469 76.558594 170.664062 170.667968 170.664062 94.105469 0 170.667969-76.558593 170.667969-170.664062 0-94.109375-76.5625-170.667969-170.667969-170.667969zm0 0" fill="#54596e"/><path d="m346.574219 173.8125c-6.8125-15.339844-15.71875-29.535156-26.386719-42.214844-13.371094 11.019532-30.820312 24.917969-37.941406 28.476563-12.238282 6.121093-24.480469-6.121094-36.722656-12.238281-12.242188-6.121094-48.964844 18.359374-48.964844 18.359374s-36.722656 6.121094-42.84375 0c-6.117188-6.121093-12.238282 30.605469 0 36.722657 12.246094 6.121093 30.605468 12.242187 30.605468 12.242187l30.605469-30.601562 12.238281 24.480468 24.484376 6.121094-6.125-24.480468 55.085937 6.121093zm0 0" fill="#61c5a8"/><path d="m184.320312 221.984375c-.722656 0-1.449218-.113281-2.160156-.351563-.765625-.257812-18.964844-6.347656-31.496094-12.609374-10.648437-5.324219-11.082031-21-10.773437-27.492188.269531-5.707031 1.726563-19.3125 9.402344-22.28125 3.175781-1.214844 6.722656-.410156 9.25 2.117188 2.953125 1.527343 19.476562.871093 35.472656-1.679688 10.683594-7 40.511719-24.992188 54.5625-17.960938 3.351563 1.675782 6.601563 3.707032 9.75 5.671876 9.402344 5.878906 15.507813 9.253906 20.867187 6.570312 2.957032-1.476562 11.644532-7.03125 36.65625-27.640625 2.882813-2.378906 7.152344-1.992187 9.566407.875 11.140625 13.246094 20.363281 27.996094 27.398437 43.84375 1.480469 3.332031.078125 7.242187-3.183594 8.875l-45.964843 22.984375c-1.175781.589844-2.496094.84375-3.804688.675781l-45.328125-5.035156 3.738282 14.957031c.582031 2.324219-.101563 4.785156-1.796876 6.480469-1.695312 1.703125-4.160156 2.371094-6.484374 1.796875l-24.484376-6.117188c-1.933593-.484374-3.554687-1.789062-4.449218-3.570312l-8-16.011719-23.910156 23.902344c-1.300782 1.300781-3.046876 2-4.828126 2zm-29.671874-47.828125c-1.097657 4.40625-1.832032 11.949219-.328126 17.9375.738282 2.949219 1.78125 4.382812 2.449219 4.71875 8.320313 4.160156 19.785157 8.386719 25.746094 10.496094l27.582031-27.578125c1.554688-1.550781 3.761719-2.234375 5.921875-1.914063 2.164063.355469 4.027344 1.726563 5.011719 3.6875l10.839844 21.671875 10.394531 2.597657-3.363281-13.441407c-.542969-2.167969.015625-4.464843 1.484375-6.148437 1.472656-1.679688 3.691406-2.554688 5.890625-2.292969l53.085937 5.898437 38.21875-19.109374c-5.113281-10.421876-11.273437-20.289063-18.378906-29.449219-16.910156 13.765625-28.304687 22.152343-33.898437 24.949219-12.597657 6.292968-24.582032-1.183594-34.210938-7.203126-3.007812-1.878906-5.847656-3.65625-8.621094-5.039062-4.519531-2.28125-24.625 6.269531-42.125 17.933594-.800781.535156-1.710937.894531-2.664062 1.054687-14.804688 2.46875-32.867188 4.347657-43.035156 1.230469zm0 0" fill="#54596e"/><path d="m423.253906 102.398438c0 52.785156-42.789062 95.574218-95.574218 95.574218-52.785157 0-95.574219-42.789062-95.574219-95.574218 0-52.78125 42.789062-95.570313 95.574219-95.570313 52.785156 0 95.574218 42.789063 95.574218 95.570313zm0 0" fill="#ffd578"/><path d="m327.679688 204.800781c-56.464844 0-102.398438-45.9375-102.398438-102.402343 0-56.460938 45.933594-102.398438 102.398438-102.398438 56.464843 0 102.398437 45.9375 102.398437 102.398438 0 56.464843-45.933594 102.402343-102.398437 102.402343zm0-191.148437c-48.9375 0-88.746094 39.8125-88.746094 88.746094 0 48.9375 39.808594 88.75 88.746094 88.75s88.746093-39.8125 88.746093-88.75c0-48.933594-39.808593-88.746094-88.746093-88.746094zm0 0" fill="#54596e"/><path d="m310.628906 261.113281c-9.050781 0-18.097656 4.523438-31.664062 4.523438-13.574219 0-45.242188-9.046875-45.242188-9.046875l-9.046875 22.617187s13.570313 13.570313 22.621094 36.1875c9.046875 22.621094 13.570313 45.242188 13.570313 45.242188h18.097656s4.519531-9.046875 9.046875-27.144531c4.523437-18.09375 22.617187-54.285157 22.617187-54.285157zm0 0" fill="#61c5a8"/><path d="m278.964844 367.464844h-18.097656c-3.253907 0-6.054688-2.296875-6.695313-5.488282-.042969-.21875-4.523437-22.308593-13.214844-44.042968-8.429687-21.074219-20.984375-33.773438-21.109375-33.898438-1.929687-1.933594-2.523437-4.828125-1.511718-7.363281l9.046874-22.617187c1.300782-3.246094 4.847657-4.992188 8.210938-4.027344 8.558594 2.445312 33.027344 8.785156 43.367188 8.785156 6.714843 0 12.222656-1.242188 17.558593-2.4375 4.773438-1.074219 9.28125-2.089844 14.109375-2.089844 3.769532 0 6.828125 3.058594 6.828125 6.828125v18.09375c0 1.058594-.25 2.105469-.722656 3.054688-.179687.351562-17.8125 35.730469-22.101563 52.886719-4.65625 18.609374-9.367187 28.144531-9.566406 28.542968-1.152344 2.3125-3.515625 3.773438-6.101562 3.773438zm-12.617188-13.652344h8.136719c1.625-4.074219 4.265625-11.425781 6.902344-21.976562 4.179687-16.722657 18.921875-47.136719 22.417969-54.226563v-8.84375c-1.367188.273437-2.792969.59375-4.292969.929687-5.777344 1.300782-12.324219 2.769532-20.546875 2.769532-10.757813 0-31.078125-5.007813-41.164063-7.679688l-5.203125 13.003906c4.792969 5.59375 14.136719 17.835938 21.035156 35.070313 6.585938 16.46875 10.796876 32.730469 12.714844 40.953125zm0 0" fill="#54596e"/><path d="m6.828125 245.761719c0 68.507812 38.84375 127.910156 95.679687 157.496093l14.484376-28.96875-12.242188-30.605468-67.320312-36.722656 6.121093-36.71875 30.601563-42.847657s0-24.480469-6.121094-42.84375c-3.777344-11.332031-.5625-48.300781 2.453125-74.953125-38.898437 32.566406-63.65625 81.464844-63.65625 136.164063zm0 0" fill="#61c5a8"/><path d="m102.507812 410.085938c-1.085937 0-2.167968-.257813-3.152343-.769532-61.28125-31.902344-99.355469-94.574218-99.355469-163.554687 0-54.695313 24.09375-106.226563 66.101562-141.390625 2.148438-1.796875 5.160157-2.101563 7.617188-.78125 2.457031 1.324218 3.863281 4.007812 3.550781 6.78125-6.128906 54.113281-3.972656 68.398437-2.761719 72.027344 6.398438 19.1875 6.472657 43.957031 6.472657 45 0 1.425781-.445313 2.808593-1.269531 3.96875l-29.6875 41.554687-5.0625 30.375 63.0625 34.394531c1.390624.761719 2.476562 1.984375 3.070312 3.457032l12.238281 30.605468c.722657 1.8125.636719 3.847656-.234375 5.589844l-14.480468 28.96875c-.820313 1.636719-2.261719 2.878906-4 3.441406-.6875.222656-1.398438.332032-2.109376.332032zm-40.699218-283.117188c-30.792969 31.722656-48.15625 74.121094-48.15625 118.792969 0 61.550781 32.75 117.679687 85.917968 148.113281l9.945313-19.894531-10.1875-25.476563-65.167969-35.546875c-2.550781-1.394531-3.945312-4.246093-3.464844-7.117187l6.121094-36.71875c.171875-1.027344.574219-2 1.175782-2.84375l29.292968-41.011719c-.167968-6.179687-1.050781-24.507813-5.734375-38.550781-2.789062-8.386719-2.703125-28.449219.257813-59.746094zm0 0" fill="#54596e"/><path d="m147.597656 135.59375-12.242187-30.605469 39.332031-16.609375c7.632812-.847656 13.769531 6.175782 11.910156 13.625l-8.398437 33.589844-24.484375 6.121094zm0 0" fill="#61c5a8"/><g fill="#54596e"><path d="m153.714844 148.539062c-1.785156 0-3.527344-.703124-4.824219-2l-6.121094-6.121093c-.652343-.652344-1.171875-1.433594-1.515625-2.289063l-12.238281-30.605468c-1.378906-3.449219.253906-7.378907 3.683594-8.824219l39.328125-16.609375c.605468-.253906 1.246094-.425782 1.902344-.492188 5.792968-.65625 11.566406 1.589844 15.410156 5.988282 3.84375 4.398437 5.296875 10.410156 3.878906 16.078124l-8.398438 33.585938c-.613281 2.449219-2.523437 4.355469-4.964843 4.964844l-24.484375 6.121094zm-.300782-16.78125 2.394532 2.394532 16.761718-4.191406 7.402344-29.613282c.480469-1.917968-.476562-3.277344-.910156-3.777344-.371094-.425781-1.332031-1.324218-2.847656-1.425781l-32.03125 13.527344zm0 0"/><path d="m143.359375 327.679688c-18.820313 0-34.132813-15.3125-34.132813-34.132813 0-3.769531 3.058594-6.828125 6.828126-6.828125 3.769531 0 6.824218 3.058594 6.824218 6.828125 0 11.292969 9.1875 20.480469 20.480469 20.480469s20.480469-9.1875 20.480469-20.480469c0-3.769531 3.058594-6.828125 6.828125-6.828125s6.824219 3.058594 6.824219 6.828125c0 18.820313-15.3125 34.132813-34.132813 34.132813zm0 0"/><path d="m102.398438 273.066406c-11.292969 0-20.476563-9.1875-20.476563-20.480468 0-3.769532 3.054687-6.824219 6.824219-6.824219 3.769531 0 6.828125 3.054687 6.828125 6.824219 0 3.765624 3.0625 6.828124 6.824219 6.828124 3.765624 0 6.828124-3.0625 6.828124-6.828124 0-3.769532 3.058594-6.824219 6.828126-6.824219 3.769531 0 6.824218 3.054687 6.824218 6.824219 0 11.292968-9.1875 20.480468-20.480468 20.480468zm0 0"/><path d="m184.320312 273.066406c-11.292968 0-20.480468-9.1875-20.480468-20.480468 0-3.769532 3.058594-6.824219 6.828125-6.824219s6.824219 3.054687 6.824219 6.824219c0 3.765624 3.066406 6.828124 6.828124 6.828124 3.761719 0 6.828126-3.0625 6.828126-6.828124 0-3.769532 3.054687-6.824219 6.824218-6.824219 3.769532 0 6.828125 3.054687 6.828125 6.824219 0 11.292968-9.1875 20.480468-20.480469 20.480468zm0 0"/><path d="m375.464844 136.535156c0 7.539063-6.109375 13.652344-13.652344 13.652344-7.539062 0-13.652344-6.113281-13.652344-13.652344 0-7.542968 6.113282-13.65625 13.652344-13.65625 7.542969 0 13.652344 6.113282 13.652344 13.65625zm0 0"/><path d="m334.507812 54.613281c0 7.539063-6.113281 13.652344-13.65625 13.652344-7.539062 0-13.652343-6.113281-13.652343-13.652344 0-7.539062 6.113281-13.652343 13.652343-13.652343 7.542969 0 13.65625 6.113281 13.65625 13.652343zm0 0"/><path d="m307.199219 126.292969c0 9.425781-7.640625 17.066406-17.066407 17.066406-9.425781 0-17.066406-7.640625-17.066406-17.066406s7.640625-17.066407 17.066406-17.066407c9.425782 0 17.066407 7.640626 17.066407 17.066407zm0 0"/></g></svg>