<svg height="409.6pt" viewBox="0 0 409.6 409.6" width="409.6pt" xmlns="http://www.w3.org/2000/svg"><path d="m402.773438 204.800781c0-109.339843-88.636719-197.972656-197.972657-197.972656-109.335937 0-197.972656 88.636719-197.972656 197.972656 0 109.335938 88.632813 197.972657 197.972656 197.972657 109.335938 0 197.972657-88.636719 197.972657-197.972657" fill="#55a6ff"/><path d="m204.800781 409.601562c-112.925781 0-204.800781-91.875-204.800781-204.800781s91.875-204.800781 204.800781-204.800781 204.800781 91.875 204.800781 204.800781-91.875 204.800781-204.800781 204.800781m0-395.949218c-105.402343 0-191.148437 85.746094-191.148437 191.148437 0 105.398438 85.746094 191.144531 191.148437 191.144531 105.398438 0 191.144531-85.746093 191.144531-191.144531 0-105.402343-85.746093-191.148437-191.144531-191.148437" fill="#54596e"/><path d="m385.773438 124.550781c-7.597657-17.109375-17.53125-32.941406-29.421876-47.085937-14.921874 12.292968-34.382812 27.792968-42.324218 31.761718-13.652344 6.828126-27.308594-6.828124-40.960938-13.652343-13.652344-6.828125-54.613281 20.480469-54.613281 20.480469s-40.960937 6.824218-47.785156 0c-6.828125-6.828126-13.65625 34.132812 0 40.957031 13.652343 6.828125 34.132812 13.65625 34.132812 13.65625l34.132813-34.132813 13.652344 27.304688 27.308593 6.828125-6.828125-27.308594 61.441406 6.828125z" fill="#61c5a8"/><path d="m204.800781 177.492188c-.722656 0-1.449219-.113282-2.160156-.347657-.855469-.289062-21.101563-7.0625-35.027344-14.023437-11.460937-5.734375-11.921875-22.835938-11.585937-29.921875.292968-6.214844 1.859375-21.011719 9.988281-24.15625 3.304687-1.277344 6.835937-.453125 9.476563 2.183593 3.328124 1.941407 22.105468 1.25 40.417968-1.675781 11.695313-7.671875 44.851563-27.757812 60.210938-20.082031 3.703125 1.851562 7.3125 4.109375 10.800781 6.289062 10.722656 6.703126 17.699219 10.542969 24.050781 7.363282 3.320313-1.660156 13.066406-7.882813 41.039063-30.925782 2.882812-2.378906 7.15625-1.992187 9.5625.878907 12.386719 14.730469 22.628906 31.117187 30.441406 48.707031 1.480469 3.335938.074219 7.246094-3.1875 8.878906l-51.265625 25.632813c-1.175781.585937-2.5.835937-3.808594.675781l-51.683594-5.738281 4.445313 17.78125c.582031 2.328125-.097656 4.785156-1.796875 6.484375-1.695312 1.695312-4.15625 2.371094-6.484375 1.796875l-27.304687-6.828125c-1.933594-.484375-3.558594-1.785156-4.453126-3.570313l-9.414062-18.835937-27.4375 27.4375c-1.300781 1.296875-3.046875 1.996094-4.824219 1.996094m-33.644531-53.539063c-1.339844 4.808594-2.355469 13.632813-.675781 20.808594.890625 3.78125 2.253906 5.652343 3.238281 6.144531 9.523438 4.765625 22.746094 9.613281 29.273438 11.914062l31.113281-31.113281c1.554687-1.546875 3.765625-2.253906 5.921875-1.914062 2.164062.351562 4.027344 1.722656 5.011718 3.683593l12.25 24.503907 13.21875 3.300781-4.066406-16.265625c-.539062-2.171875.011719-4.46875 1.484375-6.152344 1.46875-1.679687 3.683594-2.546875 5.890625-2.289062l59.4375 6.601562 43.535156-21.765625c-5.910156-12.167968-13.085937-23.664062-21.421874-34.320312-19.167969 15.625-32.039063 25.113281-38.289063 28.242187-13.660156 6.828125-26.269531-1.046875-37.390625-8-3.371094-2.105469-6.554688-4.097656-9.675781-5.652343-5.988281-3-29.96875 8.175781-47.773438 20.050781-.804687.539062-1.714843.898437-2.664062 1.054687-16.851563 2.816406-37.511719 4.957032-48.417969 1.167969" fill="#54596e"/><path d="m338.070312 237.152344c-10.09375 0-20.183593 5.042968-35.324218 5.042968-15.136719 0-50.457032-10.089843-50.457032-10.089843l-10.09375 25.230469s15.140626 15.136718 25.230469 40.367187c10.09375 25.226563 15.136719 50.457031 15.136719 50.457031h20.183594s5.046875-10.089844 10.09375-30.273437c5.046875-20.183594 25.230468-60.550781 25.230468-60.550781z" fill="#61c5a8"/><path d="m302.746094 354.988281h-20.183594c-3.25 0-6.050781-2.296875-6.691406-5.488281-.050782-.246094-5.054688-24.949219-14.78125-49.261719-9.394532-23.496093-23.585938-37.9375-23.726563-38.082031-1.917969-1.933594-2.515625-4.828125-1.5-7.355469l10.089844-25.230469c1.300781-3.246093 4.839844-4.988281 8.210937-4.027343 9.574219 2.734375 36.960938 9.828125 48.582032 9.828125 7.578125 0 13.773437-1.390625 19.761718-2.738282 5.28125-1.183593 10.269532-2.304687 15.5625-2.304687 3.769532 0 6.828126 3.054687 6.828126 6.824219v20.183594c0 1.058593-.246094 2.105468-.722657 3.054687-.199219.398437-19.90625 39.929687-24.710937 59.152344-5.171875 20.671875-10.390625 31.230469-10.609375 31.667969-1.160157 2.316406-3.523438 3.777343-6.109375 3.777343m-14.691406-13.65625h10.222656c1.8125-4.460937 4.878906-12.863281 7.9375-25.101562 4.679687-18.710938 21.292968-52.925781 25.027344-60.492188v-11.007812c-1.8125.34375-3.722657.769531-5.742188 1.222656-6.40625 1.441406-13.660156 3.070313-22.753906 3.070313-12.152344 0-35.421875-5.796876-46.382813-8.71875l-6.242187 15.59375c5.203125 6.019531 15.835937 19.75 23.644531 39.269531 7.496094 18.734375 12.222656 37.238281 14.289063 46.164062" fill="#54596e"/><path d="m6.828125 204.800781c0 76.414063 43.324219 142.671875 106.722656 175.671875l16.15625-32.3125-13.652343-34.132812-75.09375-40.960938 6.824218-40.960937 34.136719-47.785157s0-27.308593-6.828125-47.785156c-4.214844-12.640625-.625-53.875 2.738281-83.601562-43.386719 36.316406-71.003906 90.855468-71.003906 151.867187" fill="#61c5a8"/><path d="m113.550781 387.300781c-1.089843 0-2.171875-.257812-3.152343-.769531-68.09375-35.449219-110.398438-105.082031-110.398438-181.730469 0-60.773437 26.773438-118.03125 73.453125-157.101562 2.140625-1.796875 5.164063-2.097657 7.613281-.78125 2.457032 1.324219 3.863282 4.007812 3.550782 6.78125-6.855469 60.507812-4.414063 76.574219-3.046876 80.675781 7.097657 21.285156 7.175782 48.785156 7.175782 49.945312 0 1.421876-.441406 2.808594-1.269532 3.964844l-33.214843 46.5-5.769531 34.613282 70.832031 38.632812c1.390625.761719 2.480469 1.984375 3.066406 3.457031l13.65625 34.132813c.722656 1.8125.636719 3.847656-.234375 5.589844l-16.15625 32.316406c-.820312 1.636718-2.261719 2.875-4.003906 3.4375-.683594.226562-1.394532.335937-2.101563.335937m-44.398437-317.136719c-35.46875 35.699219-55.5 83.855469-55.5 134.636719 0 69.21875 36.972656 132.316407 96.953125 166.300781l11.625-23.253906-11.601563-29.003906-72.9375-39.785156c-2.550781-1.390625-3.945312-4.246094-3.460937-7.113282l6.824219-40.960937c.171874-1.023437.574218-1.996094 1.175781-2.84375l32.828125-45.957031c-.171875-6.660156-1.117188-27.527344-6.441406-43.488282-3.152344-9.460937-2.96875-32.476562.535156-68.53125" fill="#54596e"/><path d="m163.839844 81.921875-13.652344-34.136719 43.867188-18.523437c8.515624-.949219 15.363281 6.886719 13.285156 15.199219l-9.367188 37.460937-27.304687 6.824219zm0 0" fill="#61c5a8"/><g fill="#54596e"><path d="m170.667969 95.574219c-1.789063 0-3.53125-.703125-4.828125-2l-6.828125-6.828125c-.652344-.652344-1.167969-1.433594-1.511719-2.289063l-13.652344-34.132812c-1.382812-3.453125.253906-7.382813 3.683594-8.828125l43.863281-18.527344c.605469-.253906 1.246094-.421875 1.902344-.492188 6.191406-.710937 12.390625 1.707032 16.511719 6.417969 4.117187 4.714844 5.671875 11.148438 4.15625 17.21875l-9.367188 37.464844c-.613281 2.445313-2.523437 4.351563-4.96875 4.964844l-27.304687 6.828125zm-1.011719-17.492188 3.101562 3.105469 19.585938-4.898438 8.371094-33.484374c.441406-1.761719.007812-3.558594-1.183594-4.925782-1.019531-1.164062-2.414062-1.820312-3.921875-1.867187l-36.597656 15.457031zm0 0"/><path d="m122.878906 204.800781c0 7.539063-6.113281 13.652344-13.652344 13.652344-7.539062 0-13.652343-6.113281-13.652343-13.652344 0-7.542969 6.113281-13.652343 13.652343-13.652343 7.539063 0 13.652344 6.109374 13.652344 13.652343zm0 0"/><path d="m245.761719 204.800781c0 7.539063-6.113281 13.652344-13.65625 13.652344-7.539063 0-13.652344-6.113281-13.652344-13.652344 0-7.542969 6.113281-13.652343 13.652344-13.652343 7.542969 0 13.65625 6.109374 13.65625 13.652343zm0 0"/><path d="m170.667969 293.546875c-15.058594 0-27.308594-12.761719-27.308594-28.445313 0-3.769531 3.058594-6.824218 6.828125-6.824218s6.824219 3.054687 6.824219 6.824218c0 8.15625 6.125 14.792969 13.65625 14.792969 7.527343 0 13.652343-6.636719 13.652343-14.792969 0-3.769531 3.054688-6.824218 6.828126-6.824218 3.769531 0 6.824218 3.054687 6.824218 6.824218 0 15.683594-12.25 28.445313-27.304687 28.445313zm0 0"/></g><path d="m382.324219 133.910156-21.429688 10.714844c.609375 6.324219.921875 12.730469.921875 19.214844 0 28.546875-6.042968 55.679687-16.917968 80.195312v13.300782c0 1.058593-.246094 2.101562-.71875 3.050781-.199219.398437-19.90625 39.929687-24.714844 59.152343-5.167969 20.675782-10.390625 31.230469-10.609375 31.671876-1.15625 2.3125-3.519531 3.773437-6.105469 3.773437h-20.183594c-3.253906 0-6.054687-2.296875-6.695312-5.488281-.027344-.140625-1.625-8.03125-4.753906-19.242188-30.910157 19.96875-67.742188 31.558594-107.277344 31.558594-10.90625 0-21.609375-.882812-32.035156-2.578125l-9.089844 18.175781c24.882812 11.878906 52.726562 18.535156 82.085937 18.535156 105.398438 0 191.144531-85.746093 191.144531-191.144531 0-25.03125-4.835937-48.957031-13.621093-70.890625m-46.492188-68.15625c2.566407 4.488282 4.960938 9.085938 7.175781 13.785156 1.140626-.917968 2.3125-1.867187 3.527344-2.859374-3.417968-3.78125-6.992187-7.429688-10.703125-10.925782" fill="#559be9"/><path d="m388.488281 130.828125-6.167969 3.082031c8.789063 21.933594 13.625 45.859375 13.625 70.890625 0 105.398438-85.746093 191.144531-191.144531 191.144531-29.359375 0-57.203125-6.65625-82.085937-18.535156l-3.058594 6.117188c-.007812.011718-.015625.023437-.019531.035156 25.796875 12.316406 54.671875 19.210938 85.164062 19.210938 109.335938 0 197.972657-88.636719 197.972657-197.972657 0-26.152343-5.074219-51.117187-14.285157-73.972656m-65.683593-84.988281c4.726562 6.355468 9.078124 13.003906 13.03125 19.914062 3.707031 3.496094 7.28125 7.144532 10.703124 10.925782 1.699219-1.386719 3.484376-2.847657 5.347657-4.378907-8.789063-9.746093-18.535157-18.617187-29.082031-26.460937" fill="#54596e"/><path d="m355.371094 87.09375c-2.355469 1.917969-4.617188 3.746094-6.78125 5.480469 4.65625 12.054687 8.167968 24.679687 10.394531 37.742187l17.808594-8.902344c-5.910157-12.167968-13.085938-23.667968-21.421875-34.320312" fill="#5fb59f"/><path d="m351.882812 72.300781c-1.859374 1.53125-3.644531 2.992188-5.347656 4.378907-1.214844.992187-2.386718 1.941406-3.523437 2.859374 2.007812 4.265626 3.871093 8.613282 5.578125 13.035157 2.164062-1.734375 4.425781-3.5625 6.78125-5.480469 8.335937 10.652344 15.511718 22.152344 21.421875 34.320312l-17.808594 8.898438c.804687 4.71875 1.441406 9.492188 1.910156 14.3125l27.59375-13.796875c-8.742187-21.675781-21.207031-41.445313-36.605469-58.527344" fill="#54596e"/><path d="m314.738281 292c-9.453125 11.117188-20.113281 21.179688-31.777343 29.980469 2.367187 8.0625 4.0625 14.898437 5.09375 19.351562h10.222656c1.8125-4.460937 4.878906-12.863281 7.9375-25.101562 1.683594-6.726563 4.910156-15.457031 8.523437-24.230469" fill="#5fb59f"/><path d="m344.898438 244.035156c-7.75 17.464844-17.945313 33.597656-30.160157 47.964844-3.613281 8.773438-6.839843 17.503906-8.519531 24.230469-3.0625 12.238281-6.128906 20.640625-7.9375 25.101562h-10.226562c-1.03125-4.453125-2.722657-11.289062-5.09375-19.351562-3.84375 2.898437-7.789063 5.660156-11.84375 8.277343 3.128906 11.207032 4.726562 19.101563 4.753906 19.242188.640625 3.191406 3.441406 5.488281 6.695312 5.488281h20.183594c2.585938 0 4.949219-1.460937 6.105469-3.773437.21875-.441406 5.4375-10.996094 10.609375-31.671875 4.808594-19.222657 24.515625-58.753907 24.714844-59.152344.472656-.949219.71875-1.992187.71875-3.050781z" fill="#54596e"/><path d="m65.378906 335.621094c13.007813 13.824218 28.1875 25.828125 45.226563 35.480468l7.320312-14.644531c-18.679687-4.4375-36.332031-11.523437-52.546875-20.835937" fill="#5fb59f"/><path d="m45.835938 322.800781c19.1875 25.804688 44.511718 46.78125 73.804687 60.765625.003906-.015625.011719-.027344.015625-.039062l3.058594-6.113282 9.089844-18.179687c-4.683594-.761719-9.308594-1.6875-13.878907-2.773437l-7.320312 14.644531c-17.039063-9.65625-32.21875-21.660157-45.226563-35.484375-6.773437-3.894532-13.300781-8.175782-19.542968-12.820313" fill="#54596e"/></svg>