<svg height="409.6pt" viewBox="0 0 409.6 409.6" width="409.6pt" xmlns="http://www.w3.org/2000/svg"><path d="m402.773438 204.800781c0-109.335937-88.636719-197.972656-197.972657-197.972656-109.335937 0-197.972656 88.636719-197.972656 197.972656 0 109.335938 88.632813 197.972657 197.972656 197.972657 109.335938 0 197.972657-88.636719 197.972657-197.972657" fill="#ffd578"/><path d="m204.800781 409.601562c-112.925781 0-204.800781-91.875-204.800781-204.800781s91.875-204.800781 204.800781-204.800781 204.800781 91.875 204.800781 204.800781-91.875 204.800781-204.800781 204.800781m0-395.949218c-105.402343 0-191.148437 85.746094-191.148437 191.148437 0 105.398438 85.746094 191.144531 191.148437 191.144531 105.398438 0 191.144531-85.746093 191.144531-191.144531 0-105.402343-85.746093-191.148437-191.144531-191.148437" fill="#54596e"/><path d="m225.28125 225.28125c-15.058594 0-27.308594-12.25-27.308594-27.308594 0-3.769531 3.058594-6.824218 6.828125-6.824218s6.824219 3.054687 6.824219 6.824218c0 7.53125 6.125 13.652344 13.65625 13.652344 7.527344 0 13.652344-6.121094 13.652344-13.652344 0-3.769531 3.054687-6.824218 6.828125-6.824218 3.769531 0 6.824219 3.054687 6.824219 6.824218 0 15.058594-12.25 27.308594-27.304688 27.308594zm0 0" fill="#54596e"/><path d="m88.746094 225.28125c-15.054688 0-27.304688-12.25-27.304688-27.308594 0-3.769531 3.054688-6.824218 6.824219-6.824218s6.828125 3.054687 6.828125 6.824218c0 7.53125 6.125 13.652344 13.652344 13.652344 7.53125 0 13.652344-6.121094 13.652344-13.652344 0-3.769531 3.058593-6.824218 6.828124-6.824218 3.769532 0 6.828126 3.054687 6.828126 6.824218 0 15.058594-12.25 27.308594-27.308594 27.308594zm0 0" fill="#54596e"/><path d="m335.835938 65.757812c16.527343 28.914063 25.976562 62.390626 25.976562 98.082032 0 109.335937-88.636719 197.972656-197.972656 197.972656-35.6875 0-69.167969-9.449219-98.082032-25.976562 34.878907 36.992187 84.308594 60.109374 139.042969 60.109374 105.398438 0 191.144531-85.746093 191.144531-191.144531 0-54.734375-23.121093-104.167969-60.109374-139.042969" fill="#e6c377"/><g fill="#54596e"><path d="m322.804688 45.839844c4.726562 6.355468 9.082031 13.007812 13.03125 19.914062 36.988281 34.878906 60.109374 84.3125 60.109374 139.046875 0 105.398438-85.746093 191.144531-191.144531 191.144531-54.734375 0-104.164062-23.117187-139.042969-60.109374-6.910156-3.949219-13.5625-8.304688-19.921874-13.03125 36.085937 48.523437 93.847656 79.96875 158.964843 79.96875 109.335938 0 197.972657-88.636719 197.972657-197.972657 0-65.117187-31.445313-122.878906-79.96875-158.960937"/><path d="m150.1875 143.359375h-129.707031c-3.769531 0-6.828125-3.054687-6.828125-6.824219 0-3.773437 3.058594-6.828125 6.828125-6.828125h129.707031c3.769531 0 6.824219 3.054688 6.824219 6.828125 0 3.769532-3.054688 6.824219-6.824219 6.824219zm0 0"/><path d="m389.121094 143.359375h-170.667969c-3.769531 0-6.828125-3.054687-6.828125-6.824219 0-3.773437 3.058594-6.828125 6.828125-6.828125h170.667969c3.769531 0 6.824218 3.054688 6.824218 6.828125 0 3.769532-3.054687 6.824219-6.824218 6.824219zm0 0"/><path d="m191.148438 143.359375h-13.65625c-3.769532 0-6.824219-3.054687-6.824219-6.824219 0-3.773437 3.054687-6.828125 6.824219-6.828125h13.65625c3.769531 0 6.824218 3.054688 6.824218 6.828125 0 3.769532-3.054687 6.824219-6.824218 6.824219zm0 0"/><path d="m395.945312 170.667969h-382.292968c-3.769532 0-6.824219-3.058594-6.824219-6.828125 0-3.769532 3.054687-6.828125 6.824219-6.828125h382.292968c3.769532 0 6.828126 3.058593 6.828126 6.828125 0 3.769531-3.058594 6.828125-6.828126 6.828125zm0 0"/><path d="m361.8125 320.851562h-320.851562c-3.769532 0-6.828126-3.054687-6.828126-6.824218 0-3.769532 3.058594-6.828125 6.828126-6.828125h320.851562c3.769531 0 6.828125 3.058593 6.828125 6.828125 0 3.769531-3.058594 6.824218-6.828125 6.824218zm0 0"/><path d="m150.1875 54.613281h-61.441406c-3.769532 0-6.824219-3.054687-6.824219-6.828125 0-3.769531 3.054687-6.824218 6.824219-6.824218h61.441406c3.769531 0 6.824219 3.054687 6.824219 6.824218 0 3.773438-3.054688 6.828125-6.824219 6.828125zm0 0"/><path d="m320.851562 54.613281h-143.359374c-3.769532 0-6.824219-3.054687-6.824219-6.828125 0-3.769531 3.054687-6.824218 6.824219-6.824218h143.359374c3.773438 0 6.828126 3.054687 6.828126 6.824218 0 3.773438-3.054688 6.828125-6.828126 6.828125zm0 0"/><path d="m170.667969 286.71875c-1.746094 0-3.496094-.667969-4.828125-2l-34.132813-34.132812c-2.664062-2.664063-2.664062-6.988282 0-9.652344 2.664063-2.664063 6.988281-2.664063 9.652344 0l34.132813 34.132812c2.667968 2.667969 2.667968 6.988282 0 9.652344-1.332032 1.332031-3.078126 2-4.824219 2zm0 0"/><path d="m136.535156 286.71875c-1.746094 0-3.496094-.667969-4.828125-2-2.664062-2.664062-2.664062-6.984375 0-9.652344l34.132813-34.132812c2.667968-2.664063 6.988281-2.664063 9.652344 0 2.667968 2.664062 2.667968 6.988281 0 9.652344l-34.132813 34.132812c-1.332031 1.332031-3.078125 2-4.824219 2zm0 0"/></g></svg>