<svg height="409.6pt" viewBox="0 0 409.6 409.6" width="409.6pt" xmlns="http://www.w3.org/2000/svg"><path d="m402.773438 204.800781c0-109.339843-88.636719-197.972656-197.972657-197.972656-109.339843 0-197.972656 88.636719-197.972656 197.972656 0 109.335938 88.636719 197.972657 197.972656 197.972657 109.335938 0 197.972657-88.636719 197.972657-197.972657" fill="#d8d8d8"/><path d="m204.800781 409.601562c-112.925781 0-204.800781-91.875-204.800781-204.800781s91.875-204.800781 204.800781-204.800781 204.800781 91.875 204.800781 204.800781-91.875 204.800781-204.800781 204.800781m0-395.949218c-105.402343 0-191.148437 85.746094-191.148437 191.148437 0 105.398438 85.746094 191.144531 191.148437 191.144531 105.398438 0 191.144531-85.746093 191.144531-191.144531 0-105.402343-85.746093-191.148437-191.144531-191.148437" fill="#54596e"/><path d="m335.835938 65.753906c16.527343 28.914063 25.976562 62.394532 25.976562 98.085938 0 109.335937-88.636719 197.972656-197.972656 197.972656-35.6875 0-69.167969-9.449219-98.082032-25.976562 34.878907 36.988281 84.308594 60.109374 139.042969 60.109374 105.398438 0 191.144531-85.746093 191.144531-191.144531 0-54.734375-23.121093-104.167969-60.109374-139.046875" fill="#c4c5c8"/><g fill="#54596e"><path d="m322.804688 45.839844c4.726562 6.355468 9.082031 13.003906 13.03125 19.914062 36.988281 34.878906 60.109374 84.3125 60.109374 139.046875 0 105.398438-85.746093 191.144531-191.144531 191.144531-54.734375 0-104.164062-23.121093-139.042969-60.109374-6.914062-3.949219-13.5625-8.304688-19.921874-13.03125 36.085937 48.523437 93.847656 79.96875 158.964843 79.96875 109.335938 0 197.972657-88.636719 197.972657-197.972657 0-65.117187-31.445313-122.878906-79.96875-158.960937"/><path d="m204.800781 293.546875h-95.574219c-3.769531 0-6.828124-3.058594-6.828124-6.828125s3.058593-6.824219 6.828124-6.824219h95.574219c3.769531 0 6.824219 3.054688 6.824219 6.824219s-3.054688 6.828125-6.824219 6.828125zm0 0"/><path d="m361.8125 150.1875c0 3.769531-3.054688 6.824219-6.824219 6.824219-3.773437 0-6.828125-3.054688-6.828125-6.824219s3.054688-6.828125 6.828125-6.828125c3.769531 0 6.824219 3.058594 6.824219 6.828125zm0 0"/><path d="m361.8125 122.878906c0 3.769532-3.054688 6.828125-6.824219 6.828125-3.773437 0-6.828125-3.058593-6.828125-6.828125 0-3.769531 3.054688-6.824218 6.828125-6.824218 3.769531 0 6.824219 3.054687 6.824219 6.824218zm0 0"/><path d="m361.8125 259.414062c0 3.769532-3.054688 6.824219-6.824219 6.824219-3.773437 0-6.828125-3.054687-6.828125-6.824219 0-3.769531 3.054688-6.828124 6.828125-6.828124 3.769531 0 6.824219 3.058593 6.824219 6.828124zm0 0"/><path d="m361.8125 286.71875c0 3.773438-3.054688 6.828125-6.824219 6.828125-3.773437 0-6.828125-3.054687-6.828125-6.828125 0-3.769531 3.054688-6.824219 6.828125-6.824219 3.769531 0 6.824219 3.054688 6.824219 6.824219zm0 0"/><path d="m389.121094 204.800781c0 3.769531-3.058594 6.824219-6.828125 6.824219s-6.828125-3.054688-6.828125-6.824219 3.058594-6.828125 6.828125-6.828125 6.828125 3.058594 6.828125 6.828125zm0 0"/><path d="m361.8125 177.492188c0 3.769531-3.054688 6.828124-6.824219 6.828124-3.773437 0-6.828125-3.058593-6.828125-6.828124 0-3.769532 3.054688-6.824219 6.828125-6.824219 3.769531 0 6.824219 3.054687 6.824219 6.824219zm0 0"/><path d="m361.8125 204.800781c0 3.769531-3.054688 6.824219-6.824219 6.824219-3.773437 0-6.828125-3.054688-6.828125-6.824219s3.054688-6.828125 6.828125-6.828125c3.769531 0 6.824219 3.058594 6.824219 6.828125zm0 0"/><path d="m389.121094 177.492188c0 3.769531-3.058594 6.828124-6.828125 6.828124s-6.828125-3.058593-6.828125-6.828124c0-3.769532 3.058594-6.824219 6.828125-6.824219s6.828125 3.054687 6.828125 6.824219zm0 0"/><path d="m361.8125 232.105469c0 3.769531-3.054688 6.828125-6.824219 6.828125-3.773437 0-6.828125-3.058594-6.828125-6.828125s3.054688-6.824219 6.828125-6.824219c3.769531 0 6.824219 3.054688 6.824219 6.824219zm0 0"/><path d="m252.585938 314.027344c0 3.769531-3.054688 6.824218-6.824219 6.824218-3.773438 0-6.828125-3.054687-6.828125-6.824218 0-3.769532 3.054687-6.828125 6.828125-6.828125 3.769531 0 6.824219 3.058593 6.824219 6.828125zm0 0"/><path d="m334.507812 122.878906c0 3.769532-3.058593 6.828125-6.828124 6.828125-3.769532 0-6.828126-3.058593-6.828126-6.828125 0-3.769531 3.058594-6.824218 6.828126-6.824218 3.769531 0 6.828124 3.054687 6.828124 6.824218zm0 0"/><path d="m334.507812 95.574219c0 3.769531-3.058593 6.824219-6.828124 6.824219-3.769532 0-6.828126-3.054688-6.828126-6.824219s3.058594-6.828125 6.828126-6.828125c3.769531 0 6.828124 3.058594 6.828124 6.828125zm0 0"/><path d="m334.507812 68.265625c0 3.769531-3.058593 6.828125-6.828124 6.828125-3.769532 0-6.828126-3.058594-6.828126-6.828125s3.058594-6.824219 6.828126-6.824219c3.769531 0 6.828124 3.054688 6.828124 6.824219zm0 0"/><path d="m259.414062 204.800781c0 3.769531-3.058593 6.824219-6.828124 6.824219-3.769532 0-6.824219-3.054688-6.824219-6.824219s3.054687-6.828125 6.824219-6.828125c3.769531 0 6.828124 3.058594 6.828124 6.828125zm0 0"/><path d="m191.148438 78.507812c0 5.652344-4.585938 10.238282-10.242188 10.238282s-10.238281-4.585938-10.238281-10.238282c0-5.65625 4.582031-10.242187 10.238281-10.242187s10.242188 4.585937 10.242188 10.242187zm0 0"/><path d="m116.054688 102.398438c0 3.773437-3.058594 6.828124-6.828126 6.828124-3.769531 0-6.828124-3.054687-6.828124-6.828124 0-3.769532 3.058593-6.824219 6.828124-6.824219 3.769532 0 6.828126 3.054687 6.828126 6.824219zm0 0"/><path d="m307.199219 68.265625c0 3.769531-3.054688 6.828125-6.824219 6.828125-3.773438 0-6.828125-3.058594-6.828125-6.828125s3.054687-6.824219 6.828125-6.824219c3.769531 0 6.824219 3.054688 6.824219 6.824219zm0 0"/><path d="m129.707031 232.105469c0 3.769531-3.058593 6.828125-6.828125 6.828125-3.769531 0-6.824218-3.058594-6.824218-6.828125s3.054687-6.824219 6.824218-6.824219c3.769532 0 6.828125 3.054688 6.828125 6.824219zm0 0"/><path d="m334.507812 286.71875c0 3.773438-3.058593 6.828125-6.828124 6.828125-3.769532 0-6.828126-3.054687-6.828126-6.828125 0-3.769531 3.058594-6.824219 6.828126-6.824219 3.769531 0 6.828124 3.054688 6.828124 6.824219zm0 0"/><path d="m334.507812 314.027344c0 3.769531-3.058593 6.824218-6.828124 6.824218-3.769532 0-6.828126-3.054687-6.828126-6.824218 0-3.769532 3.058594-6.828125 6.828126-6.828125 3.769531 0 6.828124 3.058593 6.828124 6.828125zm0 0"/><path d="m95.574219 256c0 5.65625-4.585938 10.238281-10.242188 10.238281-5.652343 0-10.238281-4.582031-10.238281-10.238281s4.585938-10.238281 10.238281-10.238281c5.65625 0 10.242188 4.582031 10.242188 10.238281zm0 0"/><path d="m307.199219 259.414062c0 3.769532-3.054688 6.824219-6.824219 6.824219-3.773438 0-6.828125-3.054687-6.828125-6.824219 0-3.769531 3.054687-6.828124 6.828125-6.828124 3.769531 0 6.824219 3.058593 6.824219 6.828124zm0 0"/><path d="m170.667969 238.933594c0 3.769531-3.058594 6.828125-6.828125 6.828125-3.769532 0-6.828125-3.058594-6.828125-6.828125 0-3.769532 3.058593-6.828125 6.828125-6.828125 3.769531 0 6.828125 3.058593 6.828125 6.828125zm0 0"/><path d="m307.199219 314.027344c0 3.769531-3.054688 6.824218-6.824219 6.824218-3.773438 0-6.828125-3.054687-6.828125-6.824218 0-3.769532 3.054687-6.828125 6.828125-6.828125 3.769531 0 6.824219 3.058593 6.824219 6.828125zm0 0"/><path d="m286.71875 351.574219c0 5.65625-4.582031 10.238281-10.238281 10.238281s-10.242188-4.582031-10.242188-10.238281 4.585938-10.242188 10.242188-10.242188 10.238281 4.585938 10.238281 10.242188zm0 0"/><path d="m334.507812 180.90625c0 5.65625-4.585937 10.242188-10.242187 10.242188s-10.238281-4.585938-10.238281-10.242188 4.582031-10.238281 10.238281-10.238281 10.242187 4.582031 10.242187 10.238281zm0 0"/><path d="m177.492188 348.160156c0 3.769532-3.054688 6.828125-6.824219 6.828125-3.773438 0-6.828125-3.058593-6.828125-6.828125 0-3.769531 3.054687-6.828125 6.828125-6.828125 3.769531 0 6.824219 3.058594 6.824219 6.828125zm0 0"/><path d="m300.375 170.667969c0 3.769531-3.058594 6.824219-6.828125 6.824219s-6.828125-3.054688-6.828125-6.824219c0-3.773438 3.058594-6.828125 6.828125-6.828125s6.828125 3.054687 6.828125 6.828125zm0 0"/><path d="m389.121094 232.105469c0 3.769531-3.058594 6.828125-6.828125 6.828125s-6.828125-3.058594-6.828125-6.828125 3.058594-6.824219 6.828125-6.824219 6.828125 3.054688 6.828125 6.824219zm0 0"/><path d="m95.574219 177.492188c-1.746094 0-3.496094-.667969-4.828125-2l-27.304688-27.304688c-2.667968-2.667969-2.667968-6.988281 0-9.652344 2.664063-2.667968 6.984375-2.667968 9.652344 0l27.304688 27.304688c2.667968 2.667968 2.667968 6.988281 0 9.652344-1.332032 1.332031-3.078126 2-4.824219 2zm0 0"/><path d="m68.265625 177.492188c-1.746094 0-3.492187-.667969-4.824219-2-2.667968-2.664063-2.667968-6.984376 0-9.652344l27.304688-27.304688c2.667968-2.667968 6.988281-2.667968 9.652344 0 2.667968 2.664063 2.667968 6.984375 0 9.652344l-27.304688 27.304688c-1.332031 1.332031-3.082031 2-4.828125 2zm0 0"/><path d="m218.453125 177.492188c-1.746094 0-3.492187-.667969-4.828125-2l-27.304688-27.304688c-2.664062-2.667969-2.664062-6.988281 0-9.652344 2.664063-2.667968 6.988282-2.667968 9.652344 0l27.308594 27.304688c2.664062 2.667968 2.664062 6.988281 0 9.652344-1.335938 1.332031-3.082031 2-4.828125 2zm0 0"/><path d="m191.148438 177.492188c-1.746094 0-3.496094-.667969-4.828126-2-2.664062-2.664063-2.664062-6.984376 0-9.652344l27.304688-27.304688c2.667969-2.667968 6.988281-2.667968 9.65625 0 2.664062 2.664063 2.664062 6.984375 0 9.652344l-27.308594 27.304688c-1.332031 1.332031-3.078125 2-4.824218 2zm0 0"/></g></svg>