<svg height="423pt" viewBox="0 -1 423.25333 423" width="423pt" xmlns="http://www.w3.org/2000/svg"><path d="m416.425781 277.730469c0-75.40625-61.125-136.53125-136.53125-136.53125s-136.535156 61.125-136.535156 136.53125 61.125 136.535156 136.535156 136.535156c75.40625-.003906 136.53125-61.128906 136.53125-136.535156" fill="#fff35f"/><path d="m279.894531 421.089844c-79.050781 0-143.359375-64.308594-143.359375-143.359375s64.308594-143.359375 143.359375-143.359375c79.046875 0 143.359375 64.308594 143.359375 143.359375s-64.3125 143.359375-143.359375 143.359375m0-273.066406c-71.519531 0-129.707031 58.183593-129.707031 129.707031 0 71.519531 58.1875 129.707031 129.707031 129.707031s129.707031-58.1875 129.707031-129.707031-58.1875-129.707031-129.707031-129.707031" fill="#54596e"/><path d="m389.085938 207.789062c4.4375 13.40625 6.859374 27.730469 6.859374 42.632813 0 75.40625-61.125 136.535156-136.53125 136.535156-28.691406 0-55.277343-8.882812-77.234374-24.019531 23.792968 27.257812 58.777343 44.5 97.714843 44.5 71.519531 0 129.707031-58.1875 129.707031-129.707031 0-25.738281-7.535156-49.75-20.515624-69.941407" fill="#ddd462"/><path d="m377.960938 182.863281c4.488281 7.859375 8.234374 16.199219 11.125 24.925781 12.980468 20.191407 20.515624 44.203126 20.515624 69.941407 0 71.519531-58.1875 129.707031-129.707031 129.707031-38.9375 0-73.921875-17.242188-97.714843-44.496094-7.523438-5.1875-14.5-11.105468-20.832032-17.648437 23.511719 41.164062 67.742188 68.972656 118.546875 68.972656 75.40625 0 136.53125-61.128906 136.53125-136.535156 0-36.886719-14.691406-70.296875-38.464843-94.867188" fill="#54596e"/><path d="m211.625 247.007812c0 5.65625-4.582031 10.242188-10.238281 10.242188s-10.238281-4.585938-10.238281-10.242188c0-5.652343 4.582031-10.238281 10.238281-10.238281s10.238281 4.585938 10.238281 10.238281zm0 0" fill="#54596e"/><path d="m334.507812 233.355469c0 5.65625-4.585937 10.242187-10.242187 10.242187s-10.238281-4.585937-10.238281-10.242187 4.582031-10.238281 10.238281-10.238281 10.242187 4.582031 10.242187 10.238281zm0 0" fill="#54596e"/><path d="m75.09375 236.769531c0 18.851563-15.28125 34.132813-34.132812 34.132813-18.851563 0-34.132813-15.28125-34.132813-34.132813 0-18.851562 15.28125-34.132812 34.132813-34.132812 18.851562 0 34.132812 15.28125 34.132812 34.132812zm0 0" fill="#55a6ff"/><g fill="#54596e"><path d="m40.960938 277.730469c-22.585938 0-40.960938-18.375-40.960938-40.960938 0-22.585937 18.375-40.960937 40.960938-40.960937 22.585937 0 40.960937 18.375 40.960937 40.960937 0 22.585938-18.375 40.960938-40.960937 40.960938zm0-68.265625c-15.058594 0-27.308594 12.25-27.308594 27.304687 0 15.054688 12.25 27.308594 27.308594 27.308594 15.054687 0 27.304687-12.253906 27.304687-27.308594 0-15.054687-12.25-27.304687-27.304687-27.304687zm0 0"/><path d="m286.261719 293.921875c-3.152344-14.746094-14.671875-24.785156-25.734375-22.421875-11.058594 2.363281-17.46875 16.234375-14.316406 30.984375 3.152343 14.746094 14.671874 24.785156 25.734374 22.421875 11.058594-2.363281 17.46875-16.234375 14.316407-30.984375zm0 0"/><path d="m268.742188 332.078125c-5.976563 0-12.015626-2.371094-17.113282-6.816406-5.96875-5.195313-10.261718-12.777344-12.089844-21.34375-1.832031-8.570313-1.011718-17.246094 2.308594-24.425781 3.578125-7.738282 9.867188-13.082032 17.261719-14.660157 7.375-1.578125 15.316406.726563 21.746094 6.324219 5.964843 5.199219 10.257812 12.78125 12.089843 21.347656 1.828126 8.566406 1.007813 17.246094-2.3125 24.425782-3.578124 7.738281-9.867187 13.082031-17.257812 14.660156-1.527344.328125-3.078125.488281-4.632812.488281zm-4.941407-54.085937c-.597656 0-1.214843.058593-1.839843.191406-4.3125.917968-6.691407 4.800781-7.71875 7.03125-2.0625 4.457031-2.550782 10.230468-1.351563 15.847656s4.007813 10.683594 7.707031 13.90625c1.855469 1.617188 5.59375 4.1875 9.921875 3.265625 4.3125-.917969 6.691407-4.800781 7.71875-7.03125 2.0625-4.457031 2.550781-10.230469 1.351563-15.847656-1.199219-5.617188-4.007813-10.683594-7.707032-13.90625-1.585937-1.382813-4.554687-3.457031-8.082031-3.457031zm0 0"/><path d="m54.621094 270.902344c-2.507813 0-4.917969-1.378906-6.113282-3.773438l-13.652343-27.304687c-2.09375-4.179688-2.160157-8.71875-.183594-12.773438 5.65625-11.648437 27.691406-16.710937 32.050781-17.605469 3.691406-.78125 7.296875 1.613282 8.0625 5.304688.761719 3.691406-1.613281 7.300781-5.304687 8.066406-11.558594 2.398438-22.265625 7.804688-22.597657 10.382813l13.839844 27.824219c1.683594 3.375.320313 7.476562-3.054687 9.160156-.980469.492187-2.023438.71875-3.046875.71875zm0 0"/></g><path d="m107.15625 213.777344c5.332031-5.332032 97.046875-105.695313 91.714844-111.027344-5.332032-5.328125-105.691406 86.386719-111.027344 91.714844-5.328125 5.335937-5.328125 13.976562 0 19.3125 5.335938 5.328125 13.980469 5.328125 19.3125 0zm0 0" fill="#ff927d"/><path d="m148.117188 111.378906c5.328124-5.335937 97.046874-105.695312 91.714843-111.027344-5.332031-5.332031-105.691406 86.386719-111.027343 91.714844-5.328126 5.332032-5.328126 13.976563 0 19.308594 5.335937 5.332031 13.976562 5.332031 19.3125.003906zm0 0" fill="#ff927d"/><path d="m66.195312 131.855469c5.332032-5.332031 97.046876-105.691407 91.71875-111.023438-5.335937-5.332031-105.695312 86.382813-111.027343 91.714844s-5.332031 13.976563 0 19.308594 13.976562 5.332031 19.308593 0zm0 0" fill="#ff927d"/></svg>