<svg height="418pt" viewBox="-32 0 418 418.98368" width="418pt" xmlns="http://www.w3.org/2000/svg"><path d="m314.050781 221.257812-74.640625 74.644532c-.007812-16.707032-3.71875-32.835938-10.378906-47.542969l31.925781-31.925781c6.667969-6.664063 6.667969-17.46875 0-24.136719-6.667969-6.664063-17.472656-6.664063-24.132812 0l-26.78125 26.777344c-7.558594-8.515625-16.375-15.945313-26.277344-21.988281l67.539063-67.539063c6.664062-6.667969 6.664062-17.472656 0-24.136719v-.003906c-6.667969-6.664062-17.464844-6.664062-24.132813.003906l-77.683594 77.675782c-.613281-.140626-1.183593-.347657-1.804687-.480469-8.085938-1.734375-16.15625-2.542969-24.109375-2.5625l50.496093-50.496094c6.664063-6.667969 6.664063-17.46875 0-24.136719-6.667968-6.667968-17.472656-6.667968-24.136718 0l-108.613282 108.609375.046876.050781c-15.3125 15.289063-26.601563 34.972657-31.464844 57.707032-13.421875 62.679687 26.503906 124.359375 89.179687 137.789062 39.933594 8.546875 79.414063-4.621094 106.3125-31.472656l.046875.042969 132.746094-132.746094c6.664062-6.660156 6.664062-17.46875 0-24.136719-6.664062-6.660156-17.46875-6.660156-24.136719.003906zm0 0" fill="#ff927d"/><path d="m123.46875 418.984375c-8.578125 0-17.226562-.898437-25.8125-2.738281-66.253906-14.195313-108.613281-79.640625-94.425781-145.894532 4.886719-22.847656 16.160156-43.714843 32.625-60.414062l.640625-.742188 108.613281-108.609374c9.011719-9.019532 24.761719-9.027344 33.789063 0 9.320312 9.316406 9.320312 24.472656 0 33.789062l-39.84375 39.839844c2.796874.355468 5.5625.808594 8.300781 1.355468l74.988281-74.984374c9.320312-9.316407 24.464844-9.316407 33.785156-.007813 9.320313 9.320313 9.320313 24.480469 0 33.796875l-61.625 61.625c5.585938 3.96875 10.828125 8.410156 15.6875 13.273438l21.804688-21.800782c9.011718-9.019531 24.761718-9.027344 33.789062-.003906 9.316406 9.320312 9.316406 24.476562 0 33.792969l-28.65625 28.648437c4.046875 9.90625 6.761719 20.105469 8.109375 30.511719l63.984375-63.992187c9.328125-9.308594 24.480469-9.300782 33.792969 0 4.515625 4.515624 7 10.515624 7 16.898437s-2.484375 12.382813-7 16.894531l-132.746094 132.742188-.734375.636718c-23.332031 22.941407-54.207031 35.382813-86.066406 35.382813zm-76.644531-200.8125-.628907.730469c-14.972656 14.945312-25.210937 33.726562-29.617187 54.308594-12.609375 58.890624 25.046875 117.066406 83.941406 129.679687 36.25 7.78125 73.6875-3.300781 100.058594-29.625l.699219-.609375 132.089844-132.089844c1.933593-1.933594 3-4.507812 3-7.238281 0-2.738281-1.066407-5.308594-3-7.242187-4.003907-3.996094-10.488282-3.984376-14.488282 0l-74.640625 74.640624c-1.957031 1.957032-4.890625 2.535157-7.4375 1.480469-2.546875-1.058593-4.214843-3.542969-4.214843-6.304687-.003907-15.371094-3.292969-30.421875-9.773438-44.726563-1.171875-2.59375-.621094-5.636719 1.394531-7.644531l31.925781-31.925781c3.992188-3.992188 3.992188-10.488281 0-14.480469-3.867187-3.867188-10.613281-3.863281-14.480468 0l-26.777344 26.773438c-1.328125 1.332031-3.042969 2.09375-5.027344 2-1.882812-.058594-3.660156-.886719-4.90625-2.292969-7.203125-8.113281-15.519531-15.074219-24.726562-20.691407-1.789063-1.089843-2.980469-2.941406-3.226563-5.015624-.25-2.082032.472657-4.160157 1.953125-5.636719l67.539063-67.542969c1.933593-1.9375 3-4.503906 3-7.242188 0-2.734374-1.066407-5.304687-3-7.234374-3.984375-3.996094-10.492188-4-14.480469-.003907l-77.679688 77.675781c-1.660156 1.664063-4.058593 2.332032-6.347656 1.832032l-1.246094-.335938c-7.832031-1.707031-15.472656-2.519531-23.164062-2.539062-2.753906-.007813-5.242188-1.671875-6.296875-4.222656-1.042969-2.546876-.464844-5.480469 1.488281-7.429688l50.492188-50.5c1.933594-1.9375 3-4.503906 3-7.242188 0-2.734374-1.066406-5.300781-3-7.238281-3.867188-3.867187-10.613282-3.871093-14.476563-.003906zm0 0" fill="#54596e"/><path d="m314.054688 115.0625-38.617188 38.617188c-6.667969 6.664062-6.660156 17.472656 0 24.136718 6.664062 6.664063 17.472656 6.664063 24.140625 0l38.613281-38.617187c6.664063-6.664063 6.664063-17.472657 0-24.136719-6.660156-6.660156-17.46875-6.664062-24.136718 0zm0 0" fill="#ff927d"/><path d="m287.503906 189.632812c-6.113281 0-12.234375-2.332031-16.890625-6.984374-9.320312-9.324219-9.316406-24.484376 0-33.796876l38.617188-38.613281c4.515625-4.515625 10.515625-7 16.894531-7 6.386719 0 12.386719 2.484375 16.890625 7 4.515625 4.511719 7 10.507813 7 16.890625 0 6.382813-2.484375 12.382813-7 16.898438l-38.613281 38.617187c-4.65625 4.65625-10.777344 6.988281-16.898438 6.988281zm38.621094-72.742187c-2.734375 0-5.308594 1.066406-7.242188 3l-38.617187 38.617187c-3.996094 3.992188-3.996094 10.488282 0 14.480469 4.007813 4 10.492187 3.988281 14.484375 0l38.613281-38.617187c1.933594-1.933594 3-4.507813 3-7.242188 0-2.730468-1.066406-5.304687-3-7.234375-1.933593-1.9375-4.507812-3.003906-7.238281-3.003906zm-12.070312-1.828125h.066406zm0 0" fill="#54596e"/><path d="m342.808594 35.953125-53.097656 53.09375c-6.667969 6.667969-17.472657 6.667969-24.140626 0-6.660156-6.664063-6.660156-17.46875 0-24.136719l53.097657-53.097656c6.667969-6.664062 17.472656-6.664062 24.140625 0 6.660156 6.664062 6.660156 17.472656 0 24.140625zm0 0" fill="#ff927d"/><path d="m277.644531 100.863281c-6.121093 0-12.242187-2.328125-16.902343-6.988281-9.3125-9.3125-9.3125-24.472656 0-33.789062l53.101562-53.097657c9.332031-9.320312 24.488281-9.3125 33.792969 0 9.3125 9.3125 9.3125 24.46875 0 33.785157v.003906l-53.097657 53.097656c-4.664062 4.660156-10.78125 6.988281-16.894531 6.988281zm53.101563-87.214843c-2.628906 0-5.25.996093-7.25 2.992187l-53.097656 53.097656c-3.988282 3.992188-3.988282 10.488281 0 14.480469 4.007812 3.996094 10.492187 3.992188 14.484374 0l53.101563-53.089844c3.984375-3.996094 3.984375-10.492187 0-14.488281-2-1.996094-4.621094-2.992187-7.238281-2.992187zm12.0625 22.304687h.066406zm0 0" fill="#54596e"/><path d="m133.523438 272.296875-13.652344 20.480469h27.304687" fill="#ff927d"/><path d="m147.175781 299.605469h-27.304687c-2.523438 0-4.835938-1.386719-6.019532-3.609375-1.1875-2.21875-1.054687-4.910156.339844-7.003906l13.652344-20.480469c2.082031-3.136719 6.3125-3.992188 9.46875-1.890625 3.136719 2.089844 3.984375 6.328125 1.890625 9.464844l-6.578125 9.867187h14.550781c3.773438 0 6.828125 3.054687 6.828125 6.824219 0 3.773437-3.054687 6.828125-6.828125 6.828125zm0 0" fill="#54596e"/><path d="m51.601562 272.296875 13.65625 20.480469h-27.308593" fill="#ff927d"/><path d="m65.257812 299.605469h-27.308593c-3.773438 0-6.824219-3.058594-6.824219-6.828125 0-3.769532 3.050781-6.828125 6.824219-6.828125h14.554687l-6.582031-9.863281c-2.09375-3.136719-1.242187-7.378907 1.894531-9.46875 3.140625-2.097657 7.371094-1.242188 9.46875 1.894531l13.652344 20.480469c1.390625 2.09375 1.527344 4.785156.339844 7.003906s-3.5 3.609375-6.019532 3.609375zm0 0" fill="#54596e"/><path d="m65.257812 361.042969 27.304688-13.652344 40.960938 13.652344" fill="#ff927d"/><path d="m133.523438 367.875c-.714844 0-1.441407-.113281-2.160157-.355469l-38.273437-12.757812-24.78125 12.390625c-3.375 1.683594-7.46875.320312-9.160156-3.054688-1.6875-3.375-.320313-7.472656 3.054687-9.160156l27.304687-13.652344c1.621094-.808594 3.488282-.945312 5.214844-.371094l40.960938 13.652344c3.574218 1.195313 5.507812 5.0625 4.3125 8.636719-.953125 2.859375-3.613282 4.671875-6.472656 4.671875zm0 0" fill="#54596e"/></svg>