<svg height="409pt" viewBox="-6 0 409 409.6" width="409pt" xmlns="http://www.w3.org/2000/svg"><path d="m170.964844 204.800781c0-80.113281 47.609375-149.058593 116.054687-180.222656-24.972656-11.367187-52.691406-17.75-81.917969-17.75-109.335937 0-197.976562 88.636719-197.976562 197.972656 0 109.335938 88.640625 197.972657 197.976562 197.972657 29.222657 0 56.925782-6.398438 81.894532-17.765626-68.429688-31.167968-116.03125-100.109374-116.03125-180.207031" fill="#61c5a8"/><path d="m205.101562 409.601562c-112.929687 0-204.800781-91.875-204.800781-204.800781s91.871094-204.800781 204.800781-204.800781c29.464844 0 57.980469 6.179688 84.75 18.367188 2.433594 1.109374 3.996094 3.535156 3.996094 6.214843 0 2.675781-1.5625 5.101563-3.996094 6.214844-68.074218 30.992187-112.058593 99.296875-112.058593 174.003906 0 74.699219 43.976562 142.996094 112.03125 173.992188 2.433593 1.109375 4 3.542969 4 6.214843 0 2.675782-1.566407 5.105469-4 6.214844-26.789063 12.195313-55.292969 18.378906-84.722657 18.378906m0-395.949218c-105.402343 0-191.148437 85.746094-191.148437 191.148437 0 105.398438 85.746094 191.144531 191.148437 191.144531 22.527344 0 44.476563-3.882812 65.433594-11.558593-65.097656-35.738281-106.394531-104.652344-106.394531-179.585938 0-74.945312 41.300781-143.863281 106.417969-179.601562-20.953125-7.671875-42.90625-11.546875-65.457032-11.546875" fill="#54596e"/><path d="m259.753906 21.609375c-72.113281 29.570313-122.921875 100.425781-122.921875 183.191406 0 82.753907 50.796875 153.605469 122.894531 183.183594 3.632813-1.089844 7.234376-2.289063 10.808594-3.597656-65.097656-35.738281-106.394531-104.652344-106.394531-179.585938 0-74.945312 41.300781-143.863281 106.417969-179.601562-3.574219-1.308594-7.175782-2.503907-10.804688-3.589844" fill="#5eaf9c"/><path d="m269.886719 17.773438c-3.421875 1.1875-6.800781 2.46875-10.136719 3.835937 3.628906 1.085937 7.230469 2.285156 10.804688 3.589844-65.113282 35.738281-106.414063 104.65625-106.414063 179.601562 0 74.933594 41.296875 143.847657 106.394531 179.585938-3.574218 1.308593-7.179687 2.507812-10.808594 3.597656 3.332032 1.367187 6.714844 2.648437 10.136719 3.835937 5.832031-2.027343 11.5625-4.277343 17.132813-6.8125-68.429688-31.167968-116.027344-100.105468-116.027344-180.207031 0-80.113281 47.609375-149.058593 116.054688-180.222656-5.574219-2.535156-11.300782-4.78125-17.136719-6.804687" fill="#54596e"/><path d="m170.964844 273.066406c0 18.851563-15.28125 34.132813-34.132813 34.132813-18.851562 0-34.132812-15.28125-34.132812-34.132813 0-18.851562 15.28125-34.132812 34.132812-34.132812 18.851563 0 34.132813 15.28125 34.132813 34.132812zm0 0" fill="#54596e"/><path d="m130.007812 191.148438c-15.058593 0-27.308593-12.253907-27.308593-27.308594 0-3.769532 3.058593-6.828125 6.828125-6.828125 3.769531 0 6.824218 3.058593 6.824218 6.828125 0 7.53125 6.125 13.652344 13.65625 13.652344 7.527344 0 13.652344-6.121094 13.652344-13.652344 0-3.769532 3.054688-6.828125 6.828125-6.828125 3.769531 0 6.824219 3.058593 6.824219 6.828125 0 15.054687-12.25 27.308594-27.304688 27.308594zm0 0" fill="#54596e"/><path d="m54.914062 191.148438c-15.058593 0-27.308593-12.253907-27.308593-27.308594 0-3.769532 3.058593-6.828125 6.828125-6.828125 3.769531 0 6.828125 3.058593 6.828125 6.828125 0 7.53125 6.121093 13.652344 13.652343 13.652344 7.527344 0 13.652344-6.121094 13.652344-13.652344 0-3.769532 3.058594-6.828125 6.828125-6.828125s6.824219 3.058593 6.824219 6.828125c0 15.054687-12.25 27.308594-27.304688 27.308594zm0 0" fill="#54596e"/><path d="m157.3125 283.308594c0-5.65625-9.167969-10.242188-20.480469-10.242188-11.308593 0-20.480469 4.585938-20.480469 10.242188 0 5.652344 9.171876 10.238281 20.480469 10.238281 11.3125 0 20.480469-4.585937 20.480469-10.238281zm0 0" fill="#f99"/><g fill="#8065c4"><path d="m260.539062 232.933594c-1.746093 0-3.492187-.667969-4.824218-2l-28.960938-28.960938c-2.667968-2.667968-2.667968-6.988281 0-9.652344 2.664063-2.667968 6.984375-2.667968 9.652344 0l28.960938 28.960938c2.664062 2.664062 2.664062 6.984375 0 9.652344-1.335938 1.332031-3.082032 2-4.828126 2zm0 0"/><path d="m231.578125 232.933594c-1.746094 0-3.492187-.667969-4.824219-2-2.667968-2.667969-2.667968-6.988282 0-9.652344l28.960938-28.960938c2.664062-2.667968 6.984375-2.667968 9.652344 0 2.664062 2.664063 2.664062 6.984376 0 9.652344l-28.960938 28.960938c-1.332031 1.332031-3.078125 2-4.828125 2zm0 0"/><path d="m349.285156 321.679688c-1.746094 0-3.492187-.667969-4.824218-2l-28.960938-28.960938c-2.667969-2.664062-2.667969-6.988281 0-9.652344 2.664062-2.667968 6.984375-2.667968 9.652344 0l28.960937 28.960938c2.664063 2.664062 2.664063 6.984375 0 9.652344-1.332031 1.335937-3.078125 2-4.828125 2zm0 0"/><path d="m320.324219 321.679688c-1.746094 0-3.492188-.667969-4.824219-2-2.667969-2.667969-2.667969-6.988282 0-9.652344l28.960938-28.960938c2.664062-2.667968 6.984374-2.667968 9.652343 0 2.664063 2.664063 2.664063 6.988282 0 9.652344l-28.960937 28.960938c-1.332032 1.335937-3.078125 2-4.828125 2zm0 0"/><path d="m390.246094 226.105469c-1.746094 0-3.492188-.667969-4.828125-2l-28.957031-28.960938c-2.667969-2.664062-2.667969-6.984375 0-9.652343 2.664062-2.664063 6.984374-2.664063 9.652343 0l28.960938 28.960937c2.664062 2.664063 2.664062 6.988281 0 9.652344-1.335938 1.335937-3.082031 2-4.828125 2zm0 0"/><path d="m361.285156 226.105469c-1.746094 0-3.492187-.667969-4.824218-2-2.667969-2.664063-2.667969-6.988281 0-9.652344l28.957031-28.960937c2.667969-2.664063 6.988281-2.664063 9.65625 0 2.664062 2.667968 2.664062 6.988281 0 9.652343l-28.960938 28.960938c-1.335937 1.335937-3.078125 2-4.828125 2zm0 0"/><path d="m301.5 137.359375c-1.746094 0-3.496094-.667969-4.828125-2l-28.960937-28.960937c-2.664063-2.664063-2.664063-6.988282 0-9.652344 2.667968-2.667969 6.988281-2.667969 9.65625 0l28.957031 28.960937c2.667969 2.664063 2.667969 6.984375 0 9.652344-1.332031 1.335937-3.078125 2-4.824219 2zm0 0"/><path d="m272.539062 137.359375c-1.746093 0-3.492187-.667969-4.828124-2-2.664063-2.667969-2.664063-6.988281 0-9.652344l28.960937-28.960937c2.667969-2.667969 6.988281-2.667969 9.652344 0 2.667969 2.664062 2.667969 6.988281 0 9.652344l-28.957031 28.960937c-1.335938 1.335937-3.082032 2-4.828126 2zm0 0"/></g></svg>