<svg height="430pt" viewBox="-37 0 430 430.08" width="430pt" xmlns="http://www.w3.org/2000/svg"><path d="m314.070312 269.652344c0-84.828125-68.769531-153.601563-153.601562-153.601563-84.835938 0-153.601562 68.773438-153.601562 153.601563s68.765624 153.597656 153.601562 153.597656c84.832031.003906 153.601562-68.765625 153.601562-153.597656" fill="#fff35f"/><path d="m160.46875 430.078125c-88.460938 0-160.4296875-71.964844-160.4296875-160.425781 0-88.460938 71.9687495-160.425782 160.4296875-160.425782s160.425781 71.964844 160.425781 160.425782c0 88.460937-71.96875 160.425781-160.425781 160.425781m0-307.199219c-80.933594 0-146.773438 65.84375-146.773438 146.773438 0 80.929687 65.839844 146.773437 146.773438 146.773437s146.773438-65.84375 146.773438-146.773437c0-80.925782-65.84375-146.773438-146.773438-146.773438" fill="#54596e"/><path d="m238.714844 145.519531c21.496094 26.421875 34.390625 60.113281 34.390625 96.828125 0 84.828125-68.765625 153.597656-153.597657 153.597656-15.082031 0-29.644531-2.191406-43.410156-6.25 23.882813 16.835938 52.992188 26.730469 84.371094 26.730469 80.933594 0 146.773438-65.84375 146.773438-146.773437-.003907-52.1875-27.382813-98.101563-68.527344-124.132813" fill="#e6dc61"/><path d="m224.015625 129.824219c5.253906 4.882812 10.167969 10.128906 14.699219 15.695312 41.148437 26.03125 68.523437 71.945313 68.523437 124.132813 0 80.929687-65.839843 146.773437-146.773437 146.773437-31.375 0-60.484375-9.898437-84.367188-26.734375-6.929687-2.042968-13.65625-4.5625-20.144531-7.515625 27.421875 25.472657 64.132813 41.078125 104.515625 41.078125 84.832031 0 153.601562-68.769531 153.601562-153.601562 0-62.15625-36.941406-115.652344-90.054687-139.828125" fill="#54596e"/><path d="m122.921875 225.28125c0 11.308594-9.171875 20.480469-20.480469 20.480469-11.3125 0-20.480468-9.171875-20.480468-20.480469 0-11.3125 9.167968-20.480469 20.480468-20.480469 11.308594 0 20.480469 9.167969 20.480469 20.480469zm0 0" fill="#ffd578"/><path d="m102.441406 252.585938c-15.0625 0-27.308594-12.25-27.308594-27.304688 0-15.058594 12.246094-27.308594 27.308594-27.308594 15.058594 0 27.304688 12.25 27.304688 27.308594 0 15.054688-12.246094 27.304688-27.304688 27.304688zm0-40.960938c-7.527344 0-13.65625 6.125-13.65625 13.65625 0 7.527344 6.128906 13.652344 13.65625 13.652344 7.523438 0 13.652344-6.125 13.652344-13.652344 0-7.53125-6.128906-13.65625-13.652344-13.65625zm0 0" fill="#54596e"/><path d="m157.054688 334.507812c0 15.078126-12.226563 27.304688-27.308594 27.304688-15.082032 0-27.304688-12.226562-27.304688-27.304688 0-15.082031 12.222656-27.308593 27.304688-27.308593 15.082031 0 27.308594 12.226562 27.308594 27.308593zm0 0" fill="#ffd578"/><path d="m129.746094 368.640625c-18.820313 0-34.132813-15.316406-34.132813-34.132813 0-18.820312 15.3125-34.132812 34.132813-34.132812 18.820312 0 34.132812 15.3125 34.132812 34.132812 0 18.816407-15.3125 34.132813-34.132812 34.132813zm0-54.613281c-11.292969 0-20.480469 9.1875-20.480469 20.480468 0 11.292969 9.1875 20.480469 20.480469 20.480469 11.292968 0 20.480468-9.1875 20.480468-20.480469 0-11.292968-9.183593-20.480468-20.480468-20.480468zm0 0" fill="#54596e"/><path d="m232.148438 225.28125c0 11.308594-9.171876 20.480469-20.480469 20.480469-11.3125 0-20.480469-9.171875-20.480469-20.480469 0-11.3125 9.167969-20.480469 20.480469-20.480469 11.308593 0 20.480469 9.167969 20.480469 20.480469zm0 0" fill="#ffd578"/><path d="m211.667969 252.585938c-15.0625 0-27.308594-12.25-27.308594-27.304688 0-15.058594 12.246094-27.308594 27.308594-27.308594 15.058593 0 27.304687 12.25 27.304687 27.308594 0 15.054688-12.246094 27.304688-27.304687 27.304688zm0-40.960938c-7.527344 0-13.65625 6.125-13.65625 13.65625 0 7.527344 6.128906 13.652344 13.65625 13.652344 7.523437 0 13.652343-6.125 13.652343-13.652344 0-7.53125-6.128906-13.65625-13.652343-13.65625zm0 0" fill="#54596e"/><path d="m163.878906 245.761719c-3.773437 0-6.824218-3.058594-6.824218-6.828125v-232.105469c0-3.773437 3.050781-6.828125 6.824218-6.828125 3.773438 0 6.828125 3.054688 6.828125 6.828125v232.105469c0 3.769531-3.054687 6.828125-6.828125 6.828125zm0 0" fill="#54596e"/><path d="m342.394531 143.359375h-178.515625v-136.53125h178.515625c5.796875 0 9.578125 6.109375 6.980469 11.296875l-28.480469 56.96875 28.480469 56.964844c2.597656 5.191406-1.183594 11.300781-6.980469 11.300781zm0 0" fill="#ff927d"/><path d="m342.394531 150.1875h-178.515625c-3.773437 0-6.824218-3.058594-6.824218-6.828125v-136.53125c0-3.773437 3.050781-6.828125 6.824218-6.828125h178.515625c5.105469 0 9.765625 2.597656 12.453125 6.945312 2.679688 4.347657 2.917969 9.671876.632813 14.238282l-26.953125 53.910156 26.953125 53.914062c2.285156 4.5625 2.046875 9.886719-.632813 14.234376-2.6875 4.347656-7.347656 6.945312-12.453125 6.945312zm-171.6875-13.652344h171.6875l.832031-.46875.039063-.949218-28.480469-56.96875c-.960937-1.925782-.960937-4.183594 0-6.109376l28.480469-56.964843-.039063-.953125-.832031-.46875h-171.6875zm0 0" fill="#54596e"/><path d="m245.773438 121.460938c-13.226563 0-25.390626-4.699219-32.550782-12.574219-2.535156-2.789063-2.328125-7.109375.460938-9.640625 2.785156-2.535156 7.113281-2.332032 9.644531.457031 4.539063 5 13.148437 8.105469 22.445313 8.105469 9.203124 0 17.761718-3.058594 22.335937-7.976563 2.578125-2.765625 6.890625-2.917969 9.644531-.355469 2.757813 2.570313 2.921875 6.886719.351563 9.648438-7.179688 7.726562-19.265625 12.335938-32.332031 12.335938zm0 0" fill="#54596e"/><path d="m204.839844 75.09375c0 7.539062-6.113282 13.652344-13.652344 13.652344-7.542969 0-13.652344-6.113282-13.652344-13.652344s6.109375-13.652344 13.652344-13.652344c7.539062 0 13.652344 6.113282 13.652344 13.652344zm0 0" fill="#ffd578"/><path d="m300.414062 75.09375c0 7.539062-6.113281 13.652344-13.652343 13.652344-7.542969 0-13.65625-6.113282-13.65625-13.652344s6.113281-13.652344 13.65625-13.652344c7.539062 0 13.652343 6.113282 13.652343 13.652344zm0 0" fill="#ffd578"/><g fill="#54596e"><path d="m300.414062 51.199219c0 5.65625-4.585937 10.242187-10.242187 10.242187-5.652344 0-10.238281-4.585937-10.238281-10.242187s4.585937-10.238281 10.238281-10.238281c5.65625 0 10.242187 4.582031 10.242187 10.238281zm0 0"/><path d="m211.667969 51.199219c0 5.65625-4.585938 10.242187-10.242188 10.242187s-10.238281-4.585937-10.238281-10.242187 4.582031-10.238281 10.238281-10.238281 10.242188 4.582031 10.242188 10.238281zm0 0"/></g></svg>