<svg height="409.6pt" viewBox="0 0 409.6 409.6" width="409.6pt" xmlns="http://www.w3.org/2000/svg"><path d="m286.71875 375.464844c0-21.679688 14.449219-39.957032 34.234375-45.804688-.015625-.664062-.101563-1.308594-.101563-1.980468 0-41.472657 33.621094-75.09375 75.09375-75.09375l.972657.050781c3.804687-15.324219 5.855469-31.335938 5.855469-47.835938 0-109.335937-88.636719-197.972656-197.972657-197.972656-109.335937 0-197.972656 88.636719-197.972656 197.972656 0 109.335938 88.636719 197.972657 197.972656 197.972657 29.574219 0 57.613281-6.535157 82.816407-18.160157-.574219-2.964843-.898438-6.015625-.898438-9.148437" fill="#61c5a8"/><path d="m204.800781 409.601562c-112.925781 0-204.800781-91.875-204.800781-204.800781s91.875-204.800781 204.800781-204.800781 204.800781 91.875 204.800781 204.800781c0 16.644531-2.039062 33.296875-6.054687 49.480469-.765625 3.070312-3.515625 4.964844-6.699219 5.179688l-.90625-.039063h-.011718c-37.632813 0-68.25 30.621094-68.25 68.257813l.097656 1.8125c.082031 3.085937-1.925782 5.839843-4.890625 6.714843-17.273438 5.101563-29.339844 21.25-29.339844 39.257813 0 2.5625.257813 5.203125.773437 7.851562.597657 3.085938-.992187 6.179688-3.84375 7.496094-27.023437 12.46875-55.847656 18.789062-85.675781 18.789062m0-395.949218c-105.398437 0-191.148437 85.746094-191.148437 191.148437 0 105.398438 85.746094 191.144531 191.148437 191.144531 26.144531 0 51.460938-5.203124 75.332031-15.46875-.160156-1.683593-.238281-3.355468-.238281-5.011718 0-22.257813 13.820313-42.382813 34.179688-50.625 1.449219-42.378906 35.246093-76.691406 77.414062-78.960938 2.960938-13.492187 4.457031-27.285156 4.457031-41.078125 0-105.402343-85.746093-191.148437-191.144531-191.148437" fill="#54596e"/><path d="m395.828125 197.972656c-41.417969.066406-74.976563 33.660156-74.976563 75.09375 0 .667969.085938 1.316406.101563 1.980469-19.785156 5.847656-34.234375 24.125-34.234375 45.804687 0 3.132813.324219 6.183594.898438 9.148438-25.203126 11.625-53.242188 18.160156-82.816407 18.160156-91.476562 0-168.417969-62.054687-191.125-146.355468-.015625.996093-.023437 2-.023437 2.996093 0 105.398438 85.746094 191.144531 191.148437 191.144531 26.144531 0 51.460938-5.203124 75.332031-15.46875-.160156-1.683593-.238281-3.355468-.238281-5.011718 0-22.257813 13.820313-42.382813 34.179688-50.625 1.449219-42.378906 35.246093-76.691406 77.414062-78.960938 2.960938-13.492187 4.457031-27.285156 4.457031-41.078125 0-2.285156-.039062-4.5625-.117187-6.828125" fill="#60baa2"/><path d="m400.835938 177.363281c-.96875 7.003907-2.242188 13.90625-3.917969 20.660157l-.972657-.050782c-.039062 0-.078124 0-.117187 0 .078125 2.265625.117187 4.542969.117187 6.828125 0 13.792969-1.496093 27.585938-4.453124 41.082031-42.171876 2.269532-75.964844 36.582032-77.414063 78.957032-20.363281 8.242187-34.183594 28.367187-34.183594 50.625 0 1.65625.078125 3.328125.238281 5.011718-23.871093 10.265626-49.1875 15.46875-75.332031 15.46875-105.398437 0-191.148437-85.746093-191.148437-191.144531 0-.996093.007812-2 .023437-2.996093-2.132812-7.917969-3.785156-16.03125-4.929687-24.3125-1.230469 8.929687-1.917969 18.039062-1.917969 27.308593 0 109.335938 88.636719 197.972657 197.972656 197.972657 29.574219 0 57.613281-6.535157 82.816407-18.160157-.574219-2.964843-.898438-6.015625-.898438-9.148437 0-21.679688 14.449219-39.957032 34.234375-45.804688-.015625-.664062-.101563-1.308594-.101563-1.980468 0-41.472657 33.621094-75.09375 75.09375-75.09375l.972657.050781c3.804687-15.324219 5.855469-31.335938 5.855469-47.835938 0-9.3125-.691407-18.464843-1.9375-27.4375" fill="#54596e"/><path d="m136.535156 68.265625c-7.542968 0-13.65625 6.113281-13.65625 13.65625 0 7.539063 6.113282 13.652344 13.65625 13.652344 7.539063 0 13.652344-6.113281 13.652344-13.652344s-6.113281-13.65625-13.652344-13.65625" fill="#5eaf9c"/><path d="m273.066406 238.933594c-7.539062 0-13.652344 6.113281-13.652344 13.652344 0 7.539062 6.113282 13.652343 13.652344 13.652343 7.539063 0 13.652344-6.113281 13.652344-13.652343 0-7.539063-6.113281-13.652344-13.652344-13.652344" fill="#5eaf9c"/><path d="m296.960938 75.09375c-13.195313 0-23.894532 10.695312-23.894532 23.894531 0 13.195313 10.695313 23.890625 23.894532 23.890625 13.195312 0 23.890624-10.695312 23.890624-23.890625 0-13.199219-10.695312-23.894531-23.890624-23.894531" fill="#5eaf9c"/><g fill="#54596e"><path d="m191.148438 273.066406c0 18.851563-15.285157 34.132813-34.136719 34.132813-18.851563 0-34.132813-15.28125-34.132813-34.132813 0-18.851562 15.28125-34.132812 34.132813-34.132812 18.851562 0 34.136719 15.28125 34.136719 34.132812zm0 0"/><path d="m204.800781 191.148438c-15.058593 0-27.308593-12.253907-27.308593-27.308594 0-3.769532 3.058593-6.828125 6.828124-6.828125 3.769532 0 6.828126 3.058593 6.828126 6.828125 0 7.53125 6.121093 13.652344 13.652343 13.652344 7.527344 0 13.652344-6.121094 13.652344-13.652344 0-3.769532 3.058594-6.828125 6.828125-6.828125s6.824219 3.058593 6.824219 6.828125c0 15.058594-12.25 27.308594-27.304688 27.308594zm0 0"/><path d="m68.265625 191.148438c-15.054687 0-27.304687-12.253907-27.304687-27.308594 0-3.769532 3.054687-6.828125 6.824218-6.828125 3.773438 0 6.828125 3.058593 6.828125 6.828125 0 7.53125 6.125 13.652344 13.652344 13.652344 7.53125 0 13.65625-6.121094 13.65625-13.652344 0-3.769532 3.054687-6.828125 6.824219-6.828125 3.769531 0 6.828125 3.058593 6.828125 6.828125 0 15.058594-12.25 27.308594-27.308594 27.308594zm0 0"/></g><path d="m177.492188 283.308594c0-5.65625-9.167969-10.242188-20.480469-10.242188-11.308594 0-20.476563 4.585938-20.476563 10.242188 0 5.652344 9.167969 10.238281 20.476563 10.238281 11.3125 0 20.480469-4.585937 20.480469-10.238281zm0 0" fill="#f99"/></svg>