<svg height="412pt" viewBox="0 0 412.51739 412" width="412pt" xmlns="http://www.w3.org/2000/svg"><path d="m397.414062 206.535156c0-105.566406-85.582031-191.144531-191.148437-191.144531-105.5625 0-191.144531 85.578125-191.144531 191.144531s85.582031 191.148438 191.144531 191.148438c105.566406 0 191.148437-85.582032 191.148437-191.148438" fill="#8065c4"/><path d="m206.265625 404.507812c-109.15625 0-197.972656-88.808593-197.972656-197.972656 0-109.164062 88.816406-197.972656 197.972656-197.972656 109.160156 0 197.976563 88.808594 197.976563 197.972656 0 109.164063-88.816407 197.972656-197.976563 197.972656m0-382.292968c-101.632813 0-184.316406 82.6875-184.316406 184.320312 0 101.632813 82.683593 184.320313 184.316406 184.320313 101.636719 0 184.320313-82.6875 184.320313-184.320313 0-101.632812-82.6875-184.320312-184.320313-184.320312" fill="#54596e"/><path d="m337.464844 77.195312c12.796875 25.953126 19.996094 55.191407 19.996094 86.125 0 107.246094-86.453126 194.1875-193.105469 194.1875-32.496094 0-63.109375-8.078124-89.976563-22.335937 33.496094 34.332031 80.246094 55.683594 131.886719 55.683594 101.636719 0 184.320313-82.6875 184.320313-184.320313 0-50.34375-20.289063-96.042968-53.121094-129.339844" fill="#7963b7"/><g fill="#54596e"><path d="m319.40625 47.578125c6.855469 9.269531 12.910156 19.179687 18.054688 29.617187 32.832031 33.296876 53.125 78.996094 53.125 129.339844 0 101.632813-82.6875 184.320313-184.320313 184.320313-51.640625 0-98.390625-21.351563-131.890625-55.683594-8.796875-4.667969-17.191406-10.003906-25.121094-15.929687 35.191406 47.59375 91.539063 78.441406 155.050782 78.441406 106.648437 0 193.109374-86.941406 193.109374-194.1875 0-63.871094-30.671874-120.53125-78.007812-155.917969"/><path d="m25.433594 412.496094c-7.773438.003906-14.066406-2.085938-18.550782-6.574219-14.914062-14.914063-5.5625-48.574219 27.804688-100.050781 2.046875-3.164063 6.28125-4.0625 9.441406-2.015625 3.164063 2.054687 4.066406 6.28125 2.011719 9.441406-32.671875 50.417969-36.371094 76.207031-29.605469 82.972656 16.140625 16.113281 110.792969-33.554687 228.351563-151.117187 51.628906-51.625 95.632812-104.585938 123.914062-149.132813 30.5-48.042969 33.714844-72.703125 27.199219-79.21875-6.804688-6.796875-32.738281-3.027343-83.464844 29.929688-3.160156 2.054687-7.386718 1.15625-9.445312-2.003907-2.054688-3.164062-1.15625-7.390624 2.003906-9.441406 51.773438-33.648437 85.585938-43.113281 100.5625-28.136718 14.507812 14.507812 5.988281 46.871093-25.328125 96.1875-28.804687 45.367187-73.472656 99.160156-125.785156 151.46875-82.828125 82.824218-182.535157 157.683593-229.109375 157.691406zm0 0"/><path d="m206.265625 227.015625c-15.058594 0-27.304687-12.25-27.304687-27.304687 0-3.773438 3.054687-6.828126 6.828124-6.828126 3.773438 0 6.824219 3.054688 6.824219 6.828126 0 7.527343 6.128907 13.652343 13.652344 13.652343 7.527344 0 13.65625-6.125 13.65625-13.652343 0-3.773438 3.050781-6.828126 6.824219-6.828126 3.773437 0 6.828125 3.054688 6.828125 6.828126 0 15.054687-12.246094 27.304687-27.308594 27.304687zm0 0"/><path d="m69.734375 227.015625c-15.058594 0-27.308594-12.25-27.308594-27.304687 0-3.773438 3.054688-6.828126 6.828125-6.828126 3.773438 0 6.828125 3.054688 6.828125 6.828126 0 7.527343 6.125 13.652343 13.652344 13.652343s13.652344-6.125 13.652344-13.652343c0-3.773438 3.054687-6.828126 6.828125-6.828126 3.773437 0 6.824218 3.054688 6.824218 6.828126 0 15.054687-12.246093 27.304687-27.304687 27.304687zm0 0"/><path d="m158.480469 274.800781c0 15.082031-12.226563 27.308594-27.304688 27.308594-15.082031 0-27.308593-12.226563-27.308593-27.308594 0-15.078125 12.226562-27.304687 27.308593-27.304687 15.078125 0 27.304688 12.226562 27.304688 27.304687zm0 0"/></g></svg>