<svg height="423pt" viewBox="0 -7 423.25333 423" width="423pt" xmlns="http://www.w3.org/2000/svg"><path d="m402.773438 204.925781c0-109.335937-88.632813-197.972656-197.972657-197.972656-109.339843 0-197.972656 88.636719-197.972656 197.972656 0 109.335938 88.632813 197.972657 197.972656 197.972657 109.339844 0 197.972657-88.636719 197.972657-197.972657" fill="#fff"/><path d="m204.800781 409.726562c-112.925781 0-204.800781-91.875-204.800781-204.800781s91.875-204.800781 204.800781-204.800781 204.800781 91.875 204.800781 204.800781-91.875 204.800781-204.800781 204.800781m0-395.949218c-105.402343 0-191.148437 85.75-191.148437 191.148437 0 105.398438 85.746094 191.144531 191.148437 191.144531 105.398438 0 191.144531-85.746093 191.144531-191.144531 0-105.398437-85.742187-191.148437-191.144531-191.148437" fill="#54596e"/><path d="m335.828125 65.875c16.535156 28.917969 25.984375 62.398438 25.984375 98.089844 0 109.335937-88.632812 197.972656-197.972656 197.972656-35.691406 0-69.171875-9.449219-98.085938-25.980469 34.878906 36.992188 84.3125 60.117188 139.046875 60.117188 105.398438 0 191.144531-85.746094 191.144531-191.148438 0-54.730469-23.125-104.171875-60.117187-139.050781" fill="#e6e6e9"/><path d="m322.800781 45.964844c4.722657 6.355468 9.078125 13.003906 13.027344 19.910156 36.992187 34.878906 60.117187 84.320312 60.117187 139.050781 0 105.398438-85.746093 191.144531-191.144531 191.144531-54.734375 0-104.167969-23.125-139.046875-60.113281-6.910156-3.949219-13.558594-8.300781-19.914062-13.027343 36.082031 48.523437 93.839844 79.96875 158.960937 79.96875 109.339844 0 197.972657-88.636719 197.972657-197.972657 0-65.117187-31.445313-122.878906-79.972657-158.960937" fill="#54596e"/><path d="m157.011719 68.394531h-102.398438c-11.3125 0-20.480469-9.171875-20.480469-20.480469 0-11.3125 9.167969-20.480468 20.480469-20.480468h102.398438c11.316406 0 20.480469 9.167968 20.480469 20.480468 0 11.308594-9.164063 20.480469-20.480469 20.480469zm0 0" fill="#aca3d3"/><path d="m157.011719 75.21875h-102.398438c-15.058593 0-27.304687-12.25-27.304687-27.304688 0-15.058593 12.246094-27.308593 27.304687-27.308593h102.398438c15.0625 0 27.308593 12.25 27.308593 27.308593 0 15.054688-12.246093 27.304688-27.308593 27.304688zm-102.398438-40.957031c-7.527343 0-13.652343 6.121093-13.652343 13.652343 0 7.527344 6.125 13.652344 13.652343 13.652344h102.398438c7.527343 0 13.65625-6.125 13.65625-13.652344 0-7.53125-6.128907-13.652343-13.65625-13.652343zm0 0" fill="#54596e"/><path d="m170.667969 280.015625h-68.269531c-11.3125 0-20.476563-9.164063-20.476563-20.480469 0-11.308594 9.164063-20.480468 20.476563-20.480468h68.269531c11.3125 0 20.480469 9.171874 20.480469 20.480468 0 11.316406-9.167969 20.480469-20.480469 20.480469zm0 0" fill="#54596e"/><path d="m150.1875 382.421875h-102.402344c-11.3125 0-20.476562-9.171875-20.476562-20.480469 0-11.3125 9.164062-20.480468 20.476562-20.480468h102.402344c11.3125 0 20.480469 9.167968 20.480469 20.480468 0 11.308594-9.167969 20.480469-20.480469 20.480469zm0 0" fill="#aca3d3"/><path d="m150.1875 389.246094h-102.402344c-15.058594 0-27.304687-12.25-27.304687-27.304688 0-15.058594 12.246093-27.308594 27.304687-27.308594h102.402344c15.058594 0 27.304688 12.25 27.304688 27.308594 0 15.054688-12.246094 27.304688-27.304688 27.304688zm-102.402344-40.960938c-7.523437 0-13.652344 6.125-13.652344 13.65625 0 7.527344 6.128907 13.652344 13.652344 13.652344h102.402344c7.527344 0 13.652344-6.125 13.652344-13.652344 0-7.53125-6.125-13.65625-13.652344-13.65625zm0 0" fill="#54596e"/><path d="m395.945312 259.535156h-136.53125c-11.3125 0-20.480468 9.171875-20.480468 20.480469 0 2.40625.492187 4.683594 1.253906 6.832031h-14.90625c-11.316406 0-20.480469 9.167969-20.480469 20.480469 0 11.308594 9.164063 20.480469 20.480469 20.480469h102.398438c11.3125 0 20.480468-9.171875 20.480468-20.480469 0-2.40625-.492187-4.683594-1.253906-6.832031h49.039062c11.316407 0 20.480469-9.167969 20.480469-20.480469 0-11.308594-9.164062-20.480469-20.480469-20.480469zm0 0" fill="#aca3d3"/><path d="m327.679688 334.632812h-102.398438c-15.0625 0-27.308594-12.25-27.308594-27.304687 0-15.058594 12.246094-27.308594 27.308594-27.308594h6.824219v-.003906c0-15.054687 12.25-27.304687 27.308593-27.304687h136.53125c15.0625 0 27.308594 12.25 27.308594 27.304687 0 15.058594-12.246094 27.308594-27.308594 27.308594h-40.957031v.003906c0 15.054687-12.25 27.304687-27.308593 27.304687zm-102.398438-40.960937c-7.527344 0-13.65625 6.125-13.65625 13.65625 0 7.527344 6.128906 13.652344 13.65625 13.652344h102.398438c7.527343 0 13.652343-6.125 13.652343-13.652344 0-1.425781-.277343-2.914063-.859375-4.554687-.738281-2.085938-.417968-4.40625.859375-6.21875 1.28125-1.808594 3.363281-2.886719 5.574219-2.886719h49.039062c7.527344 0 13.65625-6.121094 13.65625-13.652344 0-7.527344-6.128906-13.652344-13.65625-13.652344h-136.53125c-7.527343 0-13.652343 6.125-13.652343 13.652344 0 1.425781.277343 2.914063.859375 4.554687.738281 2.085938.417968 4.40625-.859375 6.21875-1.28125 1.808594-3.363281 2.882813-5.574219 2.882813zm0 0" fill="#54596e"/><path d="m395.945312 88.875h-18.972656c3.273438-3.632812 5.320313-8.386719 5.320313-13.660156 0-11.308594-9.167969-20.476563-20.480469-20.476563h-54.613281c-11.3125 0-20.480469 9.167969-20.480469 20.476563 0 5.273437 2.046875 10.027344 5.320312 13.660156h-87.238281c-11.3125 0-20.480469 9.167969-20.480469 20.476562 0 11.3125 9.167969 20.480469 20.480469 20.480469h191.144531c11.316407 0 20.480469-9.167969 20.480469-20.480469 0-11.308593-9.164062-20.476562-20.480469-20.476562zm0 0" fill="#aca3d3"/><g fill="#54596e"><path d="m395.945312 136.660156h-191.144531c-15.058593 0-27.308593-12.25-27.308593-27.308594 0-15.054687 12.25-27.304687 27.308593-27.304687h75.980469c-.585938-2.21875-.886719-4.511719-.886719-6.832031 0-15.054688 12.246094-27.304688 27.304688-27.304688h54.613281c15.058594 0 27.308594 12.25 27.308594 27.304688 0 2.320312-.300782 4.613281-.886719 6.832031h7.710937c15.0625 0 27.308594 12.25 27.308594 27.304687 0 15.058594-12.246094 27.308594-27.308594 27.308594zm-191.144531-40.960937c-7.527343 0-13.652343 6.125-13.652343 13.652343 0 7.53125 6.125 13.65625 13.652343 13.65625h191.144531c7.527344 0 13.65625-6.125 13.65625-13.65625 0-7.527343-6.128906-13.652343-13.65625-13.652343h-18.972656c-2.699218 0-5.140625-1.585938-6.238281-4.050781-1.09375-2.464844-.632813-5.34375 1.175781-7.347657 1.617188-1.800781 3.558594-4.839843 3.558594-9.085937 0-7.527344-6.128906-13.652344-13.652344-13.652344h-54.613281c-7.527344 0-13.65625 6.125-13.65625 13.652344 0 4.246094 1.941406 7.285156 3.5625 9.085937 1.804687 2.003907 2.265625 4.882813 1.171875 7.347657-1.101562 2.464843-3.542969 4.050781-6.242188 4.050781zm0 0"/><path d="m218.453125 198.101562c-15.058594 0-27.304687-12.253906-27.304687-27.308593 0-3.769531 3.050781-6.828125 6.824218-6.828125 3.773438 0 6.828125 3.058594 6.828125 6.828125 0 7.53125 6.125 13.652343 13.652344 13.652343s13.652344-6.121093 13.652344-13.652343c0-3.769531 3.054687-6.828125 6.828125-6.828125 3.773437 0 6.828125 3.058594 6.828125 6.828125 0 15.054687-12.25 27.308593-27.308594 27.308593zm0 0"/><path d="m81.921875 198.101562c-15.0625 0-27.308594-12.253906-27.308594-27.308593 0-3.769531 3.054688-6.828125 6.828125-6.828125 3.773438 0 6.824219 3.058594 6.824219 6.828125 0 7.53125 6.128906 13.652343 13.65625 13.652343 7.523437 0 13.652344-6.121093 13.652344-13.652343 0-3.769531 3.050781-6.828125 6.824219-6.828125 3.773437 0 6.828124 3.058594 6.828124 6.828125 0 15.054687-12.246093 27.308593-27.304687 27.308593zm0 0"/></g></svg>