<svg height="423.25333pt" viewBox="0 0 423.25333 423.25333" width="423.25333pt" xmlns="http://www.w3.org/2000/svg"><path d="m150.1875 279.894531h-27.308594v-129.707031c0-82.8125 67.375-150.1875 150.1875-150.1875s150.1875 67.375 150.1875 150.1875h-27.308594c0-67.757812-55.125-122.878906-122.878906-122.878906s-122.878906 55.121094-122.878906 122.878906zm0 0" fill="#ffb8f2"/><path d="m177.492188 211.625h-27.304688v-61.4375c0-67.757812 55.125-122.878906 122.878906-122.878906s122.878906 55.121094 122.878906 122.878906h-27.304687c0-52.699219-42.875-95.574219-95.574219-95.574219-52.699218 0-95.574218 42.875-95.574218 95.574219zm0 0" fill="#fff35f"/><path d="m204.800781 211.625h-27.308593v-61.4375c0-52.699219 42.875-95.574219 95.574218-95.574219 52.699219 0 95.574219 42.875 95.574219 95.574219h-27.308594c0-37.644531-30.625-68.265625-68.265625-68.265625s-68.265625 30.621094-68.265625 68.265625zm0 0" fill="#84ff61"/><path d="m232.105469 177.492188h-27.304688v-27.304688c0-37.644531 30.625-68.265625 68.265625-68.265625s68.265625 30.621094 68.265625 68.265625h-27.304687c0-22.585938-18.375-40.960938-40.960938-40.960938-22.585937 0-40.960937 18.375-40.960937 40.960938zm0 0" fill="#55a6ff"/><path d="m327.574219 261.410156c.097656-1.828125.277343-3.636718.277343-5.496094 0-54.621093-44.277343-98.898437-98.90625-98.898437-46.488281 0-85.375 32.117187-95.953124 75.339844-8.328126-10.339844-21.066407-16.972657-35.375-16.972657-25.070313 0-45.390626 20.324219-45.390626 45.398438 0 2.339844.226563 4.625.574219 6.863281-27.089843 12.179688-45.972656 39.339844-45.972656 70.957031 0 42.980469 34.839844 77.824219 77.824219 77.824219h233.46875c42.984375 0 77.824218-34.84375 77.824218-77.824219 0-39.773437-29.859374-72.519531-68.371093-77.191406" fill="#fff"/><g fill="#54596e"><path d="m318.121094 423.253906h-233.46875c-46.679688 0-84.652344-37.972656-84.652344-84.652344 0-31.554687 17.699219-60.464843 45.484375-74.996093-.058594-.957031-.085937-1.898438-.085937-2.824219 0-28.796875 23.425781-52.226562 52.21875-52.226562 11.800781 0 23.027343 3.929687 32.113281 11.046874 15.050781-41.398437 54.335937-69.414062 99.21875-69.414062 58.203125 0 105.578125 47.277344 105.730469 105.445312 39.242187 7.769532 68.09375 42.378907 68.09375 82.96875 0 46.679688-37.972657 84.652344-84.652344 84.652344m-220.5-201.046875c-21.269532 0-38.566406 17.304688-38.566406 38.574219 0 1.773438.160156 3.675781.492187 5.820312.464844 3.03125-1.144531 6.007813-3.945313 7.265626-25.480468 11.460937-41.949218 36.871093-41.949218 64.734374 0 39.148438 31.855468 71 71 71h233.46875c39.144531 0 71-31.851562 71-71 0-35.832031-26.816406-66.101562-62.367188-70.414062-3.574218-.433594-6.195312-3.558594-5.996094-7.152344l.109376-1.777344c.078124-1.105468.160156-2.214843.160156-3.34375 0-50.769531-41.308594-92.074218-92.082032-92.074218-42.488281 0-79.210937 28.839844-89.320312 70.136718-.621094 2.523438-2.613281 4.476563-5.152344 5.039063-2.535156.558594-5.175781-.363281-6.800781-2.378906-7.378906-9.171875-18.332031-14.429688-30.050781-14.429688"/><path d="m252.585938 279.894531c0 7.539063-6.113282 13.652344-13.652344 13.652344-7.539063 0-13.652344-6.113281-13.652344-13.652344 0-7.542969 6.113281-13.65625 13.652344-13.65625 7.539062 0 13.652344 6.113281 13.652344 13.65625zm0 0"/><path d="m109.226562 279.894531c0 7.539063-6.113281 13.652344-13.652343 13.652344-7.542969 0-13.652344-6.113281-13.652344-13.652344 0-7.542969 6.109375-13.65625 13.652344-13.65625 7.539062 0 13.652343 6.113281 13.652343 13.65625zm0 0"/><path d="m211.625 328.886719c-.105469-10.710938-95.464844-10.710938-95.570312 0v.226562c0 18.058594 21.390624 32.699219 47.785156 32.699219 26.394531 0 47.785156-14.640625 47.785156-32.699219zm0 0"/></g><path d="m184.320312 341.332031c0-3.769531-9.167968-6.824219-20.480468-6.824219s-20.480469 3.054688-20.480469 6.824219c0 3.773438 9.167969 6.828125 20.480469 6.828125s20.480468-3.054687 20.480468-6.828125zm0 0" fill="#ff927d"/><path d="m388.816406 332.046875c-12.269531 26.816406-39.269531 45.464844-70.695312 45.464844h-233.46875c-31.417969 0-58.421875-18.644531-70.695313-45.457031-.203125 2.164062-.304687 4.351562-.304687 6.546874 0 39.148438 31.855468 71 71 71h233.46875c39.144531 0 71-31.851562 71-71 0-2.207031-.101563-4.394531-.304688-6.554687" fill="#dddee2"/><path d="m9.359375 319.066406c-1.625 6.25-2.53125 12.78125-2.53125 19.535156 0 42.980469 34.839844 77.824219 77.824219 77.824219h233.46875c42.984375 0 77.824218-34.84375 77.824218-77.824219 0-6.75-.917968-13.269531-2.539062-19.503906-1.15625 4.484375-2.695312 8.8125-4.589844 12.953125.203125 2.160157.304688 4.347657.304688 6.554688 0 39.144531-31.855469 70.996093-71 70.996093h-233.46875c-39.144532 0-71-31.851562-71-71 0-2.195312.101562-4.382812.304687-6.546874-1.898437-4.144532-3.441406-8.488282-4.597656-12.988282" fill="#54596e"/></svg>