<svg height="429pt" viewBox="-36 0 429 429.27829" width="429pt" xmlns="http://www.w3.org/2000/svg"><path d="m179.058594 287.53125c49.253906 0 91.625 20.980469 111.21875 51.199219 7.402344-11.414063 11.660156-24.105469 11.660156-37.546875 0-49.011719-55.015625-88.746094-122.878906-88.746094-67.863282 0-122.878906 39.734375-122.878906 88.746094 0 13.441406 4.253906 26.132812 11.65625 37.546875 19.597656-30.21875 61.964843-51.199219 111.222656-51.199219zm0 0" fill="#55a6ff"/><path d="m290.277344 345.558594c-2.3125 0-4.46875-1.171875-5.726563-3.113282-18.941406-29.210937-60.351562-48.085937-105.492187-48.085937s-86.550782 18.875-105.492188 48.085937c-2.511718 3.886719-8.9375 3.886719-11.453125 0-8.46875-13.054687-12.761719-26.9375-12.761719-41.261718 0-52.699219 58.1875-95.574219 129.707032-95.574219 71.519531 0 129.707031 42.875 129.707031 95.574219 0 14.324218-4.296875 28.207031-12.761719 41.261718-1.257812 1.941407-3.414062 3.113282-5.726562 3.113282zm-111.21875-64.855469c45.054687 0 87.027344 17.558594 110.398437 45.46875 3.757813-8.109375 5.652344-16.480469 5.652344-24.988281 0-45.167969-52.058594-81.917969-116.050781-81.917969-63.992188 0-116.054688 36.75-116.054688 81.917969 0 8.507812 1.898438 16.878906 5.652344 24.988281 23.371094-27.910156 65.34375-45.46875 110.402344-45.46875zm0 0" fill="#54596e"/><path d="m241.46875 301.183594c20.628906-32.015625 33.164062-73.929688 33.164062-119.871094 0-82.492188-40.316406-152.082031-95.574218-174.484375-55.257813 22.398437-95.574219 91.992187-95.574219 174.484375 0 45.941406 12.535156 87.855469 33.160156 119.871094zm0 0" fill="#fff"/><path d="m241.46875 308.011719h-124.824219c-2.320312 0-4.484375-1.179688-5.738281-3.128907-22.085938-34.28125-34.25-78.164062-34.25-123.570312 0-83.941406 40.121094-156.605469 99.839844-180.808594 1.636718-.667968 3.484375-.667968 5.125 0 59.714844 24.203125 99.835937 96.867188 99.835937 180.808594 0 45.40625-12.164062 89.289062-34.246093 123.570312-1.257813 1.949219-3.417969 3.128907-5.742188 3.128907zm-121.054688-13.652344h117.289063c19.429687-31.632813 30.101563-71.613281 30.101563-113.046875 0-75.980469-36.359376-144.152344-88.746094-167.078125-52.386719 22.929687-88.746094 91.097656-88.746094 167.078125 0 41.433594 10.667969 81.414062 30.101562 113.046875zm0 0" fill="#54596e"/><path d="m179.058594 342.144531c-7.539063 0-13.652344-6.113281-13.652344-13.652343v-47.789063c0-7.539063 6.113281-13.652344 13.652344-13.652344 7.539062 0 13.652344 6.113281 13.652344 13.652344v47.789063c0 7.539062-6.113282 13.652343-13.652344 13.652343zm0 0" fill="#55a6ff"/><path d="m179.058594 348.972656c-11.292969 0-20.480469-9.1875-20.480469-20.480468v-47.789063c0-11.292969 9.1875-20.480469 20.480469-20.480469 11.292968 0 20.480468 9.1875 20.480468 20.480469v47.789063c0 11.292968-9.1875 20.480468-20.480468 20.480468zm0-75.09375c-3.765625 0-6.828125 3.0625-6.828125 6.824219v47.789063c0 3.761718 3.0625 6.824218 6.828125 6.824218 3.761718 0 6.824218-3.0625 6.824218-6.824218v-47.789063c0-3.761719-3.0625-6.824219-6.824218-6.824219zm0 0" fill="#54596e"/><path d="m101.824219 89.558594h154.46875c-16.964844-39.40625-44.421875-69.429688-77.234375-82.730469-32.816406 13.300781-60.269532 43.324219-77.234375 82.730469zm0 0" fill="#ff927d"/><path d="m256.292969 96.382812h-154.46875c-2.296875 0-4.441407-1.152343-5.703125-3.070312-1.261719-1.917969-1.476563-4.34375-.566406-6.453125 18.007812-41.828125 46.75-72.5 80.941406-86.359375 1.636718-.667969 3.484375-.667969 5.125 0 34.191406 13.859375 62.933594 44.53125 80.941406 86.359375.910156 2.109375.691406 4.535156-.566406 6.453125-1.265625 1.917969-3.40625 3.070312-5.703125 3.070312zm-143.796875-13.652343h133.125c-16.113282-32.589844-39.425782-56.628907-66.5625-68.496094-27.140625 11.867187-50.453125 35.90625-66.5625 68.496094zm0 0" fill="#54596e"/><path d="m226.84375 164.652344c0 26.390625-21.394531 47.785156-47.785156 47.785156-26.394532 0-47.789063-21.394531-47.789063-47.785156 0-26.394532 21.394531-47.789063 47.789063-47.789063 26.390625 0 47.785156 21.394531 47.785156 47.789063zm0 0" fill="#fff35f"/><g fill="#54596e"><path d="m179.058594 219.265625c-30.113282 0-54.613282-24.5-54.613282-54.613281 0-30.117188 24.5-54.613282 54.613282-54.613282 30.113281 0 54.613281 24.496094 54.613281 54.613282 0 30.113281-24.5 54.613281-54.613281 54.613281zm0-95.574219c-22.585938 0-40.960938 18.375-40.960938 40.960938 0 22.585937 18.375 40.957031 40.960938 40.957031 22.585937 0 40.960937-18.371094 40.960937-40.957031 0-22.585938-18.375-40.960938-40.960937-40.960938zm0 0"/><path d="m165.40625 150.996094c0 3.773437-3.058594 6.828125-6.828125 6.828125s-6.828125-3.054688-6.828125-6.828125c0-3.769532 3.058594-6.824219 6.828125-6.824219s6.828125 3.054687 6.828125 6.824219zm0 0"/><path d="m206.363281 150.996094c0 3.773437-3.054687 6.828125-6.824219 6.828125-3.773437 0-6.828124-3.054688-6.828124-6.828125 0-3.769532 3.054687-6.824219 6.828124-6.824219 3.769532 0 6.824219 3.054687 6.824219 6.824219zm0 0"/><path d="m179.058594 191.957031c-9.804688 0-19.144532-4.21875-25.625-11.582031-2.492188-2.828125-2.214844-7.144531.613281-9.632812 2.832031-2.5 7.140625-2.21875 9.632813.609374 3.890624 4.417969 9.492187 6.949219 15.378906 6.949219 5.878906 0 11.484375-2.53125 15.375-6.949219 2.496094-2.828124 6.804687-3.105468 9.636718-.609374 2.828126 2.492187 3.101563 6.804687.609376 9.632812-6.480469 7.363281-15.820313 11.582031-25.621094 11.582031zm0 0"/><path d="m138.097656 383.105469c-3.769531 0-6.828125-3.058594-6.828125-6.828125v-47.785156c0-3.769532 3.058594-6.828126 6.828125-6.828126 3.769532 0 6.828125 3.058594 6.828125 6.828126v47.785156c0 3.769531-3.058593 6.828125-6.828125 6.828125zm0 0"/><path d="m75.226562 408.796875c-1.0625 0-2.140624-.246094-3.152343-.773437-3.34375-1.746094-4.636719-5.871094-2.890625-9.210938 9.453125-18.109375 28.015625-29.363281 48.433594-29.363281 16.609374 0 32.121093 7.429687 42.554687 20.378906 2.363281 2.9375 1.902344 7.230469-1.03125 9.597656-2.945313 2.363281-7.238281 1.902344-9.601563-1.03125-7.828124-9.714843-19.460937-15.289062-31.917968-15.289062-15.320313 0-29.238282 8.4375-36.335938 22.023437-1.21875 2.335938-3.59375 3.667969-6.058594 3.667969zm0 0"/><path d="m6.960938 429.277344c-1.0625 0-2.144532-.25-3.152344-.777344-3.34375-1.742188-4.636719-5.867188-2.890625-9.207031 9.453125-18.113281 28.011719-29.363281 48.433593-29.363281 16.609376 0 32.117188 7.429687 42.554688 20.378906 2.363281 2.9375 1.902344 7.230468-1.035156 9.597656-2.941406 2.363281-7.230469 1.898438-9.597656-1.03125-7.828126-9.714844-19.464844-15.289062-31.921876-15.289062-15.316406 0-29.234374 8.4375-36.332031 22.023437-1.21875 2.335937-3.597656 3.667969-6.058593 3.667969zm0 0"/><path d="m220.019531 383.105469c-3.773437 0-6.828125-3.058594-6.828125-6.828125v-47.785156c0-3.769532 3.054688-6.828126 6.828125-6.828126 3.769531 0 6.824219 3.058594 6.824219 6.828126v47.785156c0 3.769531-3.054688 6.828125-6.824219 6.828125zm0 0"/><path d="m282.886719 408.796875c-2.460938 0-4.839844-1.332031-6.054688-3.664063-7.097656-13.585937-21.015625-22.027343-36.335937-22.027343-12.457032 0-24.089844 5.574219-31.917969 15.289062-2.371094 2.9375-6.660156 3.402344-9.601563 1.035157-2.9375-2.367188-3.394531-6.664063-1.03125-9.601563 10.433594-12.949219 25.941407-20.375 42.554688-20.375 20.417969 0 38.980469 11.25 48.433594 29.359375 1.746094 3.34375.453125 7.464844-2.890625 9.210938-1.011719.523437-2.089844.773437-3.15625.773437zm0 0"/><path d="m351.15625 429.277344c-2.464844 0-4.839844-1.332032-6.058594-3.664063-7.097656-13.585937-21.015625-22.027343-36.332031-22.027343-12.457031 0-24.09375 5.574218-31.921875 15.289062-2.367188 2.9375-6.660156 3.402344-9.597656 1.035156-2.9375-2.367187-3.398438-6.664062-1.035156-9.601562 10.433593-12.949219 25.945312-20.375 42.554687-20.375 20.421875 0 38.980469 11.25 48.433594 29.359375 1.746093 3.34375.453125 7.464843-2.890625 9.207031-1.011719.527344-2.089844.777344-3.152344.777344zm0 0"/></g></svg>