<svg height="431pt" viewBox="0 -3 431.81826 431" width="431pt" xmlns="http://www.w3.org/2000/svg"><path d="m416.71875 220.335938c0-105.566407-85.582031-191.148438-191.148438-191.148438-105.5625 0-191.144531 85.582031-191.144531 191.148438 0 105.5625 85.582031 191.144531 191.144531 191.144531 105.566407 0 191.148438-85.578125 191.148438-191.144531" fill="#bfad88"/><path d="m225.570312 418.308594c-109.160156 0-197.972656-88.8125-197.972656-197.972656 0-109.164063 88.8125-197.976563 197.972656-197.976563 109.160157 0 197.976563 88.8125 197.976563 197.976563 0 109.160156-88.816406 197.972656-197.976563 197.972656m0-382.292969c-101.632812 0-184.320312 82.683594-184.320312 184.320313 0 101.632812 82.6875 184.316406 184.320312 184.316406 101.632813 0 184.320313-82.683594 184.320313-184.316406 0-101.636719-82.683594-184.320313-184.320313-184.320313" fill="#54596e"/><path d="m44.738281 426.292969c-7.773437.003906-14.066406-2.085938-18.554687-6.574219-14.910156-14.910156-5.558594-48.570312 27.808594-100.046875 2.054687-3.164063 6.273437-4.066406 9.4375-2.019531 3.167968 2.054687 4.070312 6.28125 2.015624 9.445312-32.671874 50.417969-36.371093 76.207032-29.605468 82.96875 16.136718 16.117188 110.792968-33.554687 228.351562-151.117187 51.628906-51.621094 95.632813-104.585938 123.914063-149.125 30.5-48.046875 33.710937-72.707031 27.199219-79.222657-6.804688-6.796874-32.746094-3.027343-83.46875 29.929688-3.15625 2.054688-7.386719 1.15625-9.445313-2.003906-2.054687-3.160156-1.152344-7.390625 2.003906-9.441406 51.769531-33.648438 85.597657-43.109376 100.5625-28.136719 14.507813 14.503906 5.988281 46.867187-25.324219 96.191406-28.808593 45.363281-73.476562 99.152344-125.789062 151.464844-82.824219 82.824219-182.53125 157.683593-229.105469 157.6875" fill="#54596e"/><path d="m24.257812 412.640625c-7.773437.003906-14.066406-2.085937-18.550781-6.574219-13.949219-13.945312-2.296875-49.902344 34.632813-106.875 2.054687-3.164062 6.28125-4.066406 9.441406-2.019531 3.164062 2.054687 4.066406 6.28125 2.011719 9.445313-39.1875 60.460937-41.339844 84.890624-36.433594 89.796874 16.152344 16.117188 110.792969-33.554687 228.355469-151.117187 51.625-51.621094 95.632812-104.585937 123.914062-149.128906 30.5-48.042969 33.710938-72.703125 27.199219-79.222657-6.808594-6.789062-32.738281-3.027343-83.46875 29.933594-3.15625 2.054688-7.378906 1.15625-9.445313-2.003906-2.054687-3.164062-1.152343-7.390625 2.007813-9.445312 51.765625-33.640626 85.589844-43.105469 100.558594-28.132813 14.507812 14.503906 5.984375 46.871094-25.328125 96.1875-28.804688 45.367187-73.472656 99.160156-125.789063 151.46875-82.824219 82.820313-182.53125 157.679687-229.105469 157.6875" fill="#54596e"/><path d="m346.371094 81.230469c5.296875 8.296875 9.960937 17.035156 13.925781 26.148437 1.65625-2.464844 3.265625-4.902344 4.835937-7.320312-5.792968-6.714844-12.070312-13.011719-18.761718-18.828125" fill="#afa084"/><path d="m338.730469 70.148438c2.675781 3.597656 5.226562 7.292968 7.644531 11.082031 6.691406 5.816406 12.964844 12.113281 18.757812 18.828125.777344-1.199219 1.542969-2.394532 2.296876-3.582032-8.628907-9.726562-18.246094-18.558593-28.699219-26.328124" fill="#54596e"/><path d="m129.832031 361.558594c-3.996093 2.875-7.957031 5.664062-11.863281 8.347656 2.671875 1.925781 5.40625 3.792969 8.1875 5.578125 4.945312-3.308594 10.050781-6.839844 15.300781-10.59375-3.925781-.988281-7.800781-2.101563-11.625-3.332031m258.59375-227.5c-4.59375 6.671875-9.484375 13.488281-14.648437 20.421875 1.351562 9.09375 2.050781 18.394531 2.050781 27.867187 0 103.960938-84.28125 188.238282-188.242187 188.238282-9.550782 0-18.941407-.710938-28.109376-2.085938-6.894531 5.132812-13.691406 10.007812-20.355468 14.59375 25.800781 13.757812 55.230468 21.558594 86.453125 21.558594 101.632812 0 184.320312-82.683594 184.320312-184.316406-.003906-31.152344-7.769531-60.519532-21.46875-86.277344m-14.332031-22.765625c-2.519531 3.808593-5.140625 7.671875-7.863281 11.585937 1.46875 4.40625 2.777343 8.890625 3.921875 13.4375 3.71875-5.183594 7.261718-10.285156 10.632812-15.296875-2.128906-3.316406-4.359375-6.558593-6.691406-9.726562" fill="#afa084"/><path d="m117.96875 369.90625c-1.234375.84375-2.460938 1.679688-3.683594 2.503906 2.613282 1.945313 5.285156 3.828125 8.003906 5.640625 1.277344-.839843 2.566407-1.695312 3.867188-2.566406-2.78125-1.789063-5.515625-3.652344-8.1875-5.578125m273.21875-239.898438c-.90625 1.34375-1.832031 2.695313-2.765625 4.050782 13.703125 25.757812 21.46875 55.125 21.46875 86.277344 0 101.632812-82.6875 184.316406-184.320313 184.316406-31.21875 0-60.652343-7.800782-86.453124-21.558594-1.351563.933594-2.707032 1.855469-4.046876 2.761719 27.078126 15.082031 58.261719 23.679687 91.457032 23.679687 103.960937 0 188.242187-84.28125 188.242187-188.242187.003907-33.125-8.554687-64.246094-23.582031-91.285157m-14.652344-22.441406c-.800781 1.234375-1.617187 2.480469-2.441406 3.726563 2.332031 3.167969 4.5625 6.410156 6.691406 9.726562.867188-1.296875 1.726563-2.582031 2.570313-3.863281-2.171875-3.269531-4.453125-6.46875-6.820313-9.589844" fill="#54596e"/><path d="m141.457031 364.890625c-5.25 3.753906-10.355469 7.285156-15.300781 10.59375-1.300781.871094-2.589844 1.726563-3.871094 2.566406 4.152344 2.765625 8.414063 5.367188 12.789063 7.804688 1.339843-.90625 2.695312-1.828125 4.046875-2.761719 6.664062-4.585938 13.457031-9.457031 20.355468-14.589844-6.109374-.917968-12.121093-2.125-18.019531-3.613281m241.898438-247.734375c-.84375 1.28125-1.699219 2.566406-2.570313 3.863281-3.371094 5.011719-6.914062 10.113281-10.632812 15.296875 1.496094 5.945313 2.707031 12.011719 3.621094 18.164063 5.167968-6.929688 10.054687-13.746094 14.648437-20.421875.933594-1.355469 1.855469-2.703125 2.765625-4.046875-2.441406-4.398438-5.054688-8.6875-7.832031-12.855469" fill="#54596e"/><path d="m86.46875 341.140625c6.230469 7.167969 13.007812 13.847656 20.265625 19.984375 2.53125-1.703125 5.105469-3.464844 7.714844-5.28125-9.777344-4.128906-19.128907-9.054688-27.980469-14.703125" fill="#afa084"/><g fill="#54596e"><path d="m75.386719 333.496094c8.160156 10.976562 17.492187 21.035156 27.804687 29.992187 1.171875-.777343 2.351563-1.5625 3.542969-2.363281-7.257813-6.136719-14.035156-12.816406-20.269531-19.984375-3.785156-2.421875-7.480469-4.96875-11.078125-7.644531"/><path d="m114.449219 355.84375c-2.609375 1.816406-5.183594 3.582031-7.714844 5.28125-1.191406.800781-2.371094 1.585938-3.542969 2.363281 3.582032 3.113281 7.28125 6.089844 11.09375 8.925781 1.222656-.828124 2.449219-1.660156 3.683594-2.507812 3.90625-2.683594 7.871094-5.46875 11.863281-8.34375-5.230469-1.691406-10.363281-3.597656-15.382812-5.71875m252.980469-259.367188c-.753907 1.1875-1.523438 2.382813-2.296876 3.582032-1.566406 2.417968-3.179687 4.855468-4.835937 7.320312 2.199219 5.054688 4.183594 10.226563 5.9375 15.5 2.722656-3.910156 5.34375-7.773437 7.863281-11.585937.820313-1.246094 1.636719-2.492188 2.4375-3.726563-2.898437-3.816406-5.933594-7.507812-9.105468-11.089844"/><path d="m109.519531 213.507812c-11.292969 0-20.480469-9.1875-20.480469-20.480468 0-11.292969 9.1875-20.480469 20.480469-20.480469s20.480469 9.1875 20.480469 20.480469c0 11.292968-9.1875 20.480468-20.480469 20.480468zm0-27.308593c-3.769531 0-6.828125 3.066406-6.828125 6.828125 0 3.761718 3.058594 6.828125 6.828125 6.828125 3.765625 0 6.824219-3.066407 6.824219-6.828125 0-3.761719-3.058594-6.828125-6.824219-6.828125zm0 0"/><path d="m232.398438 213.507812c-11.292969 0-20.480469-9.1875-20.480469-20.480468 0-11.292969 9.1875-20.480469 20.480469-20.480469 11.292968 0 20.480468 9.1875 20.480468 20.480469 0 11.292968-9.1875 20.480468-20.480468 20.480468zm0-27.308593c-3.765626 0-6.828126 3.066406-6.828126 6.828125 0 3.761718 3.0625 6.828125 6.828126 6.828125 3.765624 0 6.828124-3.066407 6.828124-6.828125 0-3.761719-3.0625-6.828125-6.828124-6.828125zm0 0"/><path d="m170.957031 288.601562c-18.816406 0-34.132812-15.316406-34.132812-34.132812 0-3.769531 3.054687-6.828125 6.828125-6.828125 3.773437 0 6.824218 3.058594 6.824218 6.828125 0 11.292969 9.1875 20.480469 20.480469 20.480469s20.480469-9.1875 20.480469-20.480469c0-3.769531 3.054688-6.828125 6.828125-6.828125s6.824219 3.058594 6.824219 6.828125c0 18.820312-15.308594 34.132812-34.132813 34.132812zm0 0"/></g></svg>