<svg height="422pt" viewBox="0 -1 422.86487 422" width="422pt" xmlns="http://www.w3.org/2000/svg"><path d="m228.539062 19.929688 35.964844 105.242187c2.40625 7.558594 9.3125 12.675781 17.105469 12.675781l116.382813 15.179688c17.425781 0 24.671874 22.734375 10.570312 33.175781l-94.15625 69.734375c-6.304688 4.671875-8.9375 12.945312-6.53125 20.5l35.960938 112.835938c5.386718 16.898437-13.582032 30.945312-27.679688 20.503906l-94.15625-69.734375c-6.304688-4.671875-14.839844-4.671875-21.148438 0l-94.152343 69.734375c-14.097657 10.441406-33.066407-3.605469-27.679688-20.503906l35.960938-112.835938c2.40625-7.554688-.230469-15.828125-6.535157-20.5l-94.152343-69.734375c-14.097657-10.441406-6.855469-33.175781 10.570312-33.175781l116.386719-15.179688c7.789062 0 14.695312-5.117187 17.105469-12.675781l35.960937-105.242187c5.394532-16.894532 28.835938-16.894532 34.222656 0" fill="#fff35f"/><path d="m326.730469 420.191406c-5.101563 0-10.203125-1.644531-14.632813-4.925781l-94.15625-69.734375c-3.890625-2.886719-9.125-2.890625-13.019531 0l-94.152344 69.734375c-8.742187 6.472656-20.101562 6.570313-28.929687.246094-9.074219-6.488281-12.730469-17.601563-9.320313-28.308594l35.964844-112.835937c1.527344-4.796876-.121094-9.996094-4.097656-12.941407l-94.152344-69.734375c-8.90625-6.597656-12.394531-17.710937-8.894531-28.320312 3.394531-10.277344 12.410156-16.972656 23.054687-17.164063l115.976563-15.132812.882812-.054688c4.828125 0 9.09375-3.183593 10.605469-7.921875l36.003906-105.375c3.332031-10.453125 12.601563-17.289062 23.566407-17.289062 10.945312 0 20.199218 6.808594 23.59375 17.351562l35.941406 105.179688c1.550781 4.871094 5.8125 8.054687 10.644531 8.054687l.886719.054688 115.976562 15.132812c10.644532.191407 19.660156 6.886719 23.050782 17.164063 3.5 10.609375.011718 21.722656-8.890626 28.320312l-94.160156 69.738282c-3.976562 2.941406-5.617187 8.144531-4.09375 12.9375l35.964844 112.835937c3.414062 10.707031-.246094 21.820313-9.316406 28.3125-4.355469 3.117187-9.328125 4.667969-14.296875 4.675781m-115.300781-90.5c5.132812 0 10.261718 1.625 14.636718 4.867188l94.15625 69.734375c5.945313 4.402343 11.351563 1.207031 12.859375.117187 3.316407-2.371094 6.171875-7.046875 4.257813-13.0625l-35.964844-112.835937c-3.304688-10.359375.300781-21.636719 8.972656-28.058594l94.15625-69.734375c4.957032-3.671875 5.34375-9.15625 4.054688-13.066406-1.242188-3.765625-4.671875-7.796875-10.566406-7.796875l-.882813-.054688-115.980469-15.128906c-10.601562-.203125-19.859375-7.15625-23.128906-17.425781l-35.921875-105.105469-.042969-.132813c-1.863281-5.839843-6.699218-7.917968-10.605468-7.917968-3.902344 0-8.742188 2.078125-10.605469 7.917968l-36.007813 105.375c-3.230468 10.136719-12.488281 17.082032-23.085937 17.289063l-115.980469 15.128906-.882812.058594c-5.890626 0-9.320313 4.027344-10.5625 7.796875-1.289063 3.90625-.902344 9.390625 4.054687 13.0625l94.152344 69.734375c8.671875 6.421875 12.28125 17.695313 8.980469 28.058594l-35.964844 112.835937c-1.917969 6.011719.941406 10.6875 4.253906 13.058594 1.507812 1.085938 6.910156 4.28125 12.859375-.113281l94.152344-69.738281c4.375-3.238282 9.511719-4.863282 14.636719-4.863282" fill="#54596e"/><path d="m35.695312 158.503906-9.941406 1.296875-.882812.054688c-5.894532 0-9.320313 4.027343-10.5625 7.796875-1.292969 3.90625-.90625 9.394531 4.050781 13.0625l94.152344 69.738281c1.878906 1.390625 3.519531 3.007813 4.90625 4.796875l4.855469-15.238281c2.40625-7.554688-.230469-15.832031-6.535157-20.5z" fill="#e6dc61"/><path d="m27.980469 152.621094-3.109375.40625c-17.425782 0-24.667969 22.734375-10.574219 33.175781l100.746094 76.5 2.375-7.453125c-1.382813-1.789062-3.023438-3.40625-4.902344-4.796875l-94.152344-69.738281c-4.957031-3.667969-5.34375-9.15625-4.054687-13.0625 1.242187-3.769532 4.667968-7.796875 10.5625-7.796875l.882812-.054688 9.941406-1.296875z" fill="#54596e"/><path d="m211.433594 292.828125c-3.710938 0-7.421875 1.167969-10.574219 3.5l-94.15625 69.738281c-3.34375 2.476563-6.957031 3.566406-10.453125 3.566406-1.246094 0-2.476562-.140624-3.671875-.402343l-7.050781 22.117187c-1.917969 6.011719.941406 10.6875 4.253906 13.058594.929688.671875 3.339844 2.140625 6.445312 2.140625 1.929688 0 4.132813-.570313 6.414063-2.257813l94.152344-69.734374c4.378906-3.242188 9.511719-4.867188 14.636719-4.867188 5.132812 0 10.261718 1.625 14.636718 4.867188l94.15625 69.734374c2.28125 1.691407 4.484375 2.261719 6.417969 2.261719 3.101563 0 5.511719-1.472656 6.441406-2.144531 3.3125-2.371094 6.167969-7.046875 4.253907-13.058594l-7.046876-22.117187c-1.199218.261719-2.429687.398437-3.675781.398437-3.496093 0-7.109375-1.085937-10.453125-3.566406l-94.15625-69.734375c-3.152344-2.332031-6.863281-3.5-10.570312-3.5" fill="#e6dc61"/><path d="m211.429688 329.691406c-5.125 0-10.261719 1.625-14.636719 4.867188l-94.152344 69.734375c-2.28125 1.6875-4.484375 2.257812-6.414063 2.257812-3.105468 0-5.515624-1.472656-6.445312-2.140625-3.3125-2.371094-6.171875-7.046875-4.253906-13.058594l7.050781-22.117187c-2.253906-.492187-4.390625-1.425781-6.300781-2.714844l-7.253906 22.757813c-4.101563 12.871094 5.925781 24.089844 17.167968 24.089844 3.519532 0 7.152344-1.097657 10.511719-3.585938l94.152344-69.738281c3.15625-2.332031 6.863281-3.5 10.574219-3.5 3.710937 0 7.421874 1.167969 10.574218 3.5l94.15625 69.738281c3.359375 2.484375 6.992188 3.585938 10.507813 3.585938 11.246093 0 21.273437-11.21875 17.171875-24.089844l-7.253906-22.757813c-1.910157 1.285157-4.046876 2.21875-6.300782 2.714844l7.050782 22.117187c1.914062 6.011719-.941407 10.6875-4.257813 13.058594-.929687.671875-3.339844 2.144532-6.441406 2.144532-1.929688 0-4.132813-.570313-6.414063-2.261719l-94.15625-69.734375c-4.375-3.242188-9.503906-4.867188-14.636718-4.867188" fill="#54596e"/><path d="m387.171875 158.503906-80.042969 61.007813c-6.308594 4.667969-8.945312 12.945312-6.539062 20.5l4.859375 15.234375c1.382812-1.785156 3.023437-3.402344 4.898437-4.792969l94.15625-69.738281c4.957032-3.667969 5.34375-9.15625 4.054688-13.0625-1.242188-3.769532-4.667969-7.796875-10.5625-7.796875l-.886719-.054688z" fill="#e6dc61"/><path d="m394.886719 152.621094-7.714844 5.882812 9.9375 1.296875.886719.054688c5.894531 0 9.320312 4.027343 10.5625 7.796875 1.289062 3.90625.902344 9.394531-4.054688 13.0625l-94.15625 69.738281c-1.875 1.390625-3.515625 3.007813-4.898437 4.792969l2.378906 7.457031 100.742187-76.5c14.097657-10.441406 6.851563-33.175781-10.574218-33.175781z" fill="#54596e"/><path d="m252.941406 194.992188c0 5.65625-4.582031 10.242187-10.238281 10.242187s-10.238281-4.585937-10.238281-10.242187 4.582031-10.238282 10.238281-10.238282 10.238281 4.582032 10.238281 10.238282zm0 0" fill="#54596e"/><path d="m191.503906 194.992188c0 5.65625-4.585937 10.242187-10.242187 10.242187-5.652344 0-10.238281-4.585937-10.238281-10.242187s4.585937-10.238282 10.238281-10.238282c5.65625 0 10.242187 4.582032 10.242187 10.238282zm0 0" fill="#54596e"/><path d="m211.984375 232.539062c-10.082031 0-18.792969-5.527343-23.519531-13.652343-2.347656 4.027343-3.789063 8.652343-3.789063 13.652343 0 15.082032 12.226563 27.308594 27.308594 27.308594 15.078125 0 27.304687-12.226562 27.304687-27.308594 0-5-1.441406-9.625-3.785156-13.652343-4.730468 8.125-13.4375 13.652343-23.519531 13.652343zm0 0" fill="#54596e"/><path d="m190.164062 132.035156-53.023437 6.347656" fill="#fff35f"/><path d="m137.128906 145.207031c-3.40625 0-6.351562-2.542969-6.765625-6.015625-.449219-3.742187 2.222657-7.140625 5.96875-7.585937l53.019531-6.347657c3.671876-.453124 7.144532 2.222657 7.585938 5.96875.453125 3.742188-2.222656 7.140626-5.964844 7.585938l-53.023437 6.347656zm0 0" fill="#54596e"/><g fill="#fff"><path d="m89.101562 174.511719c0 5.65625-4.582031 10.242187-10.238281 10.242187s-10.238281-4.585937-10.238281-10.242187 4.582031-10.238281 10.238281-10.238281 10.238281 4.582031 10.238281 10.238281zm0 0"/><path d="m123.238281 188.164062c0 5.65625-4.585937 10.242188-10.242187 10.242188s-10.238282-4.585938-10.238282-10.242188c0-5.652343 4.582032-10.238281 10.238282-10.238281s10.242187 4.585938 10.242187 10.238281zm0 0"/><path d="m157.371094 201.820312c0 5.652344-4.585938 10.238282-10.242188 10.238282s-10.238281-4.585938-10.238281-10.238282c0-5.65625 4.582031-10.242187 10.238281-10.242187s10.242188 4.585937 10.242188 10.242187zm0 0"/><path d="m225.636719 65.285156c0 5.65625-4.585938 10.242188-10.238281 10.242188-5.65625 0-10.242188-4.585938-10.242188-10.242188s4.585938-10.238281 10.242188-10.238281c5.652343 0 10.238281 4.582031 10.238281 10.238281zm0 0"/><path d="m225.636719 99.417969c0 5.65625-4.585938 10.242187-10.238281 10.242187-5.65625 0-10.242188-4.585937-10.242188-10.242187 0-5.652344 4.585938-10.238281 10.242188-10.238281 5.652343 0 10.238281 4.585937 10.238281 10.238281zm0 0"/><path d="m225.636719 140.378906c0 5.65625-4.585938 10.238282-10.238281 10.238282-5.65625 0-10.242188-4.582032-10.242188-10.238282s4.585938-10.238281 10.242188-10.238281c5.652343 0 10.238281 4.582031 10.238281 10.238281zm0 0"/></g></svg>