<svg height="436.90667pt" viewBox="0 0 436.90667 436.90667" width="436.90667pt" xmlns="http://www.w3.org/2000/svg"><path d="m320.851562 163.839844c0-86.714844-70.300781-157.011719-157.011718-157.011719-86.714844 0-157.011719 70.296875-157.011719 157.011719 0 86.71875 70.296875 157.011718 157.011719 157.011718 86.710937 0 157.011718-70.292968 157.011718-157.011718" fill="#fff35f"/><path d="m163.839844 327.679688c-90.339844 0-163.839844-73.5-163.839844-163.839844s73.5-163.839844 163.839844-163.839844 163.839844 73.5 163.839844 163.839844-73.5 163.839844-163.839844 163.839844m0-314.027344c-82.8125 0-150.1875 67.375-150.1875 150.1875s67.375 150.1875 150.1875 150.1875 150.183594-67.375 150.183594-150.1875-67.371094-150.1875-150.183594-150.1875" fill="#54596e"/><path d="m37.136719 244.402344c18.859375 29.550781 47.765625 52.101562 81.867187 62.789062-1.808594-9.28125-2.8125-18.84375-2.933594-28.621094-29.730468-3.875-56.84375-16.070312-78.933593-34.167968m249.863281-166.425782c3.710938 12.414063 5.929688 25.46875 6.4375 38.96875 4.644531.488282 9.234375 1.179688 13.753906 2.058594-4.632812-14.785156-11.496094-28.589844-20.191406-41.027344" fill="#eee361"/><g fill="#54596e"><path d="m21.140625 229.324219c18.957031 41.242187 55.25 72.875 99.546875 85.519531-.621094-2.527344-1.183594-5.082031-1.683594-7.652344-34.101562-10.6875-63.007812-33.238281-81.867187-62.789062-5.679688-4.648438-11.023438-9.691406-15.996094-15.078125m258.089844-171.925781c3.046875 6.625 5.648437 13.496093 7.769531 20.578124 8.695312 12.4375 15.554688 26.242188 20.191406 41.027344 2.570313.5 5.125 1.0625 7.648438 1.6875-6.828125-23.921875-19.1875-45.507812-35.609375-63.292968"/><path d="m204.800781 116.054688c0 7.539062-6.113281 13.652343-13.652343 13.652343-7.542969 0-13.65625-6.113281-13.65625-13.652343 0-7.542969 6.113281-13.65625 13.65625-13.65625 7.539062 0 13.652343 6.113281 13.652343 13.65625zm0 0"/><path d="m61.441406 116.054688c0 7.539062-6.113281 13.652343-13.65625 13.652343-7.539062 0-13.652344-6.113281-13.652344-13.652343 0-7.542969 6.113282-13.65625 13.652344-13.65625 7.542969 0 13.65625 6.113281 13.65625 13.65625zm0 0"/><path d="m163.839844 165.046875c-.105469-10.710937-95.46875-10.710937-95.574219 0v.226563c0 18.058593 21.394531 32.699218 47.789063 32.699218 26.390624 0 47.785156-14.640625 47.785156-32.699218zm0 0"/></g><path d="m136.535156 177.492188c0-3.769532-9.171875-6.824219-20.480468-6.824219-11.3125 0-20.480469 3.054687-20.480469 6.824219 0 3.769531 9.167969 6.828124 20.480469 6.828124 11.308593 0 20.480468-3.058593 20.480468-6.828124zm0 0" fill="#ff927d"/><path d="m430.078125 276.480469c0-84.832031-68.765625-153.601563-153.601563-153.601563-84.832031 0-153.597656 68.769532-153.597656 153.601563 0 84.828125 68.765625 153.597656 153.597656 153.597656 84.835938 0 153.601563-68.769531 153.601563-153.597656" fill="#61c5a8"/><path d="m276.476562 436.90625c-88.457031 0-160.425781-71.964844-160.425781-160.425781 0-88.460938 71.96875-160.425781 160.425781-160.425781 88.464844 0 160.429688 71.964843 160.429688 160.425781 0 88.460937-71.964844 160.425781-160.429688 160.425781m0-307.199219c-80.929687 0-146.773437 65.84375-146.773437 146.773438 0 80.929687 65.839844 146.773437 146.773437 146.773437 80.9375 0 146.777344-65.84375 146.777344-146.773437 0-80.929688-65.839844-146.773438-146.777344-146.773438" fill="#54596e"/><path d="m354.726562 152.347656c21.496094 26.421875 34.394532 60.109375 34.394532 96.824219 0 84.832031-68.769532 153.601563-153.601563 153.601563-15.082031 0-29.644531-2.191407-43.410156-6.25 23.882813 16.835937 52.992187 26.730468 84.371094 26.730468 80.933593 0 146.773437-65.84375 146.773437-146.773437 0-52.1875-27.378906-98.101563-68.527344-124.132813" fill="#5fb59f"/><path d="m340.027344 136.652344c5.253906 4.882812 10.167968 10.128906 14.699218 15.699218 41.148438 26.027344 68.527344 71.941407 68.527344 124.128907 0 80.929687-65.839844 146.773437-146.777344 146.773437-31.375 0-60.484374-9.898437-84.367187-26.730468-6.929687-2.046876-13.65625-4.566407-20.144531-7.519532 27.421875 25.472656 64.136718 41.074219 104.511718 41.074219 84.835938 0 153.601563-68.769531 153.601563-153.597656 0-62.15625-36.9375-115.65625-90.050781-139.828125" fill="#54596e"/><path d="m225.28125 211.625c-11.316406 0-20.480469 9.171875-20.480469 20.480469 0 11.3125 9.164063 20.480469 20.480469 20.480469 11.3125 0 20.480469-9.167969 20.480469-20.480469 0-11.308594-9.167969-20.480469-20.480469-20.480469" fill="#5fb59f"/><path d="m245.761719 314.027344c-15.082031 0-27.308594 12.226562-27.308594 27.304687 0 15.082031 12.226563 27.308594 27.308594 27.308594 15.078125 0 27.304687-12.226563 27.304687-27.308594 0-15.078125-12.226562-27.304687-27.304687-27.304687" fill="#5fb59f"/><path d="m334.503906 211.625c-11.3125 0-20.480468 9.171875-20.480468 20.480469 0 11.3125 9.167968 20.480469 20.480468 20.480469 11.316406 0 20.480469-9.167969 20.480469-20.480469.003906-11.308594-9.164063-20.480469-20.480469-20.480469" fill="#5fb59f"/></svg>