<svg height="395pt" viewBox="0 0 395.94723 395" width="395pt" xmlns="http://www.w3.org/2000/svg"><path d="m230.015625 14.820312c27.21875-30.152343 77.21875-9.4375 75.144531 31.125-1.296875 25.546876 19.765625 46.617188 45.316406 45.3125 40.566407-2.070312 61.273438 47.929688 31.125 75.148438-18.988281 17.140625-18.988281 46.941406 0 64.078125 30.148438 27.222656 9.4375 77.222656-31.125 75.152344-25.550781-1.304688-46.613281 19.761719-45.316406 45.308593 2.074219 40.566407-47.925781 61.277344-75.144531 31.128907-17.140625-18.988281-46.9375-18.988281-64.082031 0-27.21875 30.148437-77.21875 9.4375-75.148438-31.128907 1.300782-25.546874-19.765625-46.613281-45.3125-45.308593-40.566406 2.070312-61.273437-47.929688-31.128906-75.152344 18.988281-17.136719 18.988281-46.9375 0-64.078125-30.144531-27.21875-9.4375-77.21875 31.128906-75.148438 25.546875 1.304688 46.613282-19.765624 45.3125-45.3125-2.070312-40.5625 47.929688-61.277343 75.148438-31.125 17.144531 18.984376 46.941406 18.984376 64.082031 0" fill="#ff927d"/><path d="m348.164062 198.445312c0-82.945312-67.242187-150.183593-150.1875-150.183593-82.949218 0-150.1875 67.238281-150.1875 150.183593 0 82.949219 67.238282 150.1875 150.1875 150.1875 82.945313 0 150.1875-67.238281 150.1875-150.1875" fill="#fff35f"/><path d="m197.976562 355.460938c-86.582031 0-157.015624-70.4375-157.015624-157.015626 0-86.574218 70.433593-157.011718 157.015624-157.011718 86.578126 0 157.011719 70.4375 157.011719 157.011718 0 86.578126-70.433593 157.015626-157.011719 157.015626m0-300.375c-79.046874 0-143.359374 64.3125-143.359374 143.359374 0 79.050782 64.3125 143.363282 143.359374 143.363282 79.046876 0 143.359376-64.3125 143.359376-143.363282 0-79.050781-64.3125-143.359374-143.359376-143.359374" fill="#54596e"/><path d="m54.671875 202.421875c2.113281 77.21875 65.589844 139.386719 143.304687 139.386719 77.714844 0 141.1875-62.167969 143.304688-139.382813-19.097656 60.988281-76.015625 105.246094-143.304688 105.246094-67.289062 0-124.210937-44.257813-143.304687-105.25" fill="#e6dc61"/><g fill="#54596e"><path d="m346.734375 177.96875c-1.144531 8.390625-2.980469 16.566406-5.453125 24.457031-2.117188 77.214844-65.589844 139.382813-143.304688 139.382813-77.714843 0-141.191406-62.167969-143.304687-139.386719-2.472656-7.890625-4.3125-16.066406-5.457031-24.457031-.914063 6.699218-1.425782 13.53125-1.425782 20.480468 0 82.949219 67.238282 150.1875 150.1875 150.1875 82.945313 0 150.1875-67.238281 150.1875-150.1875 0-6.949218-.515624-13.78125-1.429687-20.476562"/><path d="m136.535156 137.007812c0 7.539063-6.113281 13.652344-13.652344 13.652344-7.542968 0-13.652343-6.113281-13.652343-13.652344 0-7.542968 6.109375-13.652343 13.652343-13.652343 7.539063 0 13.652344 6.109375 13.652344 13.652343zm0 0"/><path d="m286.722656 137.007812c0 7.539063-6.113281 13.652344-13.652344 13.652344-7.542968 0-13.65625-6.113281-13.65625-13.652344 0-7.542968 6.113282-13.652343 13.65625-13.652343 7.539063 0 13.652344 6.109375 13.652344 13.652343zm0 0"/><path d="m245.761719 192.828125c-.105469-10.710937-95.46875-10.710937-95.574219 0v.226563c0 18.058593 21.394531 32.699218 47.789062 32.699218 26.394532 0 47.785157-14.640625 47.785157-32.699218zm0 0"/></g><path d="m218.457031 205.273438c0-3.769532-9.171875-6.828126-20.480469-6.828126-11.3125 0-20.480468 3.058594-20.480468 6.828126 0 3.769531 9.167968 6.828124 20.480468 6.828124 11.308594 0 20.480469-3.058593 20.480469-6.828124zm0 0" fill="#ff927d"/></svg>