<svg height="413pt" viewBox="0 -3 413.01248 413" width="413pt" xmlns="http://www.w3.org/2000/svg"><path d="m402.773438 204.804688c0-26.132813-5.261719-51.035157-14.753907-73.726563.65625-2.636719 1.101563-5.351563 1.101563-8.191406 0-15.449219-10.328125-28.347657-24.40625-32.558594-34.863282-46.546875-90.457032-76.667969-153.089844-76.667969-37.011719 0-71.546875 10.550782-100.816406 28.765625-5.964844-5.097656-13.605469-8.285156-22.0625-8.285156-18.847656 0-34.132813 15.28125-34.132813 34.132813 0 7.191406 2.25 13.847656 6.054688 19.351562-21.875 28.136719-36.058594 62.53125-39.402344 100.0625-8.554687 4.609375-14.4375 13.539062-14.4375 23.945312 0 11.171876 6.722656 20.746094 16.335937 24.976563 4.46875 26.683594 14.457032 51.488281 28.769532 73.210937-2.628906 5.402344-4.148438 11.449219-4.148438 17.863282 0 22.621094 18.339844 40.960937 40.960938 40.960937 6.414062 0 12.464844-1.515625 17.867187-4.144531 30.144531 19.863281 66.21875 31.453125 105.011719 31.453125 45.632812 0 87.515625-16.019531 120.382812-42.703125 2.921876 1.066406 6.035157 1.742188 9.324219 1.742188 15.082031 0 27.308594-12.226563 27.308594-27.308594 0-3.832032-.804687-7.472656-2.226563-10.78125 22.847657-31.496094 36.359376-70.210938 36.359376-112.097656" fill="#ff927d"/><path d="m211.625 402.777344c-37.566406 0-74.007812-10.550782-105.640625-30.554688-5.519531 2.15625-11.300781 3.25-17.238281 3.25-26.351563 0-47.785156-21.4375-47.785156-47.789062 0-5.9375 1.09375-11.71875 3.25-17.238282-13.46875-21.28125-22.597657-44.5625-27.183594-69.308593-10.453125-6.058594-17.027344-17.265625-17.027344-29.503907 0-11.230468 5.585938-21.648437 14.804688-27.988281 3.730468-34.972656 16.679687-68.160156 37.632812-96.460937-3.054688-5.828125-4.652344-12.277344-4.652344-18.910156 0-22.585938 18.375-40.960938 40.960938-40.960938 7.949218 0 15.765625 2.417969 22.472656 6.882812 30.382812-17.917968 64.996094-27.363281 100.40625-27.363281 62.246094 0 119.429688 28.28125 157.246094 77.679688 16.289062 5.851562 27.074218 20.996093 27.074218 38.375 0 2.414062-.257812 4.914062-.792968 7.582031 9.585937 23.644531 14.449218 48.636719 14.449218 74.335938 0 40.78125-12.285156 79.820312-35.554687 113.148437.941406 3.152344 1.417969 6.414063 1.417969 9.730469.003906 21.414062-20.128906 38.585937-42.011719 33.140625-34.65625 27.082031-77.769531 41.953125-121.828125 41.953125m-105.011719-45.105469c1.316407 0 2.625.378906 3.757813 1.128906 30.105468 19.835938 65.121094 30.324219 101.253906 30.324219 42.152344 0 83.375-14.621094 116.078125-41.171875 1.871094-1.511719 4.398437-1.929687 6.644531-1.113281 2.445313.890625 4.730469 1.324218 6.984375 1.324218 11.292969 0 20.480469-9.1875 20.480469-20.480468 0-2.785156-.5625-5.503906-1.671875-8.078125-.949219-2.214844-.667969-4.757813.746094-6.710938 22.9375-31.613281 35.058593-68.992187 35.058593-108.089843 0-24.613282-4.785156-48.535157-14.222656-71.09375-.566406-1.351563-.683594-2.847657-.328125-4.273438.613281-2.476562.902344-4.558594.902344-6.550781 0-12.070313-7.851563-22.523438-19.539063-26.019531-1.398437-.417969-2.628906-1.273438-3.507812-2.445313-35.191406-46.988281-89-73.9375-147.625-73.9375-34.433594 0-68.046875 9.589844-97.210938 27.738281-2.523437 1.570313-5.777343 1.324219-8.042968-.605468-5.089844-4.351563-11.183594-6.652344-17.625-6.652344-15.054688 0-27.304688 12.25-27.304688 27.308594 0 5.535156 1.671875 10.886718 4.84375 15.472656 1.691406 2.449218 1.601563 5.714844-.230468 8.070312-21.71875 27.9375-34.855469 61.300782-37.988282 96.476563-.203125 2.28125-1.542968 4.3125-3.5625 5.402343-6.691406 3.609376-10.851562 10.480469-10.851562 17.9375 0 8.097657 4.8125 15.449219 12.261718 18.726563 2.105469.929687 3.601563 2.851563 3.984376 5.121094 4.246093 25.347656 13.574218 49.09375 27.734374 70.578125 1.328126 2.015625 1.496094 4.578125.4375 6.746094-2.292968 4.71875-3.457031 9.71875-3.457031 14.878906 0 18.820312 15.3125 34.136718 34.132813 34.136718 5.160156 0 10.164062-1.164062 14.882812-3.457031.945313-.464843 1.964844-.691406 2.984375-.691406" fill="#54596e"/><path d="m368.640625 204.804688c0-86.714844-70.296875-157.011719-157.015625-157.011719-86.714844 0-157.011719 70.296875-157.011719 157.011719 0 86.71875 70.296875 157.015624 157.011719 157.015624 86.71875 0 157.015625-70.296874 157.015625-157.015624" fill="#fff35f"/><path d="m211.625 368.644531c-90.339844 0-163.839844-73.5-163.839844-163.839843 0-90.339844 73.5-163.839844 163.839844-163.839844s163.839844 73.5 163.839844 163.839844c0 90.339843-73.496094 163.839843-163.839844 163.839843m0-314.027343c-82.8125 0-150.183594 67.375-150.183594 150.1875 0 82.816406 67.371094 150.1875 150.183594 150.1875s150.1875-67.371094 150.1875-150.1875c0-82.8125-67.375-150.1875-150.1875-150.1875" fill="#54596e"/><path d="m334.785156 118.941406c4.253906 14.222656 6.546875 29.292969 6.546875 44.902344 0 86.71875-70.296875 157.015625-157.011719 157.015625-37.722656 0-72.328124-13.316406-99.394531-35.488281 26.691407 41.824218 73.511719 69.621094 126.699219 69.621094 82.8125 0 150.1875-67.371094 150.1875-150.1875 0-31.902344-9.996094-61.515626-27.027344-85.863282" fill="#eee361"/><g fill="#54596e"><path d="m327.019531 98.363281c3.046875 6.625 5.648438 13.496094 7.765625 20.578125 17.03125 24.347656 27.027344 53.960938 27.027344 85.863282 0 82.816406-67.375 150.1875-150.1875 150.1875-53.1875 0-100.007812-27.796876-126.703125-69.621094-5.675781-4.652344-11.023437-9.691406-15.996094-15.082032 24.828125 54.007813 79.363281 91.53125 142.699219 91.53125 86.71875 0 157.015625-70.300781 157.015625-157.015624 0-41.078126-15.792969-78.460938-41.621094-106.441407"/><path d="m252.585938 157.019531c0 7.539063-6.113282 13.652344-13.652344 13.652344-7.539063 0-13.652344-6.113281-13.652344-13.652344 0-7.542969 6.113281-13.652343 13.652344-13.652343 7.539062 0 13.652344 6.109374 13.652344 13.652343zm0 0"/><path d="m109.226562 157.019531c0 7.539063-6.113281 13.652344-13.652343 13.652344-7.542969 0-13.652344-6.113281-13.652344-13.652344 0-7.542969 6.109375-13.652343 13.652344-13.652343 7.539062 0 13.652343 6.109374 13.652343 13.652343zm0 0"/><path d="m211.625 206.011719c-.105469-10.710938-95.464844-10.710938-95.570312 0v.226562c0 18.0625 21.390624 32.699219 47.785156 32.699219 26.394531 0 47.785156-14.636719 47.785156-32.699219zm0 0"/></g><path d="m184.320312 218.457031c0-3.769531-9.167968-6.824219-20.480468-6.824219s-20.480469 3.054688-20.480469 6.824219c0 3.773438 9.167969 6.828125 20.480469 6.828125s20.480468-3.054687 20.480468-6.828125zm0 0" fill="#ff927d"/><path d="m44.375 37.550781c-1.746094 0-3.496094-.667969-4.828125-2l-23.894531-23.890625c-2.664063-2.667968-2.664063-6.988281 0-9.65625 2.667968-2.664062 6.988281-2.664062 9.652344 0l23.894531 23.894532c2.667969 2.667968 2.667969 6.988281 0 9.652343-1.332031 1.332031-3.078125 2-4.824219 2zm0 0" fill="#fff35f"/><path d="m406.1875 399.367188c-1.746094 0-3.496094-.667969-4.828125-2.003907l-23.890625-23.890625c-2.667969-2.667968-2.667969-6.988281 0-9.652344 2.664062-2.667968 6.984375-2.667968 9.652344 0l23.890625 23.890626c2.667969 2.667968 2.667969 6.988281 0 9.652343-1.332031 1.335938-3.078125 2.003907-4.824219 2.003907zm0 0" fill="#fff35f"/><path d="m13.652344 406.191406c-1.746094 0-3.492188-.667968-4.824219-2-2.667969-2.664062-2.667969-6.988281 0-9.652344l23.890625-23.894531c2.667969-2.664062 6.988281-2.664062 9.65625 0 2.664062 2.667969 2.664062 6.988281 0 9.652344l-23.894531 23.894531c-1.332031 1.332032-3.082031 2-4.828125 2zm0 0" fill="#fff35f"/><path d="m361.8125 58.03125c-1.746094 0-3.492188-.667969-4.824219-2-2.667969-2.664062-2.667969-6.988281 0-9.652344l44.371094-44.375c2.667969-2.664062 6.988281-2.664062 9.652344 0 2.667969 2.667969 2.667969 6.988282 0 9.65625l-44.371094 44.371094c-1.332031 1.332031-3.082031 2-4.828125 2zm0 0" fill="#fff35f"/></svg>