<svg height="436pt" viewBox="0 -10 436.90667 436" width="436pt" xmlns="http://www.w3.org/2000/svg"><path d="m430.078125 191.601562v40.957032c0 15.082031-94.75 27.308594-211.625 27.308594s-211.625-12.226563-211.625-27.308594v-40.957032" fill="#54596e"/><path d="m218.453125 266.691406c-56.808594 0-110.261719-2.859375-150.515625-8.050781-59.707031-7.707031-67.9375-17.085937-67.9375-26.082031v-40.957032h13.652344v39.953126c8.800781 8.933593 85.214844 21.484374 204.800781 21.484374s196-12.550781 204.800781-21.484374v-39.953126h13.652344v40.957032c0 8.996094-8.230469 18.375-67.9375 26.082031-40.253906 5.191406-93.707031 8.050781-150.515625 8.050781zm0 0" fill="#54596e"/><path d="m430.078125 191.601562c0-15.082031-94.746094-27.308593-211.625-27.308593s-211.625 12.226562-211.625 27.308593c0 15.078126 94.746094 27.304688 211.625 27.304688s211.625-12.226562 211.625-27.304688zm0 0" fill="#55a6ff"/><path d="m218.453125 225.734375c-56.808594 0-110.261719-2.863281-150.515625-8.054687-59.707031-7.707032-67.9375-17.085938-67.9375-26.078126 0-8.996093 8.230469-18.375 67.9375-26.082031 40.253906-5.191406 93.707031-8.054687 150.515625-8.054687s110.261719 2.863281 150.515625 8.054687c59.707031 7.707031 67.9375 17.085938 67.9375 26.082031 0 8.992188-8.230469 18.371094-67.9375 26.078126-40.253906 5.191406-93.707031 8.054687-150.515625 8.054687zm-203.546875-34.132813c13.261719 8.839844 88.386719 20.476563 203.546875 20.476563s190.285156-11.636719 203.546875-20.476563c-13.261719-8.84375-88.386719-20.480468-203.546875-20.480468s-190.28125 11.636718-203.546875 20.480468zm408.722656 1.433594h.066406zm0 0" fill="#54596e"/><path d="m430.078125 191.601562c0-33.933593-94.75-61.441406-211.625-61.441406s-211.625 27.507813-211.625 61.441406" fill="#55a6ff"/><path d="m430.078125 198.425781c-3.769531 0-6.824219-3.054687-6.824219-6.824219 0-25.832031-84.109375-54.613281-204.800781-54.613281s-204.800781 28.78125-204.800781 54.613281c0 3.769532-3.054688 6.824219-6.824219 6.824219-3.773437 0-6.828125-3.054687-6.828125-6.824219 0-44.339843 112.554688-68.269531 218.453125-68.269531 105.902344 0 218.453125 23.929688 218.453125 68.269531 0 3.769532-3.054688 6.824219-6.828125 6.824219zm0 0" fill="#54596e"/><path d="m307.199219 164.292969v-68.265625c0-49.015625-39.730469-88.746094-88.746094-88.746094-49.011719 0-88.746094 39.730469-88.746094 88.746094v68.265625zm0 0" fill="#fff"/><path d="m307.199219 171.121094h-177.492188c-3.769531 0-6.828125-3.058594-6.828125-6.828125v-68.265625c0-52.699219 42.875-95.574219 95.574219-95.574219s95.574219 42.875 95.574219 95.574219v68.265625c0 3.769531-3.058594 6.828125-6.828125 6.828125zm-170.664063-13.65625h163.839844v-61.4375c0-45.171875-36.75-81.921875-81.921875-81.921875s-81.917969 36.75-81.917969 81.921875zm0 0" fill="#54596e"/><path d="m40.960938 225.734375c0 3.769531-3.058594 6.824219-6.828126 6.824219-3.769531 0-6.824218-3.054688-6.824218-6.824219s3.054687-6.828125 6.824218-6.828125c3.769532 0 6.828126 3.058594 6.828126 6.828125zm0 0" fill="#ff927d"/><path d="m81.921875 232.558594c0 3.773437-3.058594 6.828125-6.828125 6.828125s-6.828125-3.054688-6.828125-6.828125c0-3.769532 3.058594-6.824219 6.828125-6.824219s6.828125 3.054687 6.828125 6.824219zm0 0" fill="#84ff61"/><path d="m177.492188 239.386719c0 3.769531-3.054688 6.828125-6.824219 6.828125-3.773438 0-6.828125-3.058594-6.828125-6.828125s3.054687-6.828125 6.828125-6.828125c3.769531 0 6.824219 3.058594 6.824219 6.828125zm0 0" fill="#fff35f"/><path d="m225.28125 239.386719c0 3.769531-3.058594 6.828125-6.828125 6.828125s-6.828125-3.058594-6.828125-6.828125 3.058594-6.828125 6.828125-6.828125 6.828125 3.058594 6.828125 6.828125zm0 0" fill="#ff927d"/><path d="m129.707031 236.261719c0 3.769531-3.058593 6.824219-6.828125 6.824219-3.769531 0-6.824218-3.054688-6.824218-6.824219 0-3.773438 3.054687-6.828125 6.824218-6.828125 3.769532 0 6.828125 3.054687 6.828125 6.828125zm0 0" fill="#ff927d"/><path d="m409.601562 225.734375c0 3.769531-3.058593 6.824219-6.828124 6.824219-3.769532 0-6.828126-3.054688-6.828126-6.824219s3.058594-6.828125 6.828126-6.828125c3.769531 0 6.828124 3.058594 6.828124 6.828125zm0 0" fill="#61c5a8"/><path d="m368.640625 232.558594c0 3.773437-3.058594 6.828125-6.828125 6.828125s-6.824219-3.054688-6.824219-6.828125c0-3.769532 3.054688-6.824219 6.824219-6.824219s6.828125 3.054687 6.828125 6.824219zm0 0" fill="#55a6ff"/><path d="m273.066406 239.386719c0 3.769531-3.054687 6.828125-6.828125 6.828125-3.769531 0-6.824219-3.058594-6.824219-6.828125s3.054688-6.828125 6.824219-6.828125c3.773438 0 6.828125 3.058594 6.828125 6.828125zm0 0" fill="#f4a14e"/><path d="m320.851562 236.261719c0 3.769531-3.054687 6.824219-6.824218 6.824219-3.769532 0-6.828125-3.054688-6.828125-6.824219 0-3.773438 3.058593-6.828125 6.828125-6.828125 3.769531 0 6.824218 3.054687 6.824218 6.828125zm0 0" fill="#ff927d"/><path d="m255.070312 280.347656h-22.964843l20.480469 136.53125h-75.09375l20.480468-136.53125h-22.960937l-93.089844 136.53125h266.238281z" fill="#dddee2"/><path d="m273.066406 164.292969v-61.441407c0-30.160156-24.449218-54.613281-54.613281-54.613281s-54.613281 24.453125-54.613281 54.613281v61.441407zm0 0" fill="#ff927d"/><path d="m273.066406 171.121094h-109.226562c-3.769532 0-6.828125-3.058594-6.828125-6.828125v-61.441407c0-33.875 27.5625-61.4375 61.441406-61.4375s61.441406 27.5625 61.441406 61.4375v61.441407c0 3.769531-3.058593 6.828125-6.828125 6.828125zm-102.398437-13.65625h95.570312v-54.613282c0-26.347656-21.4375-47.785156-47.785156-47.785156s-47.785156 21.4375-47.785156 47.785156zm0 0" fill="#54596e"/><path d="m252.585938 109.679688c0 18.851562-15.28125 34.132812-34.132813 34.132812s-34.132813-15.28125-34.132813-34.132812c0-18.851563 15.28125-34.132813 34.132813-34.132813s34.132813 15.28125 34.132813 34.132813zm0 0" fill="#fff"/><path d="m218.453125 150.640625c-22.585937 0-40.960937-18.375-40.960937-40.960937 0-22.585938 18.375-40.960938 40.960937-40.960938s40.960937 18.375 40.960937 40.960938c0 22.585937-18.375 40.960937-40.960937 40.960937zm0-68.265625c-15.054687 0-27.304687 12.25-27.304687 27.304688 0 15.054687 12.25 27.308593 27.304687 27.308593s27.308594-12.253906 27.308594-27.308593c0-15.054688-12.253907-27.304688-27.308594-27.304688zm0 0" fill="#54596e"/><path d="m232.105469 109.679688c0 7.539062-6.113281 13.652343-13.652344 13.652343s-13.652344-6.113281-13.652344-13.652343c0-7.539063 6.113281-13.652344 13.652344-13.652344s13.652344 6.113281 13.652344 13.652344zm0 0" fill="#54596e"/><path d="m232.105469 102.851562c0 3.773438-3.054688 6.828126-6.824219 6.828126-3.773438 0-6.828125-3.054688-6.828125-6.828126 0-3.769531 3.054687-6.824218 6.828125-6.824218 3.769531 0 6.824219 3.054687 6.824219 6.824218zm0 0" fill="#fff"/><path d="m232.105469 280.347656h-34.132813l-20.480468 136.53125h75.09375z" fill="#c1c3cb"/></svg>