<svg height="396pt" viewBox="0 -5 396.06016 396" width="396pt" xmlns="http://www.w3.org/2000/svg"><path d="m21.796875 352.402344c-19.964844-19.964844-19.964844-52.441406 0-72.410156l2.414063-2.410157c5.328124-5.332031 13.976562-5.332031 19.304687 0 5.332031 5.332031 5.332031 13.972657 0 19.308594l-2.414063 2.410156c-9.3125 9.316407-9.3125 24.480469 0 33.792969 9.316407 9.316406 24.476563 9.316406 33.792969 0l122.265625-122.265625c5.328125-5.332031 13.976563-5.332031 19.304688 0 5.335937 5.332031 5.335937 13.976563 0 19.308594l-122.261719 122.265625c-19.960937 19.964844-52.441406 19.964844-72.40625 0zm0 0" fill="#61c5a8"/><path d="m58 374.199219c-14.859375 0-29.71875-5.65625-41.03125-16.96875-22.625-22.625-22.625-59.441407 0-82.0625l2.414062-2.414063c7.734376-7.734375 21.226563-7.734375 28.960938 0 7.988281 7.988282 7.988281 20.980469 0 28.964844l-2.414062 2.410156c-6.652344 6.65625-6.652344 17.484375 0 24.140625 6.433593 6.433594 17.703124 6.433594 24.136718 0l122.269532-122.265625c7.730468-7.738281 21.222656-7.738281 28.964843 0 3.867188 3.867188 5.996094 9.011719 5.996094 14.480469s-2.128906 10.613281-6 14.480469l-122.265625 122.265625c-11.3125 11.3125-26.171875 16.96875-41.03125 16.96875zm-24.136719-93.789063c-1.820312 0-3.535156.710938-4.824219 1.996094l-2.414062 2.414062c-17.300781 17.304688-17.300781 45.453126 0 62.753907s45.453125 17.300781 62.753906 0l122.265625-122.265625c1.289063-1.289063 2-3.003906 2-4.828125 0-1.820313-.710937-3.535157-2-4.820313-2.582031-2.589844-7.078125-2.585937-9.652343-.003906l-122.269532 122.261719c-5.792968 5.796875-13.507812 8.988281-21.722656 8.988281-8.210938 0-15.929688-3.1875-21.722656-8.988281-11.976563-11.976563-11.976563-31.464844 0-43.441407l2.414062-2.414062c2.660156-2.664062 2.660156-6.992188 0-9.65625-1.289062-1.285156-3.003906-1.996094-4.828125-1.996094zm0 0" fill="#54596e"/><path d="m341.972656 104.628906c5.335938-5.328125 5.335938-13.976562 0-19.304687-5.328125-5.332031-13.972656-5.332031-19.304687 0-5.332031 5.328125-5.332031 13.976562 0 19.304687 5.328125 5.335938 13.976562 5.335938 19.304687 0" fill="#54596e"/><path d="m332.320312 115.457031c-5.46875 0-10.613281-2.128906-14.480468-6-3.867188-3.867187-6-9.011719-6-14.480469s2.132812-10.613281 6.003906-14.480468c7.730469-7.734375 21.222656-7.738282 28.960938 0 3.867187 3.867187 6 9.011718 6 14.480468s-2.132813 10.613282-6 14.480469h-.003907v.003907c-3.867187 3.867187-9.007812 5.996093-14.480469 5.996093m0-27.304687c-1.820312 0-3.535156.707031-4.820312 2-1.296875 1.289062-2.003906 3.003906-2.003906 4.824218 0 1.824219.707031 3.535157 2 4.824219 2.578125 2.585938 7.078125 2.582031 9.648437.003907l.003907-.003907c1.289062-1.289062 2-3 2-4.824219 0-1.820312-.710938-3.535156-2-4.824218-1.289063-1.292969-3.003907-2-4.828126-2" fill="#54596e"/><path d="m112.683594 131.179688c21.410156 21.410156 34.308594 44.769531 33.390625 58.328124 13.554687-.917968 36.914062 11.980469 58.324219 33.390626 21.410156 21.410156 34.308593 44.769531 33.390624 58.324218 13.554688-.914062 36.917969 11.980469 58.328126 33.390625 25.570312 25.574219 38.984374 53.910157 31.210937 65.003907l.164063.164062c77.316406-77.316406 77.316406-202.664062 0-279.976562-77.3125-77.316407-202.664063-77.316407-279.976563 0l.164063.164062c11.09375-7.773438 39.429687 5.636719 65.003906 31.210938" fill="#fff35f"/><path d="m327.492188 386.605469c-1.746094 0-3.492188-.664063-4.824219-2-2.34375-2.339844-2.832031-6.191407-.929688-8.90625 4.4375-6.335938-4.996093-30.804688-30.449219-56.257813-21.519531-21.519531-42.941406-32.070312-53.039062-31.40625-1.960938.113282-3.898438-.59375-5.289062-1.984375-1.390626-1.394531-2.113282-3.320312-1.980469-5.289062.679687-10.066407-9.890625-31.523438-31.40625-53.039063-21.519531-21.515625-42.929688-32.050781-53.039063-31.40625-1.957031.125-3.898437-.585937-5.289062-1.980468-1.390625-1.394532-2.117188-3.320313-1.984375-5.289063.683593-10.070313-9.890625-31.523437-31.40625-53.039063-25.453125-25.445312-49.914063-34.882812-56.257813-30.449218-2.71875 1.902344-6.40625 1.570312-8.742187-.765625-2.667969-2.664063-2.832031-7.148438-.164063-9.816407 79.851563-79.859374 209.773438-79.851562 289.628906 0 79.851563 79.851563 79.851563 209.78125 0 289.628907-1.332031 1.335937-3.078124 2-4.828124 2m-83.246094-111.839844c15.804687 2.441406 37.152344 15.472656 56.699218 35.019531 15.558594 15.5625 29.574219 35.214844 34.011719 51.65625 61.992188-75.015625 57.890625-186.628906-12.289062-256.8125-70.175781-70.175781-181.792969-74.28125-256.808594-12.289062 16.4375 4.4375 36.089844 18.453125 51.652344 34.015625 19.550781 19.546875 32.582031 40.890625 35.019531 56.695312 15.804688 2.441407 37.148438 15.472657 56.695312 35.019531 19.550782 19.546876 32.578126 40.894532 35.019532 56.695313" fill="#54596e"/><path d="m48.945312 98.445312-1.425781 1.359376.160157.164062 1.753906-.933594z" fill="#54596e"/><path d="m324.738281 106.734375c33.25 69.0625 29.6875 151.394531-10.722656 217.597656 9.875 12.253907 17.800781 25.484375 20.941406 37.109375 61.371094-74.269531 57.960938-184.417968-10.21875-254.707031" fill="#ddd462"/><g fill="#54596e"><path d="m314.679688 88.121094c3.664062 6.074218 7.015624 12.289062 10.0625 18.613281 68.175781 70.289063 71.589843 180.4375 10.214843 254.707031-3.136719-11.625-11.0625-24.855468-20.9375-37.109375-1.253906 2.054688-2.542969 4.089844-3.871093 6.117188 16.101562 20.585937 23.367187 40.339843 17.179687 49.167969l.164063.164062c77.316406-77.316406 77.316406-202.664062 0-279.976562-4.128907-4.132813-8.421876-7.996094-12.8125-11.683594"/><path d="m272.398438 182.195312c-6.996094 0-13.988282-2.664062-19.3125-7.984374-10.644532-10.648438-10.644532-27.972657 0-38.617188 2.667968-2.667969 6.988281-2.667969 9.65625 0 2.664062 2.664062 2.664062 6.984375 0 9.652344-5.324219 5.320312-5.324219 13.984375 0 19.308594 5.328124 5.324218 13.984374 5.316406 19.308593 0 2.664063-2.667969 6.984375-2.667969 9.652344 0 2.664063 2.664062 2.664063 6.988281 0 9.652343-5.320313 5.328125-12.316406 7.988281-19.304687 7.988281zm0 0"/><path d="m339.976562 249.789062c-7.292968 0-14.152343-2.839843-19.308593-8-10.644531-10.640624-10.644531-27.964843 0-38.617187 2.660156-2.664063 6.988281-2.664063 9.652343 0 2.667969 2.664063 2.667969 6.988281 0 9.652344-5.320312 5.324219-5.324218 13.988281 0 19.3125 5.160157 5.15625 14.152344 5.15625 19.308594 0 2.660156-2.667969 6.988282-2.667969 9.652344 0 2.667969 2.664062 2.667969 6.984375 0 9.652343-5.152344 5.160157-12.011719 8-19.304688 8zm0 0"/><path d="m298.3125 270.96875c-3.171875 0-6.015625-2.222656-6.679688-5.449219-1.957031-9.484375-9.785156-21.988281-20.429687-32.632812-11.769531-11.765625-25.566406-19.9375-35.152344-20.808594-3.753906-.34375-6.519531-3.664063-6.179687-7.421875.34375-3.75 3.660156-6.484375 7.417968-6.179688 12.964844 1.183594 29.253907 10.4375 43.566407 24.757813 12.804687 12.804687 21.609375 27.210937 24.148437 39.527344.757813 3.691406-1.613281 7.300781-5.308594 8.066406zm0 0"/></g><path d="m191.261719 100.96875c0 12.121094-9.828125 21.941406-21.945313 21.941406-12.121094 0-21.941406-9.824218-21.941406-21.941406s17.554688-39.5 21.941406-39.5c4.386719 0 21.945313 27.382812 21.945313 39.5zm0 0" fill="#55a6ff"/><path d="m355.101562 169.234375c0 12.121094-9.828124 21.941406-21.945312 21.941406-12.121094 0-21.941406-9.824219-21.941406-21.941406s17.554687-39.496094 21.941406-39.496094 21.945312 27.378907 21.945312 39.496094zm0 0" fill="#55a6ff"/><path d="m245.875 53.179688c0 12.121093-9.828125 21.945312-21.945312 21.945312-12.121094 0-21.941407-9.824219-21.941407-21.945312 0-12.117188 17.554688-39.496094 21.941407-39.496094 4.386718 0 21.945312 27.378906 21.945312 39.496094zm0 0" fill="#55a6ff"/><path d="m396.058594 39.527344c0 12.121094-9.824219 21.941406-21.941406 21.941406-12.121094 0-21.941407-9.820312-21.941407-21.941406 0-12.117188 17.550781-39.496094 21.941407-39.496094 4.386718 0 21.941406 27.378906 21.941406 39.496094zm0 0" fill="#55a6ff"/></svg>