<svg height="428pt" viewBox="-9 0 428 428.90581" width="428pt" xmlns="http://www.w3.org/2000/svg"><path d="m167.703125 422.078125c-28.234375 0-51.199219-22.964844-51.199219-51.199219v-3.414062c0-7.539063 6.113282-13.652344 13.652344-13.652344s13.652344 6.113281 13.652344 13.652344v3.414062c0 13.175782 10.71875 23.894532 23.894531 23.894532 13.171875 0 23.894531-10.71875 23.894531-23.894532v-172.90625c0-7.539062 6.113282-13.652344 13.652344-13.652344s13.652344 6.113282 13.652344 13.652344v172.90625c0 28.234375-22.964844 51.199219-51.199219 51.199219" fill="#61c5a8"/><path d="m167.703125 428.90625c-31.996094 0-58.027344-26.03125-58.027344-58.027344v-3.414062c0-11.292969 9.1875-20.480469 20.480469-20.480469s20.480469 9.1875 20.480469 20.480469v3.414062c0 9.410156 7.65625 17.066406 17.066406 17.066406s17.066406-7.65625 17.066406-17.066406v-172.90625c0-11.292968 9.1875-20.480468 20.480469-20.480468s20.480469 9.1875 20.480469 20.480468v172.90625c0 31.996094-26.03125 58.027344-58.027344 58.027344m-37.546875-68.265625c-3.761719 0-6.828125 3.0625-6.828125 6.824219v3.414062c0 24.46875 19.90625 44.375 44.375 44.375 24.464844 0 44.371094-19.90625 44.371094-44.375v-172.90625c0-3.761718-3.0625-6.824218-6.824219-6.824218-3.765625 0-6.828125 3.0625-6.828125 6.824218v172.90625c0 16.941406-13.777344 30.71875-30.71875 30.71875s-30.71875-13.777344-30.71875-30.71875v-3.414062c0-3.761719-3.066406-6.824219-6.828125-6.824219" fill="#54596e"/><path d="m218.902344 20.480469c0 7.539062-6.113282 13.652343-13.652344 13.652343-7.542969 0-13.652344-6.113281-13.652344-13.652343 0-7.539063 6.109375-13.652344 13.652344-13.652344 7.539062 0 13.652344 6.113281 13.652344 13.652344zm0 0" fill="#54596e"/><path d="m205.25 40.960938c-11.292969 0-20.480469-9.1875-20.480469-20.480469s9.1875-20.480469 20.480469-20.480469 20.480469 9.1875 20.480469 20.480469-9.1875 20.480469-20.480469 20.480469zm0-27.308594c-3.765625 0-6.828125 3.066406-6.828125 6.828125s3.0625 6.828125 6.828125 6.828125c3.761719 0 6.824219-3.066406 6.824219-6.828125s-3.0625-6.828125-6.824219-6.828125zm0 0" fill="#54596e"/><path d="m75.542969 201.386719c30.28125 0 55.917969 7.398437 64.851562 17.632812 8.9375-10.234375 34.574219-17.632812 64.855469-17.632812 30.277344 0 55.917969 7.398437 64.851562 17.632812 8.9375-10.234375 34.574219-17.632812 64.855469-17.632812 36.164063 0 65.683594 10.554687 68.035157 23.894531h.230468c0-109.339844-88.636718-197.972656-197.972656-197.972656s-197.972656 88.632812-197.972656 197.972656h.230468c2.351563-13.34375 31.867188-23.894531 68.035157-23.894531" fill="#fff35f"/><path d="m403.222656 232.105469c-3.3125 0-6.375-2.378907-6.953125-5.640625-1.34375-7.621094-25.320312-18.25-61.3125-18.25-30.433593 0-53.074219 7.691406-59.710937 15.296875-2.59375 2.964843-7.691406 2.964843-10.285156 0-6.636719-7.605469-29.277344-15.296875-59.710938-15.296875s-53.074219 7.691406-59.707031 15.296875c-2.59375 2.964843-7.695313 2.964843-10.289063 0-6.636718-7.605469-29.273437-15.296875-59.707031-15.296875-35.996094 0-59.972656 10.628906-61.3125 18.25-.578125 3.261718-3.410156 5.640625-6.722656 5.640625-3.773438 0-7.058594-3.054688-7.058594-6.824219 0-112.929688 91.875-204.800781 204.800781-204.800781 112.925782 0 204.800782 91.871093 204.800782 204.800781-.003907 3.769531-3.0625 6.824219-6.832032 6.824219m-395.714844-6.824219h.066407zm197.742188-30.722656c27.648438 0 51.957031 5.878906 64.851562 15.332031 12.898438-9.453125 37.203126-15.332031 64.855469-15.332031 22.003907 0 45.8125 3.992187 60.574219 12.480468-9.207031-96.878906-91.03125-172.90625-190.28125-172.90625s-181.074219 76.027344-190.285156 172.90625c14.765625-8.488281 38.574218-12.480468 60.578125-12.480468 27.648437 0 51.957031 5.878906 64.851562 15.332031 12.898438-9.453125 37.207031-15.332031 64.855469-15.332031" fill="#54596e"/><path d="m334.957031 170.078125c-30.28125 0-55.917969 7.402344-64.855469 17.632813-8.933593-10.230469-34.574218-17.632813-64.851562-17.632813-30.28125 0-55.917969 7.402344-64.855469 17.632813-8.933593-10.230469-34.570312-17.632813-64.851562-17.632813-23.457031 0-44.085938 4.449219-56.332031 11.210937-1.984376 8.386719-3.410157 16.976563-4.246094 25.746094 14.765625-8.488281 38.574218-12.476562 60.578125-12.476562 27.648437 0 51.957031 5.875 64.851562 15.328125 12.898438-9.453125 37.207031-15.328125 64.855469-15.328125s51.957031 5.875 64.851562 15.328125c12.898438-9.453125 37.203126-15.328125 64.855469-15.328125 22.003907 0 45.8125 3.988281 60.574219 12.476562-.832031-8.769531-2.257812-17.359375-4.242188-25.746094-12.246093-6.761718-32.875-11.210937-56.332031-11.210937" fill="#ddd462"/><g fill="#54596e"><path d="m391.289062 181.289062c1.984376 8.386719 3.410157 16.976563 4.242188 25.746094-14.761719-8.488281-38.570312-12.476562-60.574219-12.476562-27.652343 0-51.957031 5.875-64.855469 15.328125-12.894531-9.453125-37.203124-15.328125-64.851562-15.328125s-51.957031 5.875-64.855469 15.328125c-12.894531-9.453125-37.203125-15.328125-64.851562-15.328125-22.003907 0-45.8125 3.988281-60.578125 12.476562.835937-8.769531 2.261718-17.359375 4.246094-25.746094-3.496094 1.929688-6.304688 4.046876-8.308594 6.304688-2.351563 12.207031-3.625 24.792969-3.625 37.6875h.230468c2.351563-13.339844 31.867188-23.894531 68.035157-23.894531 30.28125 0 55.917969 7.398437 64.851562 17.632812 8.9375-10.234375 34.574219-17.632812 64.855469-17.632812 30.277344 0 55.917969 7.398437 64.851562 17.632812 8.9375-10.234375 34.574219-17.632812 64.855469-17.632812 36.164063 0 65.683594 10.554687 68.035157 23.894531h.230468c0-12.894531-1.273437-25.480469-3.625-37.6875-2.003906-2.257812-4.8125-4.375-8.308594-6.304688"/><path d="m273.515625 112.054688c-3.769531 0-6.824219-3.058594-6.824219-6.828126 0-7.53125-6.125-13.652343-13.65625-13.652343-7.527344 0-13.652344 6.121093-13.652344 13.652343 0 3.769532-3.054687 6.828126-6.828124 6.828126-3.769532 0-6.824219-3.058594-6.824219-6.828126 0-15.054687 12.25-27.308593 27.304687-27.308593 15.058594 0 27.308594 12.253906 27.308594 27.308593 0 3.769532-3.058594 6.828126-6.828125 6.828126zm0 0"/><path d="m184.769531 112.054688c-3.769531 0-6.828125-3.058594-6.828125-6.828126 0-7.53125-6.121094-13.652343-13.652344-13.652343s-13.652343 6.121093-13.652343 13.652343c0 3.769532-3.058594 6.828126-6.828125 6.828126-3.769532 0-6.824219-3.058594-6.824219-6.828126 0-15.054687 12.25-27.308593 27.304687-27.308593 15.058594 0 27.308594 12.253906 27.308594 27.308593 0 3.769532-3.058594 6.828126-6.828125 6.828126zm0 0"/><path d="m206.53125 159.28125c-19.574219 0-37.039062-5.003906-46.710938-13.386719-2.851562-2.472656-3.15625-6.785156-.691406-9.632812 2.472656-2.851563 6.785156-3.152344 9.632813-.6875 7.050781 6.109375 21.875 10.054687 37.773437 10.054687 14.375 0 28.101563-3.277344 35.824219-8.558594 3.101563-2.132812 7.359375-1.332031 9.484375 1.777344 2.132812 3.109375 1.335938 7.359375-1.777344 9.488282-10.167968 6.957031-26.035156 10.945312-43.535156 10.945312zm0 0"/></g></svg>