<svg height="395.94667pt" viewBox="0 0 395.94667 395.94667" width="395.94667pt" xmlns="http://www.w3.org/2000/svg"><path d="m389.121094 197.972656c0-105.566406-85.582032-191.144531-191.148438-191.144531s-191.144531 85.578125-191.144531 191.144531 85.578125 191.148438 191.144531 191.148438 191.148438-85.582032 191.148438-191.148438" fill="#a1b7ff"/><path d="m197.972656 395.945312c-109.15625 0-197.972656-88.808593-197.972656-197.972656 0-109.164062 88.8125-197.972656 197.972656-197.972656s197.972656 88.808594 197.972656 197.972656c0 109.164063-88.8125 197.972656-197.972656 197.972656m0-382.292968c-101.632812 0-184.320312 82.6875-184.320312 184.320312 0 101.632813 82.6875 184.320313 184.320312 184.320313 101.632813 0 184.320313-82.6875 184.320313-184.320313 0-101.632812-82.6875-184.320312-184.320313-184.320312" fill="#54596e"/><path d="m323.839844 63.4375c16.453125 28.160156 25.886718 60.921875 25.886718 95.890625 0 105.152344-85.246093 190.398437-190.398437 190.398437-34.964844 0-67.726563-9.429687-95.882813-25.878906 33.652344 35.945313 81.515626 58.445313 134.527344 58.445313 101.632813 0 184.320313-82.6875 184.320313-184.320313 0-53.015625-22.5-100.878906-58.453125-134.535156" fill="#96a9e9"/><g fill="#54596e"><path d="m312.207031 45.839844c4.1875 5.636718 8.074219 11.507812 11.632813 17.597656 35.953125 33.65625 58.453125 81.519531 58.453125 134.535156 0 101.632813-82.6875 184.320313-184.320313 184.320313-53.011718 0-100.871094-22.5-134.527344-58.449219-6.09375-3.558594-11.96875-7.441406-17.605468-11.632812 34.699218 46.664062 90.253906 76.910156 152.878906 76.910156 105.152344 0 190.402344-85.246094 190.402344-190.398438 0-62.628906-30.242188-118.183594-76.914063-152.882812"/><path d="m170.667969 286.71875h-81.921875c-11.3125 0-20.480469-9.167969-20.480469-20.480469 0-11.308593 9.167969-20.476562 20.480469-20.476562h81.921875c11.3125 0 20.480469 9.167969 20.480469 20.476562 0 11.3125-9.167969 20.480469-20.480469 20.480469zm0 0"/><path d="m47.785156 273.066406h-27.304687c-3.773438 0-6.828125-3.054687-6.828125-6.828125 0-3.769531 3.054687-6.824219 6.828125-6.824219h27.304687c3.773438 0 6.828125 3.054688 6.828125 6.824219 0 3.773438-3.054687 6.828125-6.828125 6.828125zm0 0"/><path d="m273.066406 273.066406h-61.441406c-3.773438 0-6.824219-3.054687-6.824219-6.828125 0-3.769531 3.050781-6.824219 6.824219-6.824219h61.441406c3.773438 0 6.828125 3.054688 6.828125 6.824219 0 3.773438-3.054687 6.828125-6.828125 6.828125zm0 0"/><path d="m375.464844 273.066406h-81.917969c-3.773437 0-6.828125-3.054687-6.828125-6.828125 0-3.769531 3.054688-6.824219 6.828125-6.824219h81.917969c3.773437 0 6.828125 3.054688 6.828125 6.824219 0 3.773438-3.054688 6.828125-6.828125 6.828125zm0 0"/><path d="m81.921875 163.839844c0 7.539062-6.113281 13.652344-13.65625 13.652344-7.539063 0-13.652344-6.113282-13.652344-13.652344 0-7.539063 6.113281-13.652344 13.652344-13.652344 7.542969 0 13.65625 6.113281 13.65625 13.652344zm0 0"/><path d="m204.800781 163.839844c0 7.539062-6.113281 13.652344-13.652343 13.652344-7.542969 0-13.65625-6.113282-13.65625-13.652344 0-7.539063 6.113281-13.652344 13.65625-13.652344 7.539062 0 13.652343 6.113281 13.652343 13.652344zm0 0"/><path d="m354.988281 314.027344h-109.226562c-3.773438 0-6.828125-3.058594-6.828125-6.828125s3.054687-6.824219 6.828125-6.824219h109.226562c3.773438 0 6.824219 3.054688 6.824219 6.824219s-3.050781 6.828125-6.824219 6.828125zm0 0"/><path d="m327.679688 341.332031h-47.785157c-3.773437 0-6.828125-3.054687-6.828125-6.824219 0-3.769531 3.054688-6.828124 6.828125-6.828124h47.785157c3.773437 0 6.828124 3.058593 6.828124 6.828124 0 3.769532-3.054687 6.824219-6.828124 6.824219zm0 0"/><path d="m389.121094 197.972656h-116.054688c-3.773437 0-6.828125-3.054687-6.828125-6.824218 0-3.773438 3.054688-6.828126 6.828125-6.828126h116.054688c3.773437 0 6.824218 3.054688 6.824218 6.828126 0 3.769531-3.050781 6.824218-6.824218 6.824218zm0 0"/><path d="m382.292969 170.667969h-68.265625c-3.773438 0-6.828125-3.058594-6.828125-6.828125 0-3.769532 3.054687-6.828125 6.828125-6.828125h68.265625c3.773437 0 6.828125 3.058593 6.828125 6.828125 0 3.769531-3.054688 6.828125-6.828125 6.828125zm0 0"/><path d="m375.464844 143.359375h-34.132813c-3.773437 0-6.824219-3.054687-6.824219-6.824219 0-3.773437 3.050782-6.828125 6.824219-6.828125h34.132813c3.773437 0 6.828125 3.054688 6.828125 6.828125 0 3.769532-3.054688 6.824219-6.828125 6.824219zm0 0"/><path d="m361.8125 109.226562h-40.960938c-3.773437 0-6.824218-3.054687-6.824218-6.828124 0-3.769532 3.050781-6.824219 6.824218-6.824219h40.960938c3.773438 0 6.828125 3.054687 6.828125 6.824219 0 3.773437-3.054687 6.828124-6.828125 6.828124zm0 0"/></g></svg>