<svg height="409.6pt" viewBox="0 0 409.6 409.6" width="409.6pt" xmlns="http://www.w3.org/2000/svg"><path d="m402.773438 204.800781c0-109.339843-88.636719-197.972656-197.972657-197.972656-109.335937 0-197.972656 88.636719-197.972656 197.972656 0 109.335938 88.636719 197.972657 197.972656 197.972657 109.335938 0 197.972657-88.636719 197.972657-197.972657" fill="#f4a14e"/><path d="m204.800781 409.601562c-112.925781 0-204.800781-91.875-204.800781-204.800781s91.875-204.800781 204.800781-204.800781 204.800781 91.875 204.800781 204.800781-91.875 204.800781-204.800781 204.800781m0-395.949218c-105.402343 0-191.148437 85.746094-191.148437 191.148437 0 105.398438 85.746094 191.144531 191.148437 191.144531 105.398438 0 191.144531-85.746093 191.144531-191.144531 0-105.402343-85.746093-191.148437-191.144531-191.148437" fill="#54596e"/><path d="m204.800781 170.667969c-15.058593 0-27.308593-12.25-27.308593-27.308594 0-3.769531 3.058593-6.824219 6.828124-6.824219 3.769532 0 6.828126 3.054688 6.828126 6.824219 0 7.53125 6.121093 13.652344 13.652343 13.652344 7.527344 0 13.652344-6.121094 13.652344-13.652344 0-3.769531 3.058594-6.824219 6.828125-6.824219s6.824219 3.054688 6.824219 6.824219c0 15.058594-12.25 27.308594-27.304688 27.308594zm0 0" fill="#54596e"/><path d="m68.265625 170.667969c-15.054687 0-27.304687-12.25-27.304687-27.308594 0-3.769531 3.054687-6.824219 6.824218-6.824219 3.773438 0 6.828125 3.054688 6.828125 6.824219 0 7.53125 6.125 13.652344 13.652344 13.652344 7.53125 0 13.65625-6.121094 13.65625-13.652344 0-3.769531 3.054687-6.824219 6.824219-6.824219 3.769531 0 6.828125 3.054688 6.828125 6.824219 0 15.058594-12.25 27.308594-27.308594 27.308594zm0 0" fill="#54596e"/><path d="m335.835938 65.753906c16.527343 28.914063 25.976562 62.394532 25.976562 98.085938 0 109.335937-88.636719 197.972656-197.972656 197.972656-35.691406 0-69.167969-9.449219-98.082032-25.976562 34.878907 36.988281 84.308594 60.109374 139.042969 60.109374 105.398438 0 191.144531-85.746093 191.144531-191.144531 0-54.734375-23.121093-104.167969-60.109374-139.046875" fill="#dc9653"/><path d="m322.804688 45.839844c4.726562 6.355468 9.082031 13.003906 13.03125 19.914062 36.988281 34.878906 60.109374 84.3125 60.109374 139.046875 0 105.398438-85.746093 191.144531-191.144531 191.144531-54.734375 0-104.164062-23.121093-139.042969-60.109374-6.914062-3.953126-13.5625-8.304688-19.921874-13.035157 36.085937 48.527344 93.847656 79.972657 158.964843 79.972657 109.335938 0 197.972657-88.636719 197.972657-197.972657 0-65.117187-31.445313-122.878906-79.96875-158.960937" fill="#54596e"/><path d="m320.851562 102.398438c0-11.308594-20.476562-40.957032-20.476562-40.957032s-20.480469 29.648438-20.480469 40.957032c0 11.3125 9.167969 20.480468 20.480469 20.480468 11.308594 0 20.476562-9.167968 20.476562-20.480468zm0 0" fill="#fff35f"/><path d="m245.761719 227.558594c0-10.058594-17.070313-36.410156-17.070313-36.410156s-17.066406 26.351562-17.066406 36.410156c0 10.050781 7.640625 18.203125 17.066406 18.203125 9.429688 0 17.070313-8.152344 17.070313-18.203125zm0 0" fill="#fff35f"/><path d="m354.988281 245.761719c0-11.3125-20.480469-40.960938-20.480469-40.960938s-20.480468 29.648438-20.480468 40.960938c0 11.308593 9.167968 20.476562 20.480468 20.476562 11.308594 0 20.480469-9.167969 20.480469-20.476562zm0 0" fill="#fff35f"/><path d="m382.292969 159.289062c0-13.828124-23.894531-50.0625-23.894531-50.0625s-23.890626 36.234376-23.890626 50.0625c0 13.824219 10.695313 25.03125 23.890626 25.03125 13.199218 0 23.894531-11.207031 23.894531-25.03125zm0 0" fill="#fff35f"/><g fill="#54596e"><path d="m82.292969 246.578125c-1.953125 0-3.898438-.835937-5.25-2.460937-2.414063-2.894532-2.019531-7.199219.882812-9.613282 12.066407-10.050781 33.976563-16.050781 58.609375-16.050781 21.722656 0 42.167969 4.921875 54.699219 13.164063 3.148437 2.074218 4.023437 6.304687 1.949219 9.457031-2.070313 3.152343-6.296875 4.023437-9.457032 1.949219-10.390624-6.835938-28.027343-10.917969-47.191406-10.917969-20.894531 0-40.476562 5.0625-49.878906 12.890625-1.273438 1.0625-2.824219 1.582031-4.363281 1.582031zm0 0"/><path d="m197.972656 327.679688c-19.074218 0-37.390625-5.800782-55.109375-11.414063-14.71875-4.664063-28.625-9.066406-40.464843-9.066406-19.960938 0-51.6875 13.003906-52.003907 13.136719-3.496093 1.421874-7.476562-.214844-8.917969-3.703126-1.4375-3.484374.214844-7.476562 3.703126-8.917968 1.398437-.574219 34.539062-14.167969 57.21875-14.167969 13.949218 0 28.832031 4.714844 44.589843 9.703125 16.726563 5.296875 34.023438 10.777344 50.984375 10.777344 19.691406 0 37.148438-8.523438 52.550782-16.039063 9.867187-4.816406 19.1875-9.367187 28.03125-11.132812 36.015624-7.21875 90.820312 19.910156 93.136718 21.066406 3.371094 1.6875 4.738282 5.789063 3.054688 9.15625-1.6875 3.378906-5.796875 4.742187-9.15625 3.058594-.527344-.261719-52.957032-26.1875-84.355469-19.894531-7.117187 1.421874-15.667969 5.597656-24.71875 10.015624-15.90625 7.761719-35.699219 17.421876-58.542969 17.421876zm0 0"/><path d="m116.535156 370.941406c-19.609375 0-33.574218-4.796875-40.480468-7.859375-3.445313-1.527343-5.003907-5.5625-3.472657-9.007812 1.527344-3.445313 5.554688-5.007813 9.007813-3.472657 10.269531 4.546876 38.59375 13.472657 79.851562-2.007812 53.511719-20.0625 109.613282-15.128906 134.265625-6.910156 14.789063 4.933594 29.824219 6.105468 35.601563 6.378906 3.765625.175781 6.671875 3.378906 6.496094 7.144531-.179688 3.769531-3.355469 6.644531-7.144532 6.496094-7.882812-.378906-23.460937-1.792969-39.277344-7.066406-15.773437-5.261719-69.03125-14.300781-125.148437 6.746093-19.066406 7.148438-35.800781 9.558594-49.699219 9.558594zm0 0"/><path d="m157.011719 402.773438c-1.746094 0-3.492188-.667969-4.824219-2-2.667969-2.667969-2.667969-6.988282 0-9.652344.914062-.921875 22.820312-22.480469 52.613281-22.480469 27.640625 0 79.585938 9.9375 81.78125 10.363281 3.703125.710938 6.128907 4.289063 5.414063 7.992188-.710938 3.699218-4.269532 6.144531-7.992188 5.414062-.527344-.101562-52.867187-10.117187-79.203125-10.117187-24.203125 0-42.773437 18.296875-42.960937 18.480469-1.332032 1.332031-3.082032 2-4.828125 2zm0 0"/></g></svg>