<svg height="409pt" viewBox="0 -78 409.6 409" width="409pt" xmlns="http://www.w3.org/2000/svg"><g fill="#54596e"><path d="m266.238281 13.953125c0 7.539063-6.109375 13.652344-13.652343 13.652344-7.539063 0-13.652344-6.113281-13.652344-13.652344s6.113281-13.652344 13.652344-13.652344c7.542968 0 13.652343 6.113281 13.652343 13.652344zm0 0"/><path d="m409.601562 13.953125c0 7.539063-6.113281 13.652344-13.65625 13.652344-7.539062 0-13.652343-6.113281-13.652343-13.652344s6.113281-13.652344 13.652343-13.652344c7.542969 0 13.65625 6.113281 13.65625 13.652344zm0 0"/><path d="m327.679688 164.140625c-18.820313 0-34.132813-15.316406-34.132813-34.132813 0-18.820312 15.3125-34.132812 34.132813-34.132812 3.773437 0 6.828124 3.054688 6.828124 6.824219s-3.054687 6.828125-6.828124 6.828125c-11.292969 0-20.480469 9.1875-20.480469 20.480468 0 11.292969 9.1875 20.480469 20.480469 20.480469 3.773437 0 6.828124 3.054688 6.828124 6.824219s-3.054687 6.828125-6.828124 6.828125zm0 0"/><path d="m327.679688 218.753906c-18.820313 0-34.132813-15.316406-34.132813-34.132812 0-18.820313 15.3125-34.132813 34.132813-34.132813 3.773437 0 6.828124 3.054688 6.828124 6.824219s-3.054687 6.828125-6.828124 6.828125c-11.292969 0-20.480469 9.1875-20.480469 20.480469 0 11.292968 9.1875 20.480468 20.480469 20.480468 3.773437 0 6.828124 3.054688 6.828124 6.824219s-3.054687 6.828125-6.828124 6.828125zm0 0"/><path d="m133.121094 252.886719c-16.941406 0-30.722656-13.78125-30.722656-30.71875 0-16.941407 13.78125-30.722657 30.722656-30.722657h126.292968c3.773438 0 6.824219 3.058594 6.824219 6.828126 0 3.769531-3.050781 6.828124-6.824219 6.828124h-126.292968c-9.414063 0-17.066406 7.65625-17.066406 17.066407 0 9.410156 7.652343 17.066406 17.066406 17.066406 9.414062 0 17.066406-7.65625 17.066406-17.066406 0-3.769531 3.050781-6.828125 6.824219-6.828125 3.773437 0 6.828125 3.058594 6.828125 6.828125 0 16.9375-13.78125 30.71875-30.71875 30.71875zm0 0"/><path d="m259.414062 136.832031h-146.773437c-16.941406 0-30.71875-13.777343-30.71875-30.71875 0-16.941406 13.777344-30.71875 30.71875-30.71875s30.71875 13.777344 30.71875 30.71875c0 3.769531-3.050781 6.828125-6.824219 6.828125-3.773437 0-6.828125-3.058594-6.828125-6.828125 0-9.410156-7.652343-17.066406-17.066406-17.066406s-17.066406 7.65625-17.066406 17.066406c0 9.410157 7.652343 17.066407 17.066406 17.066407h146.773437c3.773438 0 6.824219 3.058593 6.824219 6.828124 0 3.769532-3.050781 6.824219-6.824219 6.824219zm0 0"/><path d="m273.066406 170.964844h-242.347656c-16.9375 0-30.71875-13.777344-30.71875-30.71875s13.78125-30.71875 30.71875-30.71875c16.941406 0 30.722656 13.777344 30.722656 30.71875 0 3.769531-3.054687 6.828125-6.828125 6.828125-3.773437 0-6.828125-3.058594-6.828125-6.828125 0-9.410156-7.652344-17.066406-17.066406-17.066406s-17.066406 7.65625-17.066406 17.066406 7.652344 17.066406 17.066406 17.066406h242.347656c3.773438 0 6.828125 3.058594 6.828125 6.828125s-3.054687 6.824219-6.828125 6.824219zm0 0"/></g></svg>