<svg height="423pt" viewBox="0 -27 423.25333 423" width="423pt" xmlns="http://www.w3.org/2000/svg"><path d="m416.425781 184.445312c0 98.027344-79.464843 177.496094-177.492187 177.496094s-177.492188-79.46875-177.492188-177.496094c0-98.027343 79.464844-177.492187 177.492188-177.492187s177.492187 79.464844 177.492187 177.492187zm0 0" fill="#a1b7ff"/><path d="m238.933594 368.765625c-101.632813 0-184.320313-82.683594-184.320313-184.320313 0-101.632812 82.6875-184.320312 184.320313-184.320312 101.632812 0 184.320312 82.6875 184.320312 184.320312 0 101.636719-82.6875 184.320313-184.320312 184.320313zm0-354.984375c-94.109375 0-170.667969 76.558594-170.667969 170.664062 0 94.109376 76.558594 170.667969 170.667969 170.667969 94.105468 0 170.667968-76.558593 170.667968-170.667969 0-94.105468-76.5625-170.664062-170.667968-170.664062zm0 0" fill="#54596e"/><path d="m401.1875 112.5c-6.8125-15.339844-15.722656-29.535156-26.382812-42.214844-13.378907 11.019532-30.824219 24.917969-37.945313 28.476563-12.238281 6.121093-24.480469-6.121094-36.71875-12.238281-12.242187-6.121094-48.96875 18.359374-48.96875 18.359374s-36.71875 6.121094-42.839844 0c-6.121093-6.121093-12.238281 30.601563 0 36.722657 12.242188 6.121093 30.601563 12.242187 30.601563 12.242187l30.601562-30.601562 12.238282 24.480468 24.488281 6.121094-6.121094-24.480468 55.078125 6.117187zm0 0" fill="#61c5a8"/><path d="m238.933594 160.667969c-.71875 0-1.453125-.109375-2.160156-.347657-.765626-.257812-18.960938-6.347656-31.492188-12.613281-10.648438-5.320312-11.082031-21-10.773438-27.488281.265626-5.710938 1.726563-19.3125 9.398438-22.28125 3.160156-1.21875 6.714844-.417969 9.253906 2.113281 2.949219 1.515625 19.472656.871094 35.472656-1.675781 10.679688-6.996094 40.5-24.984375 54.5625-17.960938 3.347657 1.675782 6.597657 3.707032 9.746094 5.671876 9.394532 5.875 15.480469 9.25 20.867188 6.566406 2.949218-1.472656 11.625-7.023438 36.660156-27.636719 2.90625-2.382813 7.152344-1.976563 9.566406.875 11.144532 13.257813 20.359375 28.007813 27.390625 43.839844 1.480469 3.335937.082031 7.246093-3.183593 8.878906l-45.96875 22.984375c-1.179688.585938-2.5.839844-3.804688.675781l-45.320312-5.035156 3.734374 14.953125c.585938 2.328125-.101562 4.789062-1.796874 6.484375-1.691407 1.695313-4.164063 2.375-6.476563 1.796875l-24.488281-6.121094c-1.933594-.480468-3.5625-1.785156-4.453125-3.570312l-8.007813-16.007813-23.898437 23.902344c-1.300781 1.296875-3.046875 1.996094-4.828125 1.996094zm-29.667969-47.824219c-1.101563 4.40625-1.832031 11.949219-.332031 17.9375.742187 2.945312 1.785156 4.382812 2.453125 4.714844 8.308593 4.15625 19.773437 8.386718 25.742187 10.496094l27.578125-27.574219c1.539063-1.550781 3.714844-2.257813 5.921875-1.914063 2.167969.355469 4.03125 1.722656 5.011719 3.6875l10.835937 21.671875 10.40625 2.597657-3.359374-13.441407c-.546876-2.167969.007812-4.464843 1.480468-6.152343 1.472656-1.679688 3.632813-2.546876 5.890625-2.289063l53.082031 5.898437 38.214844-19.109374c-5.109375-10.417969-11.261718-20.28125-18.375-29.449219-16.921875 13.769531-28.3125 22.152343-33.898437 24.945312-12.601563 6.296875-24.585938-1.1875-34.214844-7.203125-3.007813-1.875-5.839844-3.652344-8.613281-5.035156-4.554688-2.289062-24.632813 6.269531-42.128906 17.933594-.804688.535156-1.710938.894531-2.664063 1.050781-14.804687 2.476563-32.878906 4.355469-43.03125 1.234375zm0 0" fill="#54596e"/><path d="m365.242188 199.800781c-9.050782 0-18.097657 4.523438-31.667969 4.523438-13.566407 0-45.234375-9.046875-45.234375-9.046875l-9.054688 22.613281s13.574219 13.574219 22.621094 36.191406c9.046875 22.621094 13.574219 45.242188 13.574219 45.242188h18.09375s4.523437-9.050781 9.046875-27.144531c4.523437-18.097657 22.621094-54.289063 22.621094-54.289063zm0 0" fill="#ffd578"/><path d="m333.574219 306.152344h-18.09375c-3.253907 0-6.054688-2.296875-6.695313-5.488282-.046875-.21875-4.527344-22.308593-13.21875-44.042968-8.367187-20.914063-20.988281-33.78125-21.113281-33.910156-1.921875-1.929688-2.515625-4.828126-1.507813-7.355469l9.054688-22.617188c1.300781-3.25 4.851562-5.007812 8.210938-4.023437 8.5625 2.441406 33.027343 8.78125 43.359374 8.78125 6.714844 0 12.226563-1.242188 17.5625-2.4375 4.773438-1.074219 9.28125-2.085938 14.105469-2.085938 3.773438 0 6.828125 3.054688 6.828125 6.824219v18.09375c0 1.0625-.25 2.105469-.722656 3.054687-.179688.351563-17.8125 35.730469-22.105469 52.890626-4.648437 18.609374-9.359375 28.140624-9.558593 28.539062-1.160157 2.316406-3.519532 3.777344-6.105469 3.777344zm-12.613281-13.65625h8.132812c1.625-4.070313 4.265625-11.421875 6.90625-21.96875 4.179688-16.726563 18.921875-47.148438 22.414062-54.234375v-8.84375c-1.367187.273437-2.789062.59375-4.289062.933593-5.773438 1.296876-12.320312 2.769532-20.550781 2.769532-10.753907 0-31.074219-5.007813-41.160157-7.683594l-5.207031 13.003906c4.792969 5.601563 14.144531 17.835938 21.039063 35.074219 6.582031 16.464844 10.792968 32.730469 12.714844 40.949219zm0 0" fill="#54596e"/><path d="m61.441406 184.445312c0 68.511719 38.839844 127.914063 95.679688 157.5l14.484375-28.96875-12.242188-30.605468-67.324219-36.722656 6.121094-36.71875 30.609375-42.84375s0-24.484376-6.121093-42.84375c-3.78125-11.335938-.558594-48.304688 2.453124-74.957032-38.902343 32.566406-63.660156 81.464844-63.660156 136.160156zm0 0" fill="#bfad88"/><path d="m157.121094 348.773438c-1.089844 0-2.167969-.261719-3.15625-.769532-61.277344-31.898437-99.351563-94.574218-99.351563-163.558594 0-54.691406 24.09375-106.226562 66.105469-141.390624 2.148438-1.796876 5.148438-2.097657 7.613281-.777344 2.460938 1.320312 3.867188 4.007812 3.554688 6.78125-6.128907 54.128906-3.972657 68.402344-2.765625 72.023437 6.398437 19.191407 6.472656 43.960938 6.472656 45.003907 0 1.421874-.449219 2.808593-1.273438 3.964843l-29.6875 41.5625-5.0625 30.371094 63.0625 34.394531c1.390626.761719 2.480469 1.984375 3.074219 3.457032l12.238281 30.605468c.71875 1.8125.640626 3.84375-.234374 5.585938l-14.484376 28.972656c-.820312 1.636719-2.261718 2.878906-4 3.441406-.6875.222656-1.398437.332032-2.105468.332032zm-40.699219-283.117188c-30.796875 31.722656-48.15625 74.121094-48.15625 118.789062 0 61.554688 32.75 117.683594 85.914063 148.117188l9.945312-19.894531-10.183594-25.476563-65.167968-35.546875c-2.554688-1.394531-3.945313-4.246093-3.46875-7.117187l6.121093-36.722656c.175781-1.027344.574219-2 1.179688-2.84375l29.292969-41.007813c-.167969-6.179687-1.046876-24.507813-5.726563-38.550781-1.105469-3.300782-4.21875-12.640625.25-59.746094zm0 0" fill="#54596e"/><path d="m202.210938 74.28125-12.246094-30.605469 39.335937-16.609375c7.632813-.851562 13.769531 6.175782 11.90625 13.625l-8.394531 33.589844-24.480469 6.117188zm0 0" fill="#ededed"/><g fill="#54596e"><path d="m208.332031 87.226562c-1.785156 0-3.53125-.703124-4.824219-2l-6.121093-6.121093c-.652344-.652344-1.167969-1.433594-1.515625-2.289063l-12.246094-30.605468c-1.378906-3.453126.261719-7.378907 3.6875-8.824219l39.332031-16.609375c.605469-.253906 1.246094-.425782 1.898438-.496094 5.796875-.640625 11.5625 1.59375 15.414062 5.996094 3.839844 4.398437 5.289063 10.410156 3.867188 16.074218l-8.390625 33.585938c-.609375 2.441406-2.523438 4.351562-4.96875 4.964844l-24.480469 6.121094zm-.296875-16.785156 2.390625 2.398438 16.761719-4.191406 7.398438-29.613282c.480468-1.917968-.480469-3.28125-.914063-3.777344-.371094-.425781-1.332031-1.324218-2.84375-1.425781l-32.035156 13.527344zm0 0"/><path d="m170.667969 191.273438c0 7.539062-6.113281 13.652343-13.65625 13.652343-7.539063 0-13.652344-6.113281-13.652344-13.652343 0-7.539063 6.113281-13.652344 13.652344-13.652344 7.542969 0 13.65625 6.113281 13.65625 13.652344zm0 0"/><path d="m266.238281 191.273438c0 7.539062-6.109375 13.652343-13.652343 13.652343-7.539063 0-13.652344-6.113281-13.652344-13.652343 0-7.539063 6.113281-13.652344 13.652344-13.652344 7.542968 0 13.652343 6.113281 13.652343 13.652344zm0 0"/><path d="m218.453125 266.367188c-11.292969 0-20.480469-9.1875-20.480469-20.480469s9.1875-20.480469 20.480469-20.480469c3.773437 0 6.828125 3.058594 6.828125 6.828125s-3.054688 6.824219-6.828125 6.824219c-3.765625 0-6.828125 3.066406-6.828125 6.828125s3.0625 6.828125 6.828125 6.828125c3.773437 0 6.828125 3.054687 6.828125 6.824218 0 3.769532-3.054688 6.828126-6.828125 6.828126zm0 0"/><path d="m218.453125 293.671875c-11.292969 0-20.480469-9.183594-20.480469-20.480469 0-11.292968 9.1875-20.476562 20.480469-20.476562 3.773437 0 6.828125 3.054687 6.828125 6.824218 0 3.769532-3.054688 6.828126-6.828125 6.828126-3.765625 0-6.828125 3.0625-6.828125 6.824218 0 3.765625 3.0625 6.828125 6.828125 6.828125 3.773437 0 6.828125 3.058594 6.828125 6.828125 0 3.769532-3.054688 6.824219-6.828125 6.824219zm0 0"/></g><path d="m177.492188 252.714844h-150.183594c-3.773438 0-6.828125-3.058594-6.828125-6.828125s3.054687-6.828125 6.828125-6.828125h150.183594c3.773437 0 6.828124 3.058594 6.828124 6.828125s-3.054687 6.828125-6.828124 6.828125zm0 0" fill="#ddd"/><path d="m23.894531 252.714844c-13.175781 0-23.894531-10.722656-23.894531-23.894532 0-13.175781 10.71875-23.894531 23.894531-23.894531 13.171875 0 23.890625 10.71875 23.890625 23.894531 0 3.769532-3.050781 6.828126-6.824218 6.828126-3.773438 0-6.828126-3.058594-6.828126-6.828126 0-5.648437-4.59375-10.242187-10.238281-10.242187-5.648437 0-10.242187 4.59375-10.242187 10.242187 0 5.648438 4.59375 10.238282 10.242187 10.238282 3.773438 0 6.824219 3.058594 6.824219 6.828125s-3.050781 6.828125-6.824219 6.828125zm0 0" fill="#ddd"/><path d="m51.199219 314.152344c-13.171875 0-23.890625-10.71875-23.890625-23.890625 0-13.175781 10.71875-23.894531 23.890625-23.894531 3.773437 0 6.828125 3.054687 6.828125 6.824218 0 3.773438-3.054688 6.828125-6.828125 6.828125-5.648438 0-10.238281 4.59375-10.238281 10.242188 0 5.644531 4.589843 10.238281 10.238281 10.238281 5.648437 0 10.242187-4.59375 10.242187-10.238281 0-3.773438 3.050782-6.828125 6.824219-6.828125s6.828125 3.054687 6.828125 6.828125c0 13.171875-10.71875 23.890625-23.894531 23.890625zm0 0" fill="#ddd"/><path d="m177.492188 280.019531h-122.878907c-3.773437 0-6.828125-3.054687-6.828125-6.828125 0-3.769531 3.054688-6.824218 6.828125-6.824218h122.878907c3.773437 0 6.828124 3.054687 6.828124 6.824218 0 3.773438-3.054687 6.828125-6.828124 6.828125zm0 0" fill="#ddd"/></svg>