<svg xmlns="http://www.w3.org/2000/svg" viewBox="0 0 360 100" width="360" height="100"><style>tspan { white-space:pre }.shp0 { fill: #ff6c0e } .shp1 { fill: #f7be00 } .shp2 { fill: #ffffff } </style><path class="shp0" d="M39.3 2.7L28.9 19.3C28.9 19.3 35.7 18.1 39.3 18.1C39.3 14 39.3 2.7 39.3 2.7Z" /><path class="shp0" d="M39.3 21.2C39.3 21.2 31.5 21.3 26.6 24.3C23.9 29.8 15.3 41.2 15.3 62C2.5 81.7 1.6 83.3 1.6 83.3L1.6 96.8C1.6 96.8 13.5 78.7 25.8 76.6C34.6 76.6 39.2 77.1 39.2 77.1L39.2 21.2L39.3 21.2Z" /><path class="shp1" d="M39.3 2.7L49.7 19.3C49.7 19.3 42.9 18.1 39.3 18.1C39.3 14 39.3 2.7 39.3 2.7Z" /><path class="shp1" d="M39.3 21.2C39.3 21.2 47.1 21.3 52 24.3C54.6 29.8 63.2 41.1 63.2 61.9C76.1 81.6 76.9 83.2 76.9 83.2L76.9 96.7C76.9 96.7 65 78.6 52.7 76.5C43.9 76.5 39.3 77 39.3 77L39.3 21.2L39.3 21.2Z" /><path class="shp2" d="M116.2 47.6C110.8 46 97.6 42.9 100.6 35.6C103.6 28.3 124.3 34.3 124.3 34.3L126.1 26.3C126.1 26.3 115.9 23.4 108.8 23.4C101.7 23.4 90.9 26 90.9 38.5C90.9 49.7 100.9 51.1 108.2 53.8C115.3 56.4 119.6 60.8 115.4 65C111.7 68.7 90.8 64.7 90.8 64.7L89.1 73C89.1 73 96.7 75 109.4 75C122 75 125.7 68 125.7 60.9C125.7 53.6 121.5 49.2 116.2 47.6Z" /><path class="shp2" d="M170.7 35.2C162.6 35.2 158.9 38.4 158.9 38.4C158.9 38.4 153.6 35.2 147.7 35.2C139.8 35.2 132.9 40 132.9 43.9L132.9 74.6L142 74.6C142 74.6 142 49.6 142 48.1C142 46.6 143.3 42.3 148.3 42.3C152.1 42.3 154.5 45 154.5 48.1C154.5 51.3 154.5 74.6 154.5 74.6L164 74.6C164 74.6 164 49.8 164 48.1C164 46.4 165 42.3 169.7 42.3C174.7 42.3 176 46.4 176 48.1C176 50.8 176 74.6 176 74.6L184.9 74.6C184.9 74.6 184.9 47.7 184.9 44.7C184.8 41.7 180.5 35.2 170.7 35.2Z" /><path class="shp2" d="M265 63.9L265 43.1L274.2 43.1L274.2 35.6L265 35.6L265 24.4L256.1 30.1L256.1 63.9C256.1 71.2 259 74.1 265 75C270.9 75.9 276.1 74.6 276.1 74.6L273.5 68.6C265.1 68.6 265 65.9 265 63.9Z" /><path class="shp2" d="M230.6 42.3C230.6 43.6 230.6 46.1 230.6 46.1L230.6 74.6L239.5 74.6L239.5 46.4C239.5 43 247.8 42.8 250 42.8C250 41.5 250 36.7 250 34.7C238.4 33.5 230.6 38.7 230.6 42.3Z" /><path fill-rule="evenodd" class="shp2" d="M223.2 47C223.2 53.7 223.2 68.8 223.2 70.2C223.2 71.6 216.7 75.7 206 75.7C195.3 75.7 190.7 71.6 190.7 63.8C190.7 56 196.3 51.1 204.2 51.1C212.1 51.1 214.4 51 214.4 51C214.4 51 215.4 42.4 205.7 42.4C197.7 42.4 193.4 43.7 193.4 43.7L192.2 37.7C192.2 37.7 199.3 35.5 207.4 35.5C215.6 35.5 223.2 39.8 223.2 47ZM214 67.3L214 56.4C214 56.4 207.1 56.4 205.9 56.4C202.3 56.4 199.3 59.4 199.3 63C199.3 66.6 202.3 69.6 205.9 69.6C210.1 69.6 212.9 68.5 214.1 67.3L214 67.3Z" /><g ><path fill-rule="evenodd" class="shp0" d="M323.4 35.8C323.4 35.8 329.3 31.3 336 30.7C351.4 29.2 357.1 36.4 357.1 46.8C357.1 50.1 357.7 59.2 354.4 64.4C348.1 74.2 332.5 70.1 332.5 70.1L332.5 86.5L323.5 91.6L323.5 35.8L323.4 35.8ZM332.5 40.8L332.5 61.1C332.5 61.1 348.4 68.6 348.4 51.1C348.4 42.4 346 39.9 341.6 38.9C337 37.9 332.5 40.8 332.5 40.8Z" /></g><path fill-rule="evenodd" class="shp0" d="M298.8 75.2C290.7 75.2 287 73.3 283.8 69.7C280.7 66 281.3 61.8 281.3 61.8L281.3 61.7L281.3 30L290.8 24.3L290.8 60.7C290.8 64.7 292.7 67 299.1 67C304.9 67 306.5 64.1 306.5 61.1L306.5 30L316.4 24.3L316.4 64.5C316.4 72.1 308.3 75.2 298.8 75.2Z" /></svg>