<svg height="416pt" viewBox="-3 0 416 416.42667" width="416pt" xmlns="http://www.w3.org/2000/svg"><path d="m348.375 286.71875v-125.214844c0-85.425781-64.183594-154.675781-143.363281-154.675781-79.175781 0-143.359375 69.25-143.359375 154.675781v125.214844z" fill="#fff"/><path d="m348.375 293.546875h-286.722656c-3.769532 0-6.824219-3.058594-6.824219-6.828125v-125.214844c0-89.054687 67.371094-161.503906 150.183594-161.503906s150.1875 72.449219 150.1875 161.503906v125.214844c0 3.769531-3.054688 6.828125-6.824219 6.828125zm-279.894531-13.652344h273.066406v-118.390625c0-81.523437-61.25-147.851562-136.535156-147.851562-75.28125 0-136.53125 66.328125-136.53125 147.851562zm0 0" fill="#54596e"/><path d="m341.726562 320.851562h-265.511718c-38.203125 0-69.175782 22.886719-69.175782 51.117188v37.632812h395.949219v-43.480468c0-25-27.429687-45.269532-61.261719-45.269532zm0 0" fill="#fff"/><path d="m402.988281 416.425781h-395.949219c-3.769531 0-6.824218-3.054687-6.824218-6.824219v-37.632812c0-31.949219 34.09375-57.941406 76-57.941406h265.511718c37.542969 0 68.085938 23.367187 68.085938 52.09375v43.480468c0 3.769532-3.054688 6.824219-6.824219 6.824219zm-389.121093-13.652343h382.292968v-36.652344c0-21.199219-24.421875-38.441406-54.433594-38.441406h-265.511718c-34.378906 0-62.347656 19.871093-62.347656 44.289062zm0 0" fill="#54596e"/><path d="m307.414062 409.601562c-3.769531 0-6.828124-3.058593-6.828124-6.828124v-20.480469c0-3.769531 3.058593-6.828125 6.828124-6.828125 3.769532 0 6.824219 3.058594 6.824219 6.828125v20.480469c0 3.769531-3.054687 6.828124-6.824219 6.828124zm0 0" fill="#54596e"/><path d="m75.308594 300.375v20.476562c0 7.542969 58.070312 13.65625 129.703125 13.65625 71.636719 0 129.707031-6.113281 129.707031-13.65625v-20.476562zm0 0" fill="#fff"/><path d="m205.011719 341.332031c-34.875 0-67.699219-1.433593-92.429688-4.035156-37.074219-3.902344-44.101562-8.789063-44.101562-16.445313v-20.476562c0-3.773438 3.054687-6.828125 6.828125-6.828125h259.410156c3.769531 0 6.828125 3.054687 6.828125 6.828125v20.476562c0 7.65625-7.027344 12.542969-44.105469 16.445313-24.726562 2.601563-57.550781 4.035156-92.429687 4.035156zm-122.878907-23.246093c10.054688 4.253906 55.257813 9.59375 122.878907 9.59375 67.625 0 112.828125-5.339844 122.882812-9.59375v-10.886719h-245.761719zm0 0" fill="#54596e"/><path d="m239.148438 361.8125h68.265624v47.789062h-68.265624zm0 0" fill="#55a6ff"/><path d="m307.414062 416.425781h-68.265624c-3.773438 0-6.828126-3.054687-6.828126-6.824219v-47.789062c0-3.769531 3.054688-6.824219 6.828126-6.824219h68.265624c3.769532 0 6.824219 3.054688 6.824219 6.824219v47.789062c0 3.769532-3.054687 6.824219-6.824219 6.824219zm-61.441406-13.652343h54.613282v-34.132813h-54.613282zm0 0" fill="#54596e"/><path d="m205.011719 279.894531c-79.175781 0-143.359375-6.113281-143.359375-13.65625v34.136719c0 7.539062 64.183594 13.652344 143.359375 13.652344 79.179687 0 143.363281-6.113282 143.363281-13.652344v-34.136719c0 7.542969-64.183594 13.65625-143.363281 13.65625zm0 0" fill="#fff"/><path d="m205.011719 320.851562c-38.503907 0-74.730469-1.429687-102.019531-4.027343-40.714844-3.878907-48.164063-8.585938-48.164063-16.449219v-34.136719c0-3.769531 3.054687-6.824219 6.824219-6.824219 2.570312 0 4.808594 1.417969 5.972656 3.515626 8.9375 4.382812 59.738281 10.136718 137.386719 10.136718 77.652343 0 128.453125-5.753906 137.386719-10.136718 1.167968-2.097657 3.40625-3.515626 5.976562-3.515626 3.769531 0 6.824219 3.054688 6.824219 6.824219v34.136719c0 7.863281-7.449219 12.570312-48.167969 16.449219-27.285156 2.597656-63.515625 4.027343-102.019531 4.027343zm-136.53125-23.414062c10.964843 4.328125 61.070312 9.761719 136.53125 9.761719 75.464843 0 125.566406-5.433594 136.535156-9.761719v-19.9375c-7.292969 1.957031-18.25 3.640625-34.515625 5.1875-27.285156 2.601562-63.515625 4.03125-102.019531 4.03125-38.503907 0-74.730469-1.429688-102.019531-4.027344-16.261719-1.550781-27.21875-3.230468-34.511719-5.191406zm0 0" fill="#54596e"/><path d="m69.148438 132.652344c-4.835938 15.496094-7.496094 32.074218-7.496094 49.332031v93.75c42.183594 6.972656 91.117187 10.984375 143.359375 10.984375 52.246093 0 101.179687-4.011719 143.363281-10.984375v-93.75c0-17.257813-2.660156-33.832031-7.496094-49.332031-40.4375-6.234375-86.703125-9.773438-135.867187-9.773438-49.164063 0-95.429688 3.539063-135.863281 9.773438" fill="#8065c4"/><path d="m205.011719 293.546875c-50.671875 0-100.632813-3.828125-144.472657-11.078125-3.296874-.546875-5.714843-3.394531-5.714843-6.734375v-93.75c0-17.480469 2.628906-34.761719 7.804687-51.367187.777344-2.488282 2.898438-4.316407 5.476563-4.714844 83.644531-12.886719 190.15625-12.886719 273.816406 0 2.574219.398437 4.699219 2.226562 5.476563 4.714844 5.175781 16.605468 7.804687 33.886718 7.804687 51.367187v93.75c0 3.339844-2.417969 6.1875-5.714844 6.734375-43.839843 7.25-93.800781 11.078125-144.476562 11.078125m-136.53125-23.628906c41.722656 6.53125 88.785156 9.976562 136.53125 9.976562 47.75 0 94.808593-3.445312 136.535156-9.976562v-87.933594c0-14.679687-2.007813-29.195313-5.972656-43.230469-80.191407-11.851562-180.945313-11.84375-261.121094 0-3.964844 14.035156-5.972656 28.550782-5.972656 43.230469z" fill="#54596e"/><path d="m59.535156 252.585938h2.117188v-95.574219h-2.117188c-13.914062 0-25.1875 11.277343-25.1875 25.1875v45.199219c0 13.914062 11.273438 25.1875 25.1875 25.1875zm0 0" fill="#fff"/><path d="m61.652344 259.414062h-2.117188c-17.65625 0-32.015625-14.359374-32.015625-32.015624v-45.199219c0-17.652344 14.359375-32.011719 32.015625-32.011719h2.117188c3.769531 0 6.828125 3.054688 6.828125 6.824219v95.574219c0 3.769531-3.058594 6.828124-6.828125 6.828124zm-6.824219-94.964843c-7.851563 2.082031-13.65625 9.253906-13.65625 17.75v45.199219c0 8.496093 5.804687 15.667968 13.65625 17.75zm0 0" fill="#54596e"/><path d="m350.492188 252.585938h-2.117188v-95.574219h2.117188c13.910156 0 25.1875 11.277343 25.1875 25.1875v45.199219c0 13.914062-11.277344 25.1875-25.1875 25.1875zm0 0" fill="#fff"/><path d="m350.492188 259.414062h-2.117188c-3.773438 0-6.828125-3.058593-6.828125-6.828124v-95.574219c0-3.769531 3.054687-6.824219 6.828125-6.824219h2.117188c17.65625 0 32.015624 14.359375 32.015624 32.011719v45.199219c0 17.65625-14.359374 32.015624-32.015624 32.015624zm4.707031-94.964843v80.699219c7.851562-2.082032 13.652343-9.253907 13.652343-17.75v-45.199219c0-8.496094-5.800781-15.667969-13.652343-17.75zm0 0" fill="#54596e"/><path d="m123.09375 191.148438c0 11.308593-9.167969 20.476562-20.480469 20.476562s-20.480469-9.167969-20.480469-20.476562c0-11.3125 9.167969-20.480469 20.480469-20.480469s20.480469 9.167969 20.480469 20.480469zm0 0" fill="#ffd578"/><path d="m102.613281 218.453125c-15.054687 0-27.304687-12.25-27.304687-27.304687 0-15.058594 12.25-27.308594 27.304687-27.308594 15.054688 0 27.308594 12.25 27.308594 27.308594 0 15.054687-12.253906 27.304687-27.308594 27.304687zm0-40.960937c-7.53125 0-13.652343 6.125-13.652343 13.65625 0 7.527343 6.121093 13.652343 13.652343 13.652343s13.652344-6.125 13.652344-13.652343c0-7.53125-6.121094-13.65625-13.652344-13.65625zm0 0" fill="#54596e"/><path d="m327.894531 191.148438c0 11.308593-9.171875 20.476562-20.480469 20.476562-11.3125 0-20.480468-9.167969-20.480468-20.476562 0-11.3125 9.167968-20.480469 20.480468-20.480469 11.308594 0 20.480469 9.167969 20.480469 20.480469zm0 0" fill="#ffd578"/><path d="m307.414062 218.453125c-15.058593 0-27.308593-12.25-27.308593-27.304687 0-15.058594 12.25-27.308594 27.308593-27.308594 15.054688 0 27.304688 12.25 27.304688 27.308594 0 15.054687-12.25 27.304687-27.304688 27.304687zm0-40.960937c-7.53125 0-13.652343 6.125-13.652343 13.65625 0 7.527343 6.121093 13.652343 13.652343 13.652343 7.527344 0 13.652344-6.125 13.652344-13.652343 0-7.53125-6.125-13.65625-13.652344-13.65625zm0 0" fill="#54596e"/><path d="m281.71875 283.730469c11.679688-12.785157 18.867188-29.742188 18.867188-48.421875v-107.722656c-29.910157-3.027344-62.035157-4.707032-95.574219-4.707032-33.535157 0-65.664063 1.679688-95.570313 4.707032v107.722656c0 18.679687 7.183594 35.636718 18.867188 48.421875 24.410156 1.941406 50.121094 2.988281 76.703125 2.988281 26.585937 0 52.296875-1.046875 76.707031-2.988281" fill="#ffd578"/><path d="m205.011719 293.546875c-26.109375 0-52.097657-1.015625-77.246094-3.011719-1.726563-.140625-3.332031-.921875-4.5-2.203125-13.320313-14.574219-20.652344-33.40625-20.652344-53.023437v-107.722656c0-3.503907 2.652344-6.441407 6.140625-6.792969 62.171875-6.285157 130.339844-6.285157 192.519532 0 3.484374.351562 6.140624 3.289062 6.140624 6.792969v107.722656c0 19.621094-7.335937 38.449218-20.65625 53.027344-1.164062 1.277343-2.773437 2.0625-4.5 2.203124-25.144531 1.992188-51.132812 3.007813-77.246093 3.007813m76.707031-9.816406h.066406zm-150.113281-6.589844c47.859375 3.652344 98.957031 3.652344 146.820312 0 9.90625-11.753906 15.335938-26.507813 15.335938-41.832031v-101.527344c-57.507813-5.40625-120-5.40625-177.496094 0v101.527344c0 15.324218 5.429687 30.078125 15.339844 41.832031" fill="#54596e"/><path d="m205.007812 129.722656c-29.996093 0-59.992187 1.351563-88.742187 4.054688v20.449218c27.949219-2.605468 57.75-4.042968 88.746094-4.042968 31 0 60.796875 1.4375 88.75 4.042968v-20.449218c-28.753907-2.703125-58.753907-4.054688-88.753907-4.054688" fill="#ddbc76"/><path d="m205.011719 122.878906c-33.535157 0-65.664063 1.679688-95.570313 4.707032v27.308593c2.261719-.230469 4.535156-.453125 6.824219-.664062v-20.449219c28.75-2.703125 58.746094-4.054688 88.742187-4.054688 30 0 60 1.351563 88.753907 4.054688v20.449219c2.285156.210937 4.558593.433593 6.824219.664062v-27.308593c-29.910157-3.027344-62.035157-4.707032-95.574219-4.707032" fill="#54596e"/><path d="m170.878906 211.625c0 18.851562 15.285156 34.136719 34.132813 34.136719 18.851562 0 34.136719-15.285157 34.136719-34.136719zm0 0" fill="#54596e"/><path d="m205.011719 252.585938c-22.585938 0-40.957031-18.375-40.957031-40.960938 0-3.769531 3.054687-6.824219 6.824218-6.824219h68.269532c3.769531 0 6.824218 3.054688 6.824218 6.824219 0 22.585938-18.375 40.960938-40.960937 40.960938zm-26.441407-34.132813c3.039063 11.765625 13.742188 20.480469 26.441407 20.480469s23.40625-8.714844 26.445312-20.480469zm0 0" fill="#54596e"/><path d="m218.667969 232.105469c0-3.769531-6.113281-6.824219-13.65625-6.824219-7.539063 0-13.652344 3.054688-13.652344 6.824219s6.113281 6.828125 13.652344 6.828125c7.542969 0 13.65625-3.058594 13.65625-6.828125zm0 0" fill="#ff927d"/><g fill="#54596e"><path d="m170.878906 160.425781c0 5.65625-4.582031 10.242188-10.238281 10.242188s-10.242187-4.585938-10.242187-10.242188 4.585937-10.238281 10.242187-10.238281 10.238281 4.582031 10.238281 10.238281zm0 0"/><path d="m259.625 160.425781c0 5.65625-4.582031 10.242188-10.238281 10.242188s-10.238281-4.585938-10.238281-10.242188 4.582031-10.238281 10.238281-10.238281 10.238281 4.582031 10.238281 10.238281zm0 0"/><path d="m375.679688 218.453125c-3.769532 0-6.828126-3.054687-6.828126-6.828125v-143.359375c0-3.769531 3.058594-6.824219 6.828126-6.824219 3.769531 0 6.828124 3.054688 6.828124 6.824219v143.359375c0 3.773438-3.058593 6.828125-6.828124 6.828125zm0 0"/><path d="m389.332031 54.613281c0 7.539063-6.113281 13.652344-13.652343 13.652344-7.539063 0-13.652344-6.113281-13.652344-13.652344 0-7.539062 6.113281-13.652343 13.652344-13.652343 7.539062 0 13.652343 6.113281 13.652343 13.652343zm0 0"/><path d="m184.535156 129.707031c-3.773437 0-6.828125-3.058593-6.828125-6.828125v-109.226562c0-3.769532 3.054688-6.824219 6.828125-6.824219 3.769532 0 6.824219 3.054687 6.824219 6.824219v109.226562c0 3.769532-3.054687 6.828125-6.824219 6.828125zm0 0"/><path d="m225.492188 129.707031c-3.769532 0-6.824219-3.058593-6.824219-6.828125v-109.226562c0-3.769532 3.054687-6.824219 6.824219-6.824219 3.769531 0 6.828124 3.054687 6.828124 6.824219v109.226562c0 3.769532-3.058593 6.828125-6.828124 6.828125zm0 0"/></g></svg>