<svg height="416pt" viewBox="-3 0 416 416.42667" width="416pt" xmlns="http://www.w3.org/2000/svg"><path d="m348.375 286.71875v-125.214844c0-85.425781-64.1875-154.675781-143.363281-154.675781-79.171875 0-143.359375 69.25-143.359375 154.671875v125.21875z" fill="#61c5a8"/><path d="m348.375 293.546875h-286.722656c-3.773438 0-6.824219-3.058594-6.824219-6.828125v-125.214844c0-89.054687 67.371094-161.503906 150.183594-161.503906s150.1875 72.449219 150.1875 161.503906v125.214844c0 3.769531-3.050781 6.828125-6.824219 6.828125zm-279.894531-13.652344h273.066406v-118.390625c0-81.523437-61.246094-147.851562-136.535156-147.851562-75.285157 0-136.53125 66.328125-136.53125 147.851562zm0 0" fill="#54596e"/><path d="m341.726562 320.851562h-265.507812c-38.207031 0-69.179688 22.886719-69.179688 51.117188v37.632812h395.949219v-43.480468c0-25-27.429687-45.269532-61.261719-45.269532zm0 0" fill="#61c5a8"/><path d="m402.988281 416.425781h-395.949219c-3.773437 0-6.824218-3.054687-6.824218-6.824219v-37.632812c0-31.949219 34.09375-57.941406 76.003906-57.941406h265.507812c37.539063 0 68.085938 23.367187 68.085938 52.09375v43.480468c0 3.769532-3.050781 6.824219-6.824219 6.824219zm-389.121093-13.652343h382.292968v-36.652344c0-21.199219-24.421875-38.441406-54.433594-38.441406h-265.507812c-34.378906 0-62.351562 19.871093-62.351562 44.289062zm0 0" fill="#54596e"/><path d="m307.414062 409.601562c-3.773437 0-6.828124-3.058593-6.828124-6.828124v-20.480469c0-3.769531 3.054687-6.828125 6.828124-6.828125 3.773438 0 6.824219 3.058594 6.824219 6.828125v20.480469c0 3.769531-3.050781 6.828124-6.824219 6.828124zm0 0" fill="#54596e"/><path d="m75.308594 300.375v20.476562c0 7.542969 58.070312 13.65625 129.703125 13.65625 71.636719 0 129.707031-6.113281 129.707031-13.65625v-20.476562zm0 0" fill="#61c5a8"/><path d="m205.011719 341.332031c-34.871094 0-67.699219-1.433593-92.429688-4.035156-37.074219-3.902344-44.101562-8.789063-44.101562-16.445313v-20.476562c0-3.773438 3.054687-6.828125 6.828125-6.828125h259.410156c3.773438 0 6.828125 3.054687 6.828125 6.828125v20.476562c0 7.65625-7.027344 12.542969-44.101563 16.445313-24.730468 2.601563-57.558593 4.035156-92.433593 4.035156zm-122.878907-23.246093c10.054688 4.253906 55.261719 9.59375 122.878907 9.59375 67.621093 0 112.828125-5.339844 122.882812-9.59375v-10.886719h-245.761719zm0 0" fill="#54596e"/><path d="m102.613281 361.8125h204.800781v47.789062h-204.800781zm0 0" fill="#8065c4"/><path d="m307.414062 416.425781h-204.800781c-3.773437 0-6.828125-3.054687-6.828125-6.824219v-47.789062c0-3.769531 3.054688-6.824219 6.828125-6.824219h204.800781c3.773438 0 6.824219 3.054688 6.824219 6.824219v47.789062c0 3.769532-3.050781 6.824219-6.824219 6.824219zm-197.972656-13.652343h191.144532v-34.132813h-191.144532zm0 0" fill="#54596e"/><path d="m205.011719 279.894531c-79.171875 0-143.359375-6.113281-143.359375-13.65625v34.136719c0 7.539062 64.1875 13.652344 143.359375 13.652344 79.175781 0 143.363281-6.113282 143.363281-13.652344v-34.136719c0 7.542969-64.1875 13.65625-143.363281 13.65625zm0 0" fill="#61c5a8"/><path d="m205.011719 320.851562c-38.5 0-74.730469-1.429687-102.019531-4.027343-40.71875-3.878907-48.164063-8.585938-48.164063-16.449219v-34.136719c0-3.769531 3.050781-6.824219 6.824219-6.824219 2.566406 0 4.808594 1.417969 5.972656 3.515626 8.933594 4.382812 59.734375 10.136718 137.386719 10.136718 77.65625 0 128.457031-5.753906 137.386719-10.136718 1.167968-2.097657 3.40625-3.515626 5.976562-3.515626 3.773438 0 6.824219 3.054688 6.824219 6.824219v34.136719c0 7.863281-7.445313 12.570312-48.167969 16.449219-27.285156 2.597656-63.515625 4.027343-102.019531 4.027343zm-136.53125-23.414062c10.964843 4.328125 61.066406 9.761719 136.53125 9.761719 75.46875 0 125.566406-5.433594 136.535156-9.761719v-19.9375c-7.292969 1.957031-18.246094 3.640625-34.515625 5.1875-27.285156 2.601562-63.515625 4.03125-102.019531 4.03125-38.5 0-74.730469-1.429688-102.019531-4.027344-16.265626-1.550781-27.21875-3.230468-34.511719-5.191406zm0 0" fill="#54596e"/><path d="m59.535156 252.585938h2.117188v-95.574219h-2.117188c-13.914062 0-25.1875 11.277343-25.1875 25.1875v45.199219c0 13.914062 11.273438 25.1875 25.1875 25.1875zm0 0" fill="#61c5a8"/><path d="m61.652344 259.414062h-2.117188c-17.65625 0-32.015625-14.359374-32.015625-32.015624v-45.199219c0-17.652344 14.359375-32.011719 32.015625-32.011719h2.117188c3.773437 0 6.828125 3.054688 6.828125 6.824219v95.574219c0 3.769531-3.054688 6.828124-6.828125 6.828124zm-6.824219-94.964843c-7.855469 2.082031-13.65625 9.253906-13.65625 17.75v45.199219c0 8.496093 5.800781 15.667968 13.65625 17.75zm0 0" fill="#54596e"/><path d="m350.492188 252.585938h-2.117188v-95.574219h2.117188c13.914062 0 25.1875 11.277343 25.1875 25.1875v45.199219c0 13.914062-11.273438 25.1875-25.1875 25.1875zm0 0" fill="#61c5a8"/><g fill="#54596e"><path d="m350.492188 259.414062h-2.117188c-3.773438 0-6.828125-3.058593-6.828125-6.828124v-95.574219c0-3.769531 3.054687-6.824219 6.828125-6.824219h2.117188c17.65625 0 32.015624 14.359375 32.015624 32.011719v45.199219c0 17.65625-14.359374 32.015624-32.015624 32.015624zm4.707031-94.964843v80.699219c7.855469-2.082032 13.652343-9.253907 13.652343-17.75v-45.199219c0-8.496094-5.796874-15.667969-13.652343-17.75zm0 0"/><path d="m184.535156 129.707031c-3.773437 0-6.828125-3.058593-6.828125-6.828125v-109.226562c0-3.765625 3.054688-6.824219 6.828125-6.824219 3.773438 0 6.824219 3.054687 6.824219 6.824219v109.226562c0 3.769532-3.050781 6.828125-6.824219 6.828125"/><path d="m225.492188 129.707031c-3.773438 0-6.824219-3.058593-6.824219-6.828125v-109.226562c0-3.765625 3.050781-6.824219 6.824219-6.824219 3.773437 0 6.824218 3.054687 6.824218 6.824219v109.226562c.003906 3.769532-3.050781 6.828125-6.824218 6.828125"/></g><path d="m69.144531 132.648438c-4.832031 15.503906-7.492187 32.078124-7.492187 49.335937v93.75c42.179687 6.972656 91.121094 10.984375 143.359375 10.984375 52.242187 0 101.179687-4.011719 143.363281-10.984375v-93.75c0-17.257813-2.664062-33.832031-7.496094-49.335937-40.4375-6.230469-86.699218-9.769532-135.867187-9.769532-49.164063 0-95.425781 3.539063-135.867188 9.769532" fill="#8065c4"/><path d="m205.011719 293.546875c-50.679688 0-100.632813-3.828125-144.472657-11.078125-3.292968-.546875-5.710937-3.394531-5.710937-6.734375v-93.75c0-17.480469 2.625-34.761719 7.800781-51.367187.777344-2.488282 2.90625-4.316407 5.480469-4.714844 83.652344-12.886719 190.160156-12.886719 273.8125 0 2.570313.398437 4.699219 2.226562 5.480469 4.714844 5.171875 16.605468 7.800781 33.886718 7.800781 51.367187v93.75c0 3.339844-2.421875 6.1875-5.714844 6.734375-43.839843 7.25-93.796875 11.078125-144.476562 11.078125m-136.53125-23.628906c41.722656 6.53125 88.777343 9.976562 136.53125 9.976562 47.753906 0 94.8125-3.445312 136.535156-9.976562v-87.933594c0-14.679687-2.007813-29.195313-5.972656-43.230469-80.1875-11.847656-180.933594-11.847656-261.121094 0-3.964844 14.035156-5.972656 28.550782-5.972656 43.230469z" fill="#54596e"/><path d="m327.894531 163.839844c0-11.535156-1.378906-22.730469-3.746093-33.554688-36.289063-4.75-76.613282-7.40625-119.136719-7.40625-42.519531 0-82.84375 2.65625-119.128907 7.40625-2.367187 10.824219-3.75 22.019532-3.75 33.554688 0 48.550781 22.128907 91.847656 56.746094 120.632812 21.242188 1.441406 43.347656 2.246094 66.132813 2.246094 22.789062 0 44.894531-.804688 66.136719-2.246094 34.617187-28.785156 56.746093-72.082031 56.746093-120.632812" fill="#ffb8f2"/><path d="m205.011719 293.546875c-22.046875 0-44.453125-.757813-66.589844-2.261719-1.433594-.097656-2.800781-.644531-3.910156-1.5625-37.625-31.289062-59.203125-77.167968-59.203125-125.882812 0-11.382813 1.308594-23.164063 3.90625-35.011719.613281-2.8125 2.925781-4.941406 5.777344-5.316406 37.847656-4.949219 78.226562-7.457031 120.019531-7.457031 41.796875 0 82.175781 2.507812 120.023437 7.457031 2.851563.375 5.164063 2.5 5.777344 5.316406 2.59375 11.847656 3.90625 23.628906 3.90625 35.011719 0 48.714844-21.578125 94.59375-59.207031 125.882812-1.105469.917969-2.472657 1.464844-3.90625 1.5625-22.136719 1.503906-44.546875 2.261719-66.59375 2.261719m66.136719-9.074219h.066406zm-129.582032-6.664062c42.226563 2.765625 84.667969 2.765625 126.894532 0 33.457031-28.640625 52.605468-70.054688 52.605468-113.96875 0-8.90625-.886718-18.105469-2.632812-27.402344-35.867188-4.46875-73.992188-6.730469-113.421875-6.730469-39.425781 0-77.550781 2.261719-113.417969 6.730469-1.746094 9.296875-2.632812 18.496094-2.632812 27.402344 0 43.914062 19.144531 85.328125 52.605468 113.96875" fill="#54596e"/><path d="m205.011719 129.707031c-39.425781 0-77.550781 2.261719-113.417969 6.730469-1.746094 9.296875-2.632812 18.496094-2.632812 27.402344v.179687c35.480468-4.496093 74.730468-7.007812 116.050781-7.007812 41.324219 0 80.570312 2.511719 116.054687 7.007812 0-.058593 0-.121093 0-.179687 0-8.90625-.886718-18.105469-2.632812-27.402344-35.867188-4.46875-73.992188-6.730469-113.421875-6.730469" fill="#dda5d8"/><path d="m205.011719 122.878906c-42.519531 0-82.84375 2.65625-119.128907 7.40625-2.367187 10.824219-3.75 22.019532-3.75 33.554688 0 5.859375.339844 11.636718.964844 17.328125.640625-5.679688 1.582032-11.261719 2.78125-16.75 1.023438-.132813 2.050782-.265625 3.082032-.398438 0-.058593 0-.121093 0-.179687 0-8.90625.886718-18.105469 2.628906-27.402344 35.871094-4.46875 73.996094-6.730469 113.421875-6.730469 39.429687 0 77.554687 2.261719 113.421875 6.730469 1.746094 9.296875 2.632812 18.496094 2.632812 27.402344v.179687c1.03125.132813 2.058594.265625 3.082032.398438 1.199218 5.488281 2.140624 11.074219 2.777343 16.75.628907-5.691407.96875-11.46875.96875-17.328125 0-11.535156-1.378906-22.730469-3.746093-33.554688-36.289063-4.75-76.613282-7.40625-119.136719-7.40625" fill="#54596e"/><path d="m191.359375 259.414062c-3.773437 0-6.824219-3.058593-6.824219-6.828124v-13.652344c0-3.769532 3.050782-6.828125 6.824219-6.828125s6.828125 3.058593 6.828125 6.828125v13.652344c0 3.769531-3.054688 6.828124-6.828125 6.828124zm0 0" fill="#54596e"/><path d="m218.667969 259.414062c-3.773438 0-6.828125-3.058593-6.828125-6.828124v-13.652344c0-3.769532 3.054687-6.828125 6.828125-6.828125 3.773437 0 6.824219 3.058593 6.824219 6.828125v13.652344c0 3.769531-3.050782 6.828124-6.824219 6.828124zm0 0" fill="#54596e"/><path d="m119.90625 153.824219c-5.980469 16.835937-2.285156 36.332031 11.1875 49.808593 13.472656 13.46875 32.964844 17.160157 49.800781 11.183594 5.980469-16.835937 2.289063-36.332031-11.1875-49.804687-13.472656-13.472657-32.96875-17.164063-49.800781-11.1875zm0 0" fill="#fff"/><path d="m164.960938 224.378906c-14.289063 0-28.335938-5.566406-38.695313-15.921875-14.800781-14.796875-19.820313-37.136719-12.792969-56.917969.6875-1.941406 2.214844-3.460937 4.148438-4.148437 19.777344-7.027344 42.113281-2 56.914062 12.792969 14.800782 14.796875 19.816406 37.136718 12.792969 56.917968-.6875 1.9375-2.214844 3.460938-4.148437 4.148438-5.933594 2.105469-12.101563 3.128906-18.21875 3.128906zm-39.601563-65.101562c-3.726563 14.007812.253906 29.214844 10.5625 39.527344 10.3125 10.3125 25.546875 14.28125 39.519531 10.558593 3.726563-14.007812-.253906-29.214843-10.5625-39.527343-10.3125-10.308594-25.53125-14.277344-39.519531-10.558594zm0 0" fill="#54596e"/><path d="m290.121094 153.824219c5.980468 16.835937 2.285156 36.332031-11.1875 49.808593-13.476563 13.46875-32.96875 17.160157-49.800782 11.183594-5.980468-16.835937-2.289062-36.332031 11.1875-49.804687 13.472657-13.472657 32.964844-17.164063 49.800782-11.1875zm0 0" fill="#fff"/><path d="m245.066406 224.378906c-6.121094 0-12.285156-1.023437-18.21875-3.128906-1.933594-.683594-3.460937-2.210938-4.148437-4.148438-7.027344-19.78125-2.007813-42.121093 12.792969-56.917968 14.792968-14.789063 37.140624-19.8125 56.914062-12.792969 1.933594.683594 3.460938 2.207031 4.148438 4.148437 7.027343 19.78125 2.007812 42.121094-12.792969 56.917969-10.355469 10.351563-24.414063 15.921875-38.695313 15.921875zm-10.480468-15.015625c13.988281 3.722657 29.214843-.246093 39.519531-10.558593 10.308593-10.3125 14.285156-25.519532 10.5625-39.527344-13.980469-3.71875-29.214844.25-39.519531 10.558594-10.308594 10.3125-14.289063 25.519531-10.5625 39.527343zm0 0" fill="#54596e"/><path d="m266.453125 409.601562h-122.878906l-6.828125-47.789062h136.535156zm0 0" fill="#ffb8f2"/><path d="m266.453125 416.425781h-122.878906c-3.402344 0-6.28125-2.496093-6.761719-5.859375l-6.824219-47.785156c-.28125-1.960938.304688-3.945312 1.597657-5.441406 1.300781-1.492188 3.179687-2.351563 5.160156-2.351563h136.535156c1.976562 0 3.859375.859375 5.15625 2.351563 1.296875 1.496094 1.882812 3.480468 1.601562 5.441406l-6.824218 47.785156c-.480469 3.363282-3.363282 5.859375-6.761719 5.859375zm-116.960937-13.652343h111.039062l4.875-34.132813h-120.785156zm0 0" fill="#54596e"/></svg>