<svg height="416pt" viewBox="-24 0 416 416.42667" width="416pt" xmlns="http://www.w3.org/2000/svg"><path d="m327.894531 286.71875v-125.214844c0-85.425781-64.183593-154.675781-143.359375-154.675781-79.175781 0-143.363281 69.25-143.363281 154.675781v125.214844z" fill="#fff"/><path d="m327.894531 293.546875h-286.722656c-3.769531 0-6.824219-3.058594-6.824219-6.828125v-125.214844c0-89.054687 67.375-161.503906 150.1875-161.503906s150.183594 72.449219 150.183594 161.503906v125.214844c0 3.769531-3.054688 6.828125-6.824219 6.828125zm-279.894531-13.652344h273.066406v-118.390625c0-81.523437-61.25-147.851562-136.53125-147.851562-75.285156 0-136.535156 66.328125-136.535156 147.851562zm0 0" fill="#54596e"/><path d="m307.101562 320.851562h-238.039062c-34.253906 0-62.023438 22.886719-62.023438 51.117188v37.632812h354.988282v-43.480468c0-25-24.589844-45.269532-54.925782-45.269532zm0 0" fill="#fff"/><path d="m362.027344 416.425781h-354.988282c-3.769531 0-6.824218-3.054687-6.824218-6.824219v-37.632812c0-31.949219 30.886718-57.941406 68.847656-57.941406h238.042969c34.046875 0 61.746093 23.367187 61.746093 52.09375v43.480468c0 3.769532-3.054687 6.824219-6.824218 6.824219zm-348.160156-13.652343h341.332031v-36.652344c0-21.199219-21.578125-38.441406-48.097657-38.441406h-238.039062c-30.433594 0-55.195312 19.871093-55.195312 44.289062zm0 0" fill="#54596e"/><path d="m286.933594 409.601562c-3.769532 0-6.828125-3.058593-6.828125-6.828124v-20.480469c0-3.769531 3.058593-6.828125 6.828125-6.828125 3.769531 0 6.828125 3.058594 6.828125 6.828125v20.480469c0 3.769531-3.058594 6.828124-6.828125 6.828124zm0 0" fill="#54596e"/><path d="m54.828125 300.375v20.476562c0 7.542969 58.070313 13.65625 129.707031 13.65625 71.632813 0 129.703125-6.113281 129.703125-13.65625v-20.476562zm0 0" fill="#fff"/><path d="m184.535156 341.332031c-34.878906 0-67.703125-1.433593-92.429687-4.035156-37.078125-3.902344-44.105469-8.789063-44.105469-16.445313v-20.476562c0-3.773438 3.058594-6.828125 6.828125-6.828125h259.410156c3.773438 0 6.828125 3.054687 6.828125 6.828125v20.476562c0 7.65625-7.027344 12.542969-44.101562 16.445313-24.730469 2.601563-57.554688 4.035156-92.429688 4.035156zm-122.882812-23.246093c10.054687 4.253906 55.257812 9.59375 122.882812 9.59375 67.621094 0 112.824219-5.339844 122.878906-9.59375v-10.886719h-245.761718zm0 0" fill="#54596e"/><path d="m218.667969 361.8125h68.265625v47.789062h-68.265625zm0 0" fill="#55a6ff"/><path d="m286.933594 416.425781h-68.265625c-3.769531 0-6.828125-3.054687-6.828125-6.824219v-47.789062c0-3.769531 3.058594-6.824219 6.828125-6.824219h68.265625c3.769531 0 6.828125 3.054688 6.828125 6.824219v47.789062c0 3.769532-3.058594 6.824219-6.828125 6.824219zm-61.441406-13.652343h54.613281v-34.132813h-54.613281zm0 0" fill="#54596e"/><path d="m184.535156 279.894531c-79.179687 0-143.363281-6.113281-143.363281-13.65625v34.136719c0 7.539062 64.183594 13.652344 143.363281 13.652344 79.175782 0 143.359375-6.113282 143.359375-13.652344v-34.136719c0 7.542969-64.183593 13.65625-143.359375 13.65625zm0 0" fill="#fff"/><path d="m184.535156 320.851562c-38.507812 0-74.734375-1.429687-102.019531-4.027343-40.71875-3.878907-48.167969-8.585938-48.167969-16.449219v-34.136719c0-3.769531 3.054688-6.824219 6.824219-6.824219 2.570313 0 4.808594 1.417969 5.976563 3.515626 8.933593 4.382812 59.734374 10.136718 137.386718 10.136718 77.648438 0 128.449219-5.753906 137.386719-10.136718 1.164063-2.097657 3.402344-3.515626 5.972656-3.515626 3.769531 0 6.824219 3.054688 6.824219 6.824219v34.136719c0 7.863281-7.449219 12.570312-48.164062 16.449219-27.289063 2.597656-63.515626 4.027343-102.019532 4.027343zm-136.535156-23.414062c10.96875 4.328125 61.070312 9.761719 136.535156 9.761719 75.460938 0 125.566406-5.433594 136.53125-9.761719v-19.9375c-7.292968 1.957031-18.25 3.640625-34.511718 5.1875-27.289063 2.601562-63.515626 4.03125-102.019532 4.03125-38.507812 0-74.734375-1.429688-102.019531-4.027344-16.265625-1.550781-27.222656-3.230468-34.515625-5.191406zm0 0" fill="#54596e"/><path d="m48.667969 132.652344c-4.835938 15.496094-7.496094 32.074218-7.496094 49.332031v93.75c42.183594 6.972656 91.117187 10.984375 143.363281 10.984375 52.242188 0 101.175782-4.011719 143.359375-10.984375v-93.75c0-17.257813-2.660156-33.832031-7.492187-49.332031-40.441406-6.234375-86.707032-9.773438-135.867188-9.773438-49.164062 0-95.433594 3.539063-135.867187 9.773438" fill="#8065c4"/><path d="m184.535156 293.546875c-50.675781 0-100.636718-3.828125-144.472656-11.078125-3.300781-.546875-5.714844-3.394531-5.714844-6.734375v-93.75c0-17.480469 2.625-34.761719 7.800782-51.367187.78125-2.488282 2.902343-4.316407 5.476562-4.714844 83.648438-12.886719 190.160156-12.886719 273.8125 0 2.578125.398437 4.703125 2.226562 5.476562 4.714844 5.179688 16.605468 7.804688 33.886718 7.804688 51.367187v93.75c0 3.339844-2.414062 6.1875-5.710938 6.734375-43.839843 7.25-93.800781 11.078125-144.472656 11.078125m-136.535156-23.628906c41.722656 6.53125 88.78125 9.976562 136.535156 9.976562 47.75 0 94.808594-3.445312 136.53125-9.976562v-87.933594c0-14.679687-2.007812-29.195313-5.972656-43.230469-80.191406-11.851562-180.941406-11.84375-261.121094 0-3.964844 14.035156-5.972656 28.550782-5.972656 43.230469z" fill="#54596e"/><path d="m164.054688 286.503906c-31.242188-.632812-61.074219-2.703125-88.746094-5.96875v-151.460937c27.679687-3.265625 57.503906-5.339844 88.746094-5.972657z" fill="#fff35f"/><path d="m164.054688 293.328125h-.140626c-30.800781-.625-60.882812-2.648437-89.40625-6.015625-3.4375-.40625-6.027343-3.320312-6.027343-6.777344v-151.460937c0-3.460938 2.589843-6.375 6.027343-6.78125 28.566407-3.371094 58.648438-5.398438 89.410157-6.015625 1.707031-.101563 3.601562.664062 4.914062 1.949218 1.3125 1.289063 2.050781 3.042969 2.050781 4.878907v163.398437c0 1.835938-.742187 3.59375-2.050781 4.878906-1.277343 1.246094-2.996093 1.945313-4.777343 1.945313m-81.921876-18.882813c24.121094 2.660157 49.320313 4.359376 75.09375 5.070313v-149.421875c-25.738281.703125-50.945312 2.402344-75.09375 5.070312z" fill="#54596e"/><path d="m39.054688 252.585938h2.117187v-95.574219h-2.117187c-13.910157 0-25.1875 11.277343-25.1875 25.1875v45.199219c0 13.914062 11.277343 25.1875 25.1875 25.1875zm0 0" fill="#fff"/><path d="m41.171875 259.414062h-2.117187c-17.65625 0-32.015626-14.359374-32.015626-32.015624v-45.199219c0-17.652344 14.359376-32.011719 32.015626-32.011719h2.117187c3.773437 0 6.828125 3.054688 6.828125 6.824219v95.574219c0 3.769531-3.054688 6.828124-6.828125 6.828124zm-6.824219-94.964843c-7.851562 2.082031-13.65625 9.253906-13.65625 17.75v45.199219c0 8.496093 5.804688 15.667968 13.65625 17.75zm0 0" fill="#54596e"/><path d="m330.011719 252.585938h-2.117188v-95.574219h2.117188c13.910156 0 25.1875 11.277343 25.1875 25.1875v45.199219c0 13.914062-11.273438 25.1875-25.1875 25.1875zm0 0" fill="#fff"/><path d="m330.011719 259.414062h-2.117188c-3.769531 0-6.828125-3.058593-6.828125-6.828124v-95.574219c0-3.769531 3.058594-6.824219 6.828125-6.824219h2.117188c17.65625 0 32.015625 14.359375 32.015625 32.011719v45.199219c0 17.65625-14.359375 32.015624-32.015625 32.015624zm4.707031-94.964843v80.699219c7.851562-2.082032 13.65625-9.253907 13.65625-17.75v-45.199219c0-8.496094-5.804688-15.667969-13.65625-17.75zm0 0" fill="#54596e"/><path d="m205.011719 286.503906c31.242187-.632812 61.074219-2.703125 88.75-5.96875v-151.460937c-27.683594-3.265625-57.507813-5.339844-88.75-5.972657z" fill="#fff35f"/><path d="m205.011719 293.328125c-1.78125 0-3.5-.699219-4.773438-1.949219-1.3125-1.28125-2.050781-3.042968-2.050781-4.878906v-163.398438c0-1.832031.738281-3.589843 2.050781-4.875 1.308594-1.285156 3.03125-1.988281 4.910157-1.953124 30.761718.621093 60.84375 2.648437 89.410156 6.019531 3.4375.40625 6.027344 3.316406 6.027344 6.777343v151.460938c0 3.460938-2.589844 6.375-6.027344 6.78125-28.523438 3.367188-58.605469 5.390625-89.40625 6.015625zm6.828125-163.234375v149.421875c25.773437-.707031 50.972656-2.40625 75.09375-5.070313v-139.28125c-24.148438-2.667968-49.355469-4.367187-75.09375-5.070312" fill="#54596e"/><path d="m264.976562 225.46875 7.050782-98.695312c-27.582032-2.523438-56.976563-3.894532-87.492188-3.894532-30.519531 0-59.910156 1.371094-87.496094 3.894532l7.050782 98.695312c1.785156 25.015625 14.90625 46.628906 34.0625 60.132812 15.113281.707032 30.570312 1.117188 46.382812 1.117188 15.808594 0 31.269532-.410156 46.378906-1.113281 19.160157-13.507813 32.277344-35.121094 34.0625-60.136719" fill="#ffd578"/><path d="m184.535156 293.546875c-15.039062 0-30.75-.378906-46.703125-1.125-1.296875-.058594-2.546875-.488281-3.609375-1.238281-21.605468-15.234375-35.070312-39.007813-36.941406-65.226563l-7.050781-98.699219c-.261719-3.707031 2.484375-6.945312 6.1875-7.28125 56.890625-5.207031 119.339843-5.207031 176.230469 0 3.703124.335938 6.453124 3.574219 6.1875 7.28125l-7.050782 98.699219c-1.871094 26.222657-15.335937 49.996094-36.9375 65.226563-1.066406.75-2.320312 1.179687-3.613281 1.238281-15.953125.746094-31.664063 1.125-46.699219 1.125m46.378906-7.945313h.066407zm-90.410156-6.726562c30.078125 1.347656 57.980469 1.347656 88.058594 0 17.316406-12.886719 28.070312-32.417969 29.605469-53.890625l6.574219-91.996094c-51.980469-4.355469-108.433594-4.355469-160.414063 0l6.574219 91.996094c1.53125 21.472656 12.289062 41.003906 29.601562 53.890625" fill="#54596e"/><path d="m184.535156 129.722656c-27.109375 0-54.21875 1.089844-80.207031 3.265625l1.453125 20.359375c25.027344-2.046875 51.425781-3.160156 78.753906-3.160156 27.324219 0 53.722656 1.113281 78.75 3.160156l1.453125-20.359375c-25.988281-2.179687-53.097656-3.265625-80.203125-3.265625" fill="#ddbc76"/><g fill="#54596e"><path d="m184.535156 122.878906c-30.519531 0-59.910156 1.371094-87.496094 3.894532l1.941407 27.152343c2.253906-.203125 4.523437-.394531 6.800781-.582031l-1.453125-20.359375c25.988281-2.175781 53.097656-3.265625 80.207031-3.265625 27.105469 0 54.214844 1.089844 80.203125 3.265625l-1.453125 20.359375c2.277344.1875 4.546875.378906 6.800782.582031l1.941406-27.152343c-27.582032-2.523438-56.976563-3.894532-87.492188-3.894532"/><path d="m150.398438 180.90625c0 5.65625-4.582032 10.242188-10.238282 10.242188s-10.238281-4.585938-10.238281-10.242188 4.582031-10.238281 10.238281-10.238281 10.238282 4.582031 10.238282 10.238281zm0 0"/><path d="m239.148438 180.90625c0 5.65625-4.585938 10.242188-10.242188 10.242188s-10.238281-4.585938-10.238281-10.242188 4.582031-10.238281 10.238281-10.238281 10.242188 4.582031 10.242188 10.238281zm0 0"/><path d="m355.199219 218.453125c-3.769531 0-6.824219-3.054687-6.824219-6.828125v-143.359375c0-3.769531 3.054688-6.824219 6.824219-6.824219s6.828125 3.054688 6.828125 6.824219v143.359375c0 3.773438-3.058594 6.828125-6.828125 6.828125zm0 0"/><path d="m368.851562 54.613281c0 7.539063-6.109374 13.652344-13.652343 13.652344-7.539063 0-13.652344-6.113281-13.652344-13.652344 0-7.539062 6.113281-13.652343 13.652344-13.652343 7.542969 0 13.652343 6.113281 13.652343 13.652343zm0 0"/><path d="m164.054688 129.707031c-3.769532 0-6.828126-3.058593-6.828126-6.828125v-109.226562c0-3.769532 3.058594-6.824219 6.828126-6.824219 3.769531 0 6.824218 3.054687 6.824218 6.824219v109.226562c0 3.769532-3.054687 6.828125-6.824218 6.828125zm0 0"/><path d="m205.011719 129.707031c-3.769531 0-6.824219-3.058593-6.824219-6.828125v-109.226562c0-3.769532 3.054688-6.824219 6.824219-6.824219 3.773437 0 6.828125 3.054687 6.828125 6.824219v109.226562c0 3.769532-3.054688 6.828125-6.828125 6.828125zm0 0"/></g><path d="m191.359375 252.585938h-13.652344c-7.539062 0-13.652343-6.113282-13.652343-13.652344 0-7.539063 6.113281-13.652344 13.652343-13.652344h13.652344c7.539063 0 13.652344 6.113281 13.652344 13.652344 0 7.539062-6.113281 13.652344-13.652344 13.652344zm0 0" fill="#ff927d"/><path d="m211.839844 238.933594h-54.613282c-3.769531 0-6.828124-3.058594-6.828124-6.828125s3.058593-6.824219 6.828124-6.824219h54.613282c3.769531 0 6.828125 3.054688 6.828125 6.824219s-3.058594 6.828125-6.828125 6.828125zm0 0" fill="#ff927d"/><path d="m89.710938 127.511719c11.269531 9.683593 28.148437 15.847656 47.035156 15.847656 21.722656 0 40.761718-8.160156 51.6875-20.445313-1.304688-.003906-2.589844-.035156-3.898438-.035156-33.253906 0-65.128906 1.65625-94.824218 4.632813zm0 0" fill="#fff35f"/><path d="m136.746094 150.1875c-19.777344 0-38.542969-6.375-51.484375-17.5-2.070313-1.78125-2.882813-4.621094-2.066407-7.226562.820313-2.601563 3.117188-4.46875 5.835938-4.742188 30.871094-3.09375 63.003906-4.664062 95.503906-4.664062l3.914063.03125c2.6875.007812 5.117187 1.589843 6.214843 4.042968 1.097657 2.449219.65625 5.316406-1.128906 7.320313-12.664062 14.238281-33.890625 22.738281-56.789062 22.738281zm-24.757813-17.78125c7.570313 2.6875 16.023438 4.128906 24.757813 4.128906 11.285156 0 22-2.382812 30.957031-6.683594-18.8125.316407-37.445313 1.171876-55.714844 2.554688zm0 0" fill="#54596e"/></svg>