<svg height="436pt" viewBox="0 -10 436.90667 436" width="436pt" xmlns="http://www.w3.org/2000/svg"><path d="m211.625 389.5625h-102.980469c-29.792969 0-54.03125-24.238281-54.03125-54.03125v-35.292969c0-14.742187-11.984375-26.726562-26.726562-26.726562h-7.40625c-7.539063 0-13.652344-6.113281-13.652344-13.652344 0-7.542969 6.113281-13.65625 13.652344-13.65625h7.40625c29.792969 0 54.035156 24.242187 54.035156 54.035156v35.292969c0 14.742188 11.984375 26.726562 26.722656 26.726562h102.980469c7.542969 0 13.65625 6.113282 13.65625 13.652344 0 7.539063-6.113281 13.652344-13.65625 13.652344zm0 0" fill="#999"/><path d="m211.625 396.390625h-102.980469c-33.558593 0-60.859375-27.304687-60.859375-60.859375v-35.292969c0-10.976562-8.925781-19.902343-19.898437-19.902343h-7.40625c-11.292969 0-20.480469-9.183594-20.480469-20.476563s9.1875-20.480469 20.480469-20.480469h7.40625c33.558593 0 60.859375 27.300782 60.859375 60.859375v35.292969c0 10.972656 8.925781 19.898438 19.898437 19.898438h102.980469c11.292969 0 20.480469 9.1875 20.480469 20.480468 0 11.292969-9.1875 20.480469-20.480469 20.480469zm-191.144531-143.359375c-3.765625 0-6.828125 3.0625-6.828125 6.828125 0 3.761719 3.0625 6.824219 6.828125 6.824219h7.40625c18.5 0 33.554687 15.054687 33.554687 33.554687v35.292969c0 26.03125 21.179688 47.207031 47.203125 47.207031h102.980469c3.769531 0 6.828125-3.0625 6.828125-6.828125 0-3.761718-3.058594-6.824218-6.828125-6.824218h-102.980469c-18.5 0-33.550781-15.054688-33.550781-33.554688v-35.292969c0-26.03125-21.179688-47.207031-47.207031-47.207031zm0 0" fill="#54596e"/><path d="m375.160156 321.296875h-238.046875c-34.253906 0-62.019531 22.886719-62.019531 51.117187v37.628907h354.984375v-43.480469c0-25-24.585937-45.265625-54.917969-45.265625zm0 0" fill="#fff"/><path d="m430.078125 416.871094h-354.984375c-3.773438 0-6.828125-3.058594-6.828125-6.828125v-37.628907c0-31.949218 30.886719-57.941406 68.847656-57.941406h238.046875c34.046875 0 61.746094 23.367188 61.746094 52.089844v43.480469c0 3.769531-3.054688 6.828125-6.828125 6.828125zm-348.15625-13.652344h341.332031v-36.65625c0-21.195312-21.574218-38.4375-48.09375-38.4375h-238.046875c-30.433593 0-55.191406 19.871094-55.191406 44.289062zm0 0" fill="#54596e"/><path d="m122.878906 293.992188v20.480468c0 7.539063 58.074219 13.652344 129.707032 13.652344 71.632812 0 129.707031-6.113281 129.707031-13.652344v-20.480468zm0 0" fill="#fff"/><path d="m252.585938 334.949219c-34.875 0-67.699219-1.433594-92.433594-4.035157-37.074219-3.902343-44.097656-8.789062-44.097656-16.441406v-20.480468c0-3.769532 3.050781-6.828126 6.824218-6.828126h259.414063c3.773437 0 6.828125 3.058594 6.828125 6.828126v20.480468c0 7.652344-7.027344 12.539063-44.101563 16.441406-24.734375 2.601563-57.558593 4.035157-92.433593 4.035157zm-122.878907-23.246094c10.054688 4.253906 55.261719 9.59375 122.878907 9.59375 67.621093 0 112.828124-5.339844 122.878906-9.59375v-10.886719h-245.757813zm0 0" fill="#54596e"/><path d="m252.585938 273.511719c-79.171876 0-143.359376-6.113281-143.359376-13.652344v34.132813c0 7.539062 64.1875 13.652343 143.359376 13.652343 79.175781 0 143.359374-6.113281 143.359374-13.652343v-34.132813c0 7.539063-64.183593 13.652344-143.359374 13.652344zm0 0" fill="#fff"/><path d="m252.585938 314.472656c-38.5 0-74.734376-1.433594-102.019532-4.03125-40.71875-3.875-48.167968-8.582031-48.167968-16.449218v-34.132813c0-3.773437 3.054687-6.828125 6.828124-6.828125 2.566407 0 4.804688 1.417969 5.972657 3.515625 8.933593 4.382813 59.734375 10.136719 137.386719 10.136719 77.652343 0 128.453124-5.753906 137.386718-10.136719 1.167969-2.097656 3.40625-3.515625 5.972656-3.515625 3.773438 0 6.828126 3.054688 6.828126 6.828125v34.132813c0 7.863281-7.445313 12.570312-48.167969 16.449218-27.285157 2.597656-63.519531 4.03125-102.019531 4.03125zm-136.53125-23.417968c10.964843 4.332031 61.066406 9.765624 136.53125 9.765624 75.46875 0 125.566406-5.433593 136.535156-9.765624v-19.9375c-7.292969 1.960937-18.246094 3.640624-34.515625 5.191406-27.285157 2.597656-63.519531 4.027344-102.019531 4.027344s-74.734376-1.429688-102.019532-4.027344c-16.265625-1.550782-27.21875-3.230469-34.511718-5.191406zm0 0" fill="#54596e"/><path d="m402.773438 259.859375c0-11.3125-67.242188-20.480469-150.1875-20.480469-82.945313 0-150.1875 9.167969-150.1875 20.480469 0 11.308594 67.242187 20.476563 150.1875 20.476563 82.945312 0 150.1875-9.167969 150.1875-20.476563zm0 0" fill="#54596e"/><path d="m354.988281 9.699219-48.1875 72.664062h-122.078125l-48.1875-72.664062c-4.59375-4.800781-13.65625-2.003907-13.65625 4.210937v174.433594c0 58.347656 55.015625 105.648438 122.882813 105.648438 67.867187 0 122.878906-47.300782 122.878906-105.648438v-174.433594c0-6.214844-9.0625-9.011718-13.652344-4.210937zm0 0" fill="#999"/><g fill="#54596e"><path d="m245.761719 300.816406c-71.519531 0-129.707031-50.453125-129.707031-112.472656v-174.433594c0-5.449218 3.332031-10.175781 8.707031-12.328125 5.832031-2.335937 12.527343-.964843 16.707031 3.394531l.75.949219 46.167969 69.613281h114.746093l46.167969-69.613281.75-.949219c4.175781-4.359374 10.882813-5.730468 16.707031-3.394531 5.375 2.152344 8.707032 6.878907 8.707032 12.328125v174.433594c0 62.019531-58.183594 112.472656-129.703125 112.472656zm-115.109375-286.71875-1.132813.335938.1875 173.910156c0 54.492188 52.058594 98.820312 116.054688 98.820312 63.992187 0 116.050781-44.332031 116.050781-98.820312v-174.257812l-.945312.011718-.699219.140625-47.683594 71.898438c-1.257813 1.90625-3.398437 3.054687-5.683594 3.054687h-122.082031c-2.285156 0-4.425781-1.148437-5.6875-3.054687l-47.675781-71.898438zm0 0"/><path d="m307.199219 164.285156c-11.292969 0-20.480469-9.1875-20.480469-20.480468 0-3.769532 3.054688-6.828126 6.828125-6.828126s6.828125 3.058594 6.828125 6.828126c0 3.761718 3.058594 6.828124 6.824219 6.828124s6.828125-3.066406 6.828125-6.828124c0-3.769532 3.050781-6.828126 6.824218-6.828126 3.773438 0 6.828126 3.058594 6.828126 6.828126 0 11.292968-9.1875 20.480468-20.480469 20.480468zm0 0"/><path d="m184.320312 164.285156c-11.292968 0-20.480468-9.1875-20.480468-20.480468 0-3.769532 3.054687-6.828126 6.828125-6.828126 3.773437 0 6.824219 3.058594 6.824219 6.828126 0 3.761718 3.0625 6.828124 6.828124 6.828124 3.765626 0 6.828126-3.066406 6.828126-6.828124 0-3.769532 3.050781-6.828126 6.824218-6.828126 3.773438 0 6.828125 3.058594 6.828125 6.828126 0 11.292968-9.1875 20.480468-20.480469 20.480468zm0 0"/><path d="m249.121094 208.878906 18.351562-14.382812c4.074219-3.191406 1.8125-9.730469-3.359375-9.730469h-36.707031c-5.179688 0-7.433594 6.539063-3.359375 9.730469l18.351563 14.382812c1.976562 1.546875 4.746093 1.546875 6.722656 0zm0 0"/><path d="m308.21875 194.296875c-1.71875 0-3.199219-1.300781-3.382812-3.050781-.199219-1.875 1.160156-3.558594 3.03125-3.753906l121.851562-12.949219c1.808594-.210938 3.554688 1.164062 3.753906 3.035156.199219 1.871094-1.160156 3.554687-3.03125 3.753906l-121.855468 12.945313zm0 0"/><path d="m416.234375 223.769531-.5-.035156-106.886719-15.578125c-1.867187-.269531-3.15625-2.003906-2.886718-3.871094.265624-1.871094 2.019531-3.167968 3.875-2.882812l106.886718 15.578125c1.867188.269531 3.152344 2.003906 2.886719 3.871093-.25 1.691407-1.710937 2.917969-3.375 2.917969zm0 0"/><path d="m184.328125 194.296875-.367187-.019531-121.855469-12.945313c-1.871094-.199219-3.230469-1.882812-3.03125-3.753906.199219-1.878906 1.894531-3.25 3.753906-3.035156l121.851563 12.949219c1.875.195312 3.234374 1.878906 3.03125 3.753906-.183594 1.753906-1.664063 3.050781-3.382813 3.050781zm0 0"/><path d="m76.3125 223.769531c-1.667969 0-3.125-1.226562-3.371094-2.921875-.269531-1.867187 1.019532-3.597656 2.882813-3.871094l106.886719-15.574218c1.808593-.289063 3.601562 1.011718 3.875 2.882812.265624 1.867188-1.019532 3.597656-2.886719 3.867188l-106.886719 15.578125zm0 0"/><path d="m225.28125 232.550781c-15.0625 0-27.308594-12.25-27.308594-27.304687 0-3.773438 3.054688-6.828125 6.828125-6.828125 3.773438 0 6.824219 3.054687 6.824219 6.828125 0 7.527344 6.128906 13.652344 13.65625 13.652344 7.523438 0 13.652344-6.125 13.652344-13.652344 0-3.773438 3.054687-6.828125 6.828125-6.828125 3.773437 0 6.824219 3.054687 6.824219 6.828125 0 15.054687-12.246094 27.304687-27.304688 27.304687zm0 0"/><path d="m266.238281 232.550781c-15.058593 0-27.304687-12.25-27.304687-27.304687 0-3.773438 3.054687-6.828125 6.828125-6.828125 3.773437 0 6.824219 3.054687 6.824219 6.828125 0 7.527344 6.128906 13.652344 13.652343 13.652344 7.527344 0 13.65625-6.125 13.65625-13.652344 0-3.773438 3.050781-6.828125 6.824219-6.828125s6.828125 3.054687 6.828125 6.828125c0 15.054687-12.246094 27.304687-27.308594 27.304687zm0 0"/></g><path d="m279.894531 362.257812h68.265625v47.785157h-68.265625zm0 0" fill="#fff35f"/><path d="m348.160156 416.871094h-68.265625c-3.773437 0-6.828125-3.058594-6.828125-6.828125v-47.785157c0-3.769531 3.054688-6.828124 6.828125-6.828124h68.265625c3.773438 0 6.828125 3.058593 6.828125 6.828124v47.785157c0 3.769531-3.054687 6.828125-6.828125 6.828125zm-61.441406-13.652344h54.613281v-34.132812h-54.613281zm0 0" fill="#54596e"/></svg>